999
dxflib 3.3.4.0
  0
SECTION
  2
HEADER
  9
$ACADVER
  1
AC1015
  9
$HANDSEED
  5
FFFF
  9
$ANGBASE
 50
0.0
  9
$ATTMODE
 70
1
  9
$AUNITS
 70
0
  9
$AUPREC
 70
0
  9
$CELTSCALE
 40
1.0
  9
$CHAMFERA
 40
0.0
  9
$CHAMFERB
 40
0.0
  9
$CHAMFERC
 40
0.0
  9
$CHAMFERD
 40
0.0
  9
$CMLJUST
 70
0
  9
$CMLSCALE
 40
1.0
  9
$DIMADEC
 70
0
  9
$DIMALTD
 70
2
  9
$DIMALTF
 40
25.3999999999999986
  9
$DIMALTRND
 40
0.0
  9
$DIMALTTD
 70
2
  9
$DIMALTTZ
 70
0
  9
$DIMALTU
 70
2
  9
$DIMALTZ
 70
0
  9
$DIMAPOST
  1

  9
$DIMASZ
 40
2.5
  9
$DIMATFIT
 70
3
  9
$DIMAUNIT
 70
0
  9
$DIMAZIN
 70
2
  9
$DIMCEN
 40
0.09
  9
$DIMDEC
 70
4
  9
$DIMDLE
 40
0.0
  9
$DIMDLI
 40
0.38
  9
$DIMDSEP
 70
46
  9
$DIMEXE
 40
1.25
  9
$DIMEXO
 40
0.625
  9
$DIMFRAC
 70
0
  9
$DIMGAP
 40
0.625
  9
$DIMJUST
 70
0
  9
$DIMLFAC
 40
1.0
  9
$DIMLUNIT
 70
2
  9
$DIMLWD
 70
-2
  9
$DIMLWE
 70
-2
  9
$DIMPOST
  1

  9
$DIMRND
 40
0.0
  9
$DIMSCALE
 40
1.0
  9
$DIMTAD
 70
0
  9
$DIMTDEC
 70
4
  9
$DIMTFAC
 40
1.0
  9
$DIMTM
 40
0.0
  9
$DIMTOLJ
 70
1
  9
$DIMTP
 40
0.0
  9
$DIMTSZ
 40
0.0
  9
$DIMTVP
 40
0.0
  9
$DIMTXT
 40
2.5
  9
$DIMTZIN
 70
0
  9
$DIMZIN
 70
8
  9
$DWGCODEPAGE
  3
ANSI_1252
  9
$ELEVATION
 40
0.0
  9
$EXTMAX
 10
-100000000000000000000.0
 20
-100000000000000000000.0
 30
-100000000000000000000.0
  9
$EXTMIN
 10
100000000000000000000.0
 20
100000000000000000000.0
 30
100000000000000000000.0
  9
$FILLETRAD
 40
0.5
  9
$INSBASE
 10
0.0
 20
0.0
 30
0.0
  9
$INSUNITS
 70
4
  9
$LIMMAX
 10
12.0
 20
9.0
  9
$LIMMIN
 10
0.0
 20
0.0
  9
$LTSCALE
 40
1.0
  9
$LUNITS
 70
2
  9
$LUPREC
 70
4
  9
$MAXACTVP
 70
64
  9
$PDMODE
 70
0
  9
$PDSIZE
 40
0.0
  9
$PELEVATION
 40
0.0
  9
$PEXTMAX
 10
-100000000000000000000.0
 20
-100000000000000000000.0
 30
-100000000000000000000.0
  9
$PEXTMIN
 10
100000000000000000000.0
 20
100000000000000000000.0
 30
100000000000000000000.0
  9
$PINSBASE
 10
0.0
 20
0.0
 30
0.0
  9
$PLIMMAX
 10
12.0
 20
9.0
  9
$PLIMMIN
 10
0.0
 20
0.0
  9
$PLINEWID
 40
0.0
  9
$PROXYGRAPHICS
 70
1
  9
$PUCSORG
 10
0.0
 20
0.0
 30
0.0
  9
$PUCSXDIR
 10
1.0
 20
0.0
 30
0.0
  9
$PUCSYDIR
 10
0.0
 20
1.0
 30
0.0
  9
$SHADEDGE
 70
3
  9
$SHADEDIF
 70
70
  9
$SKETCHINC
 40
0.1
  9
$SPLINESEGS
 70
8
  9
$SPLINETYPE
 70
6
  9
$SURFTAB1
 70
6
  9
$SURFTAB2
 70
6
  9
$SURFTYPE
 70
6
  9
$SURFU
 70
6
  9
$SURFV
 70
6
  9
$TEXTSIZE
 40
2.5
  9
$THICKNESS
 40
0.0
  9
$TRACEWID
 40
0.05
  9
$TREEDEPTH
 70
3020
  9
$UCSORG
 10
0.0
 20
0.0
 30
0.0
  9
$UCSXDIR
 10
1.0
 20
0.0
 30
0.0
  9
$UCSYDIR
 10
0.0
 20
1.0
 30
0.0
  9
$UNITMODE
 70
0
  9
$USERI1
 70
0
  9
$USERI2
 70
0
  9
$USERI3
 70
0
  9
$USERI4
 70
0
  9
$USERI5
 70
0
  9
$USERR1
 40
0.0
  9
$USERR2
 40
0.0
  9
$USERR3
 40
0.0
  9
$USERR4
 40
0.0
  9
$USERR5
 40
0.0
  0
ENDSEC
  0
SECTION
  2
TABLES
  0
TABLE
  2
VPORT
  5
8
100
AcDbSymbolTable
 70
1
  0
VPORT
  5
30
100
AcDbSymbolTableRecord
100
AcDbViewportTableRecord
  2
*Active
 70
0
 10
0.0
 20
0.0
 11
1.0
 21
1.0
 12
286.3055555555554861
 22
148.5
 13
0.0
 23
0.0
 14
10.0
 24
10.0
 15
10.0
 25
10.0
 16
0.0
 26
0.0
 36
1.0
 17
0.0
 27
0.0
 37
0.0
 40
297.0
 41
1.92798353909465
 42
50.0
 43
0.0
 44
0.0
 50
0.0
 51
0.0
 71
0
 72
100
 73
1
 74
3
 75
1
 76
1
 77
0
 78
0
281
0
 65
1
110
0.0
120
0.0
130
0.0
111
1.0
121
0.0
131
0.0
112
0.0
122
1.0
132
0.0
 79
0
146
0.0
  0
ENDTAB
  0
TABLE
  2
LTYPE
  5
5
100
AcDbSymbolTable
 70
21
  0
LTYPE
  5
16
100
AcDbSymbolTableRecord
100
AcDbLinetypeTableRecord
  2
CONTINUOUS
 70
0
  3
Solid line
 72
65
 73
0
 40
0.0
  0
LTYPE
  5
31
100
AcDbSymbolTableRecord
100
AcDbLinetypeTableRecord
  2
CENTER2
 70
0
  3
Center (.5x) ___ _ ___ _ ___ _ ___ _ ___ _ ___
 72
65
 73
4
 40
28.5749999999999993
 49
19.0500000000000007
 74
0
 49
-3.1749999999999998
 74
0
 49
3.1749999999999998
 74
0
 49
-3.1749999999999998
 74
0
  0
LTYPE
  5
32
100
AcDbSymbolTableRecord
100
AcDbLinetypeTableRecord
  2
DIVIDEX2
 70
0
  3
Divide (2x) ________  .  .  ________  .  .  _
 72
65
 73
6
 40
63.5
 49
25.3999999999999986
 74
0
 49
-12.6999999999999993
 74
0
 49
0.0
 74
0
 49
-12.6999999999999993
 74
0
 49
0.0
 74
0
 49
-12.6999999999999993
 74
0
  0
LTYPE
  5
33
100
AcDbSymbolTableRecord
100
AcDbLinetypeTableRecord
  2
DOT2
 70
0
  3
Dot (.5x) .....................................
 72
65
 73
2
 40
3.1749999999999998
 49
0.0
 74
0
 49
-3.1749999999999998
 74
0
  0
LTYPE
  5
34
100
AcDbSymbolTableRecord
100
AcDbLinetypeTableRecord
  2
DASHDOT2
 70
0
  3
Dash dot (.5x) _._._._._._._._._._._._._._._.
 72
65
 73
4
 40
12.6999999999999993
 49
6.3499999999999996
 74
0
 49
-3.1749999999999998
 74
0
 49
0.0
 74
0
 49
-3.1749999999999998
 74
0
  0
LTYPE
  5
35
100
AcDbSymbolTableRecord
100
AcDbLinetypeTableRecord
  2
DIVIDE
 70
0
  3
Divide ____ . . ____ . . ____ . . ____ . . ____
 72
65
 73
6
 40
31.75
 49
12.6999999999999993
 74
0
 49
-6.3499999999999996
 74
0
 49
0.0
 74
0
 49
-6.3499999999999996
 74
0
 49
0.0
 74
0
 49
-6.3499999999999996
 74
0
  0
LTYPE
  5
36
100
AcDbSymbolTableRecord
100
AcDbLinetypeTableRecord
  2
DASHDOT
 70
0
  3
Dash dot __ . __ . __ . __ . __ . __ . __ . __
 72
65
 73
4
 40
25.3999999999999986
 49
12.6999999999999993
 74
0
 49
-6.3499999999999996
 74
0
 49
0.0
 74
0
 49
-6.3499999999999996
 74
0
  0
LTYPE
  5
37
100
AcDbSymbolTableRecord
100
AcDbLinetypeTableRecord
  2
BORDER
 70
0
  3
Border __ __ . __ __ . __ __ . __ __ . __ __ .
 72
65
 73
6
 40
44.4500000000000028
 49
12.6999999999999993
 74
0
 49
-6.3499999999999996
 74
0
 49
12.6999999999999993
 74
0
 49
-6.3499999999999996
 74
0
 49
0.0
 74
0
 49
-6.3499999999999996
 74
0
  0
LTYPE
  5
38
100
AcDbSymbolTableRecord
100
AcDbLinetypeTableRecord
  2
DASHDOTX2
 70
0
  3
Dash dot (2x) ____  .  ____  .  ____  .  ___
 72
65
 73
4
 40
50.7999999999999972
 49
25.3999999999999986
 74
0
 49
-12.6999999999999993
 74
0
 49
0.0
 74
0
 49
-12.6999999999999993
 74
0
  0
LTYPE
  5
39
100
AcDbSymbolTableRecord
100
AcDbLinetypeTableRecord
  2
CENTERX2
 70
0
  3
Center (2x) ________  __  ________  __  _____
 72
65
 73
4
 40
101.5999999999999943
 49
63.5
 74
0
 49
-12.6999999999999993
 74
0
 49
12.6999999999999993
 74
0
 49
-12.6999999999999993
 74
0
  0
LTYPE
  5
3A
100
AcDbSymbolTableRecord
100
AcDbLinetypeTableRecord
  2
BORDER2
 70
0
  3
Border (.5x) __.__.__.__.__.__.__.__.__.__.__.
 72
65
 73
6
 40
22.2250000000000014
 49
6.3499999999999996
 74
0
 49
-3.1749999999999998
 74
0
 49
6.3499999999999996
 74
0
 49
-3.1749999999999998
 74
0
 49
0.0
 74
0
 49
-3.1749999999999998
 74
0
  0
LTYPE
  5
3B
100
AcDbSymbolTableRecord
100
AcDbLinetypeTableRecord
  2
BORDERX2
 70
0
  3
Border (2x) ____  ____  .  ____  ____  .  ___
 72
65
 73
6
 40
88.9000000000000057
 49
25.3999999999999986
 74
0
 49
-12.6999999999999993
 74
0
 49
25.3999999999999986
 74
0
 49
-12.6999999999999993
 74
0
 49
0.0
 74
0
 49
-12.6999999999999993
 74
0
  0
LTYPE
  5
14
100
AcDbSymbolTableRecord
100
AcDbLinetypeTableRecord
  2
BYBLOCK
 70
0
  3

 72
65
 73
0
 40
0.0
  0
LTYPE
  5
15
100
AcDbSymbolTableRecord
100
AcDbLinetypeTableRecord
  2
BYLAYER
 70
0
  3

 72
65
 73
0
 40
0.0
  0
LTYPE
  5
3C
100
AcDbSymbolTableRecord
100
AcDbLinetypeTableRecord
  2
DASHED2
 70
0
  3
Dashed (.5x) _ _ _ _ _ _ _ _ _ _ _ _ _ _ _ _ _
 72
65
 73
2
 40
9.5250000000000004
 49
6.3499999999999996
 74
0
 49
-3.1749999999999998
 74
0
  0
LTYPE
  5
3D
100
AcDbSymbolTableRecord
100
AcDbLinetypeTableRecord
  2
CENTER
 70
0
  3
Center ____ _ ____ _ ____ _ ____ _ ____ _ ____
 72
65
 73
4
 40
50.7999999999999972
 49
31.75
 74
0
 49
-6.3499999999999996
 74
0
 49
6.3499999999999996
 74
0
 49
-6.3499999999999996
 74
0
  0
LTYPE
  5
3E
100
AcDbSymbolTableRecord
100
AcDbLinetypeTableRecord
  2
DIVIDE2
 70
0
  3
Divide (.5x) __..__..__..__..__..__..__..__.._
 72
65
 73
6
 40
15.875
 49
6.3499999999999996
 74
0
 49
-3.1749999999999998
 74
0
 49
0.0
 74
0
 49
-3.1749999999999998
 74
0
 49
0.0
 74
0
 49
-3.1749999999999998
 74
0
  0
LTYPE
  5
3F
100
AcDbSymbolTableRecord
100
AcDbLinetypeTableRecord
  2
DASHED
 70
0
  3
Dashed __ __ __ __ __ __ __ __ __ __ __ __ __ _
 72
65
 73
2
 40
19.0500000000000007
 49
12.6999999999999993
 74
0
 49
-6.3499999999999996
 74
0
  0
LTYPE
  5
40
100
AcDbSymbolTableRecord
100
AcDbLinetypeTableRecord
  2
DOTX2
 70
0
  3
Dot (2x) .  .  .  .  .  .  .  .  .  .  .  .  .
 72
65
 73
2
 40
12.6999999999999993
 49
0.0
 74
0
 49
-12.6999999999999993
 74
0
  0
LTYPE
  5
41
100
AcDbSymbolTableRecord
100
AcDbLinetypeTableRecord
  2
DASHEDX2
 70
0
  3
Dashed (2x) ____  ____  ____  ____  ____  ___
 72
65
 73
2
 40
38.1000000000000014
 49
25.3999999999999986
 74
0
 49
-12.6999999999999993
 74
0
  0
LTYPE
  5
42
100
AcDbSymbolTableRecord
100
AcDbLinetypeTableRecord
  2
DOT
 70
0
  3
Dot . . . . . . . . . . . . . . . . . . . . . .
 72
65
 73
2
 40
6.3499999999999996
 49
0.0
 74
0
 49
-6.3499999999999996
 74
0
  0
ENDTAB
  0
TABLE
  2
LAYER
  5
2
100
AcDbSymbolTable
 70
1
  0
LAYER
  5
10
100
AcDbSymbolTableRecord
100
AcDbLayerTableRecord
  2
0
 70
0
 62
7
420
16777215
  6
CONTINUOUS
370
0
390
F
  0
ENDTAB
  0
TABLE
  2
STYLE
  5
3
100
AcDbSymbolTable
 70
1
  0
STYLE
  5
43
100
AcDbSymbolTableRecord
100
AcDbTextStyleTableRecord
  2
Standard
 70
0
 40
0.0
 41
1.0
 50
0.0
 71
0
 42
2.5
  3

  4

1001
ACAD
1000
txt
1071
0
  0
ENDTAB
  0
TABLE
  2
VIEW
  5
6
100
AcDbSymbolTable
 70
0
  0
ENDTAB
  0
TABLE
  2
UCS
  5
7
100
AcDbSymbolTable
 70
0
  0
ENDTAB
  0
TABLE
  2
APPID
  5
9
100
AcDbSymbolTable
 70
1
  0
APPID
  5
12
100
AcDbSymbolTableRecord
100
AcDbRegAppTableRecord
  2
ACAD
 70
0
  0
APPID
  5
44
100
AcDbSymbolTableRecord
100
AcDbRegAppTableRecord
  2
QCAD
 70
0
  0
ENDTAB
  0
TABLE
  2
DIMSTYLE
  5
A
100
AcDbSymbolTable
 70
1
100
AcDbDimStyleTable
 71
0
  0
DIMSTYLE
105
27
100
AcDbSymbolTableRecord
100
AcDbDimStyleTableRecord
  2
Standard
 41
2.5
 42
0.625
 43
3.75
 44
1.25
 70
0
 73
0
 74
0
 77
1
 78
8
140
2.5
141
2.5
143
0.03937007874016
147
0.625
171
3
172
1
271
2
272
2
274
3
278
44
283
0
284
8
340
43
  0
ENDTAB
  0
TABLE
  2
BLOCK_RECORD
  5
1
100
AcDbSymbolTable
 70
1
  0
BLOCK_RECORD
  5
1F
100
AcDbSymbolTableRecord
100
AcDbBlockTableRecord
  2
*Model_Space
340
22
  0
BLOCK_RECORD
  5
1B
100
AcDbSymbolTableRecord
100
AcDbBlockTableRecord
  2
*Paper_Space
340
1E
  0
BLOCK_RECORD
  5
23
100
AcDbSymbolTableRecord
100
AcDbBlockTableRecord
  2
*Paper_Space0
340
26
  0
BLOCK_RECORD
  5
45
100
AcDbSymbolTableRecord
100
AcDbBlockTableRecord
  2
block 1
340
0
  0
BLOCK_RECORD
  5
46
100
AcDbSymbolTableRecord
100
AcDbBlockTableRecord
  2
Servo1DrillHoles
340
0
  0
BLOCK_RECORD
  5
47
100
AcDbSymbolTableRecord
100
AcDbBlockTableRecord
  2
stepper2
340
0
  0
BLOCK_RECORD
  5
48
100
AcDbSymbolTableRecord
100
AcDbBlockTableRecord
  2
SY28STH32-0674A
340
0
  0
BLOCK_RECORD
  5
49
100
AcDbSymbolTableRecord
100
AcDbBlockTableRecord
  2
steppermount
340
0
  0
BLOCK_RECORD
  5
4A
100
AcDbSymbolTableRecord
100
AcDbBlockTableRecord
  2
ServoScrews
340
0
  0
BLOCK_RECORD
  5
4B
100
AcDbSymbolTableRecord
100
AcDbBlockTableRecord
  2
SY20STH30-0604A
340
0
  0
BLOCK_RECORD
  5
4C
100
AcDbSymbolTableRecord
100
AcDbBlockTableRecord
  2
SY42STH38-1684A
340
0
  0
BLOCK_RECORD
  5
4D
100
AcDbSymbolTableRecord
100
AcDbBlockTableRecord
  2
SY35ST36-1004A
340
0
  0
BLOCK_RECORD
  5
4E
100
AcDbSymbolTableRecord
100
AcDbBlockTableRecord
  2
stepper
340
0
  0
BLOCK_RECORD
  5
4F
100
AcDbSymbolTableRecord
100
AcDbBlockTableRecord
  2
SmallServo
340
0
  0
ENDTAB
  0
ENDSEC
  0
SECTION
  2
BLOCKS
  0
BLOCK
  5
20
100
AcDbEntity
  8
0
100
AcDbBlockBegin
  2
*Model_Space
 70
0
 10
0.0
 20
0.0
 30
0.0
  3
*Model_Space
  1

  0
ENDBLK
  5
21
100
AcDbEntity
  8
0
100
AcDbBlockEnd
  0
BLOCK
  5
1C
100
AcDbEntity
 67
1
  8
0
100
AcDbBlockBegin
  2
*Paper_Space
 70
0
 10
0.0
 20
0.0
 30
0.0
  3
*Paper_Space
  1

  0
ENDBLK
  5
1D
100
AcDbEntity
 67
1
  8
0
100
AcDbBlockEnd
  0
BLOCK
  5
24
100
AcDbEntity
  8
0
100
AcDbBlockBegin
  2
*Paper_Space0
 70
0
 10
0.0
 20
0.0
 30
0.0
  3
*Paper_Space0
  1

  0
ENDBLK
  5
25
100
AcDbEntity
  8
0
100
AcDbBlockEnd
  0
BLOCK
  5
50
100
AcDbEntity
  8
0
100
AcDbBlockBegin
  2
block 1
 70
0
 10
0.0
 20
0.0
 30
0.0
  3
block 1
  1

  0
LINE
  5
51
100
AcDbEntity
100
AcDbLine
  8
0
 62
256
370
0
  6
BYLAYER
 10
-7.4539999999999997
 20
-0.828
 30
0.0
 11
-7.101
 21
-0.548
 31
0.0
  0
LINE
  5
52
100
AcDbEntity
100
AcDbLine
  8
0
 62
256
370
0
  6
BYLAYER
 10
-7.101
 20
-0.548
 30
0.0
 11
-6.7850000000000001
 21
-0.352
 31
0.0
  0
LINE
  5
53
100
AcDbEntity
100
AcDbLine
  8
0
 62
256
370
0
  6
BYLAYER
 10
-6.7850000000000001
 20
-0.352
 30
0.0
 11
-6.5209999999999999
 21
-0.226
 31
0.0
  0
LINE
  5
54
100
AcDbEntity
100
AcDbLine
  8
0
 62
256
370
0
  6
BYLAYER
 10
-6.5209999999999999
 20
-0.226
 30
0.0
 11
-6.319
 21
-0.157
 31
0.0
  0
LINE
  5
55
100
AcDbEntity
100
AcDbLine
  8
0
 62
256
370
0
  6
BYLAYER
 10
-6.319
 20
-0.157
 30
0.0
 11
-6.1879999999999997
 21
-0.128
 31
0.0
  0
LINE
  5
56
100
AcDbEntity
100
AcDbLine
  8
0
 62
256
370
0
  6
BYLAYER
 10
-6.1879999999999997
 20
-0.128
 30
0.0
 11
-6.1769999999999996
 21
-0.128
 31
0.0
  0
LINE
  5
57
100
AcDbEntity
100
AcDbLine
  8
0
 62
256
370
0
  6
BYLAYER
 10
-6.1769999999999996
 20
-0.128
 30
0.0
 11
-6.1769999999999996
 21
0.128
 31
0.0
  0
LINE
  5
58
100
AcDbEntity
100
AcDbLine
  8
0
 62
256
370
0
  6
BYLAYER
 10
-6.1769999999999996
 20
0.128
 30
0.0
 11
-6.1879999999999997
 21
0.128
 31
0.0
  0
LINE
  5
59
100
AcDbEntity
100
AcDbLine
  8
0
 62
256
370
0
  6
BYLAYER
 10
-6.1879999999999997
 20
0.128
 30
0.0
 11
-6.319
 21
0.157
 31
0.0
  0
LINE
  5
5A
100
AcDbEntity
100
AcDbLine
  8
0
 62
256
370
0
  6
BYLAYER
 10
-6.319
 20
0.157
 30
0.0
 11
-6.5209999999999999
 21
0.226
 31
0.0
  0
LINE
  5
5B
100
AcDbEntity
100
AcDbLine
  8
0
 62
256
370
0
  6
BYLAYER
 10
-6.5209999999999999
 20
0.226
 30
0.0
 11
-6.7850000000000001
 21
0.352
 31
0.0
  0
LINE
  5
5C
100
AcDbEntity
100
AcDbLine
  8
0
 62
256
370
0
  6
BYLAYER
 10
-6.7850000000000001
 20
0.352
 30
0.0
 11
-7.101
 21
0.548
 31
0.0
  0
LINE
  5
5D
100
AcDbEntity
100
AcDbLine
  8
0
 62
256
370
0
  6
BYLAYER
 10
-7.101
 20
0.548
 30
0.0
 11
-7.4539999999999997
 21
0.828
 31
0.0
  0
LINE
  5
5E
100
AcDbEntity
100
AcDbLine
  8
0
 62
256
370
0
  6
BYLAYER
 10
-7.4539999999999997
 20
0.828
 30
0.0
 11
-7.4260000000000002
 21
1.052
 31
0.0
  0
LINE
  5
5F
100
AcDbEntity
100
AcDbLine
  8
0
 62
256
370
0
  6
BYLAYER
 10
-7.4260000000000002
 20
1.052
 30
0.0
 11
-7.0149999999999997
 21
1.2350000000000001
 31
0.0
  0
LINE
  5
60
100
AcDbEntity
100
AcDbLine
  8
0
 62
256
370
0
  6
BYLAYER
 10
-7.0149999999999997
 20
1.2350000000000001
 30
0.0
 11
-6.6600000000000001
 21
1.3460000000000001
 31
0.0
  0
LINE
  5
61
100
AcDbEntity
100
AcDbLine
  8
0
 62
256
370
0
  6
BYLAYER
 10
-6.6600000000000001
 20
1.3460000000000001
 30
0.0
 11
-6.3719999999999999
 21
1.403
 31
0.0
  0
LINE
  5
62
100
AcDbEntity
100
AcDbLine
  8
0
 62
256
370
0
  6
BYLAYER
 10
-6.3719999999999999
 20
1.403
 30
0.0
 11
-6.1600000000000001
 21
1.419
 31
0.0
  0
LINE
  5
63
100
AcDbEntity
100
AcDbLine
  8
0
 62
256
370
0
  6
BYLAYER
 10
-6.1600000000000001
 20
1.419
 30
0.0
 11
-6.0250000000000004
 21
1.415
 31
0.0
  0
LINE
  5
64
100
AcDbEntity
100
AcDbLine
  8
0
 62
256
370
0
  6
BYLAYER
 10
-6.0250000000000004
 20
1.415
 30
0.0
 11
-6.0140000000000002
 21
1.4119999999999999
 31
0.0
  0
LINE
  5
65
100
AcDbEntity
100
AcDbLine
  8
0
 62
256
370
0
  6
BYLAYER
 10
-6.0140000000000002
 20
1.4119999999999999
 30
0.0
 11
-5.9509999999999996
 21
1.659
 31
0.0
  0
LINE
  5
66
100
AcDbEntity
100
AcDbLine
  8
0
 62
256
370
0
  6
BYLAYER
 10
-5.9509999999999996
 20
1.659
 30
0.0
 11
-5.9619999999999997
 21
1.6619999999999999
 31
0.0
  0
LINE
  5
67
100
AcDbEntity
100
AcDbLine
  8
0
 62
256
370
0
  6
BYLAYER
 10
-5.9619999999999997
 20
1.6619999999999999
 30
0.0
 11
-6.0810000000000004
 21
1.724
 31
0.0
  0
LINE
  5
68
100
AcDbEntity
100
AcDbLine
  8
0
 62
256
370
0
  6
BYLAYER
 10
-6.0810000000000004
 20
1.724
 30
0.0
 11
-6.2599999999999998
 21
1.841
 31
0.0
  0
LINE
  5
69
100
AcDbEntity
100
AcDbLine
  8
0
 62
256
370
0
  6
BYLAYER
 10
-6.2599999999999998
 20
1.841
 30
0.0
 11
-6.4850000000000003
 21
2.0289999999999999
 31
0.0
  0
LINE
  5
6A
100
AcDbEntity
100
AcDbLine
  8
0
 62
256
370
0
  6
BYLAYER
 10
-6.4850000000000003
 20
2.0289999999999999
 30
0.0
 11
-6.742
 21
2.2970000000000002
 31
0.0
  0
LINE
  5
6B
100
AcDbEntity
100
AcDbLine
  8
0
 62
256
370
0
  6
BYLAYER
 10
-6.742
 20
2.2970000000000002
 30
0.0
 11
-7.0140000000000002
 21
2.6560000000000001
 31
0.0
  0
LINE
  5
6C
100
AcDbEntity
100
AcDbLine
  8
0
 62
256
370
0
  6
BYLAYER
 10
-7.0140000000000002
 20
2.6560000000000001
 30
0.0
 11
-6.931
 21
2.8660000000000001
 31
0.0
  0
LINE
  5
6D
100
AcDbEntity
100
AcDbLine
  8
0
 62
256
370
0
  6
BYLAYER
 10
-6.931
 20
2.8660000000000001
 30
0.0
 11
-6.4870000000000001
 21
2.9409999999999998
 31
0.0
  0
LINE
  5
6E
100
AcDbEntity
100
AcDbLine
  8
0
 62
256
370
0
  6
BYLAYER
 10
-6.4870000000000001
 20
2.9409999999999998
 30
0.0
 11
-6.1159999999999997
 21
2.96
 31
0.0
  0
LINE
  5
6F
100
AcDbEntity
100
AcDbLine
  8
0
 62
256
370
0
  6
BYLAYER
 10
-6.1159999999999997
 20
2.96
 30
0.0
 11
-5.8230000000000004
 21
2.9430000000000001
 31
0.0
  0
LINE
  5
70
100
AcDbEntity
100
AcDbLine
  8
0
 62
256
370
0
  6
BYLAYER
 10
-5.8230000000000004
 20
2.9430000000000001
 30
0.0
 11
-5.6130000000000004
 21
2.9060000000000001
 31
0.0
  0
LINE
  5
71
100
AcDbEntity
100
AcDbLine
  8
0
 62
256
370
0
  6
BYLAYER
 10
-5.6130000000000004
 20
2.9060000000000001
 30
0.0
 11
-5.484
 21
2.8690000000000002
 31
0.0
  0
LINE
  5
72
100
AcDbEntity
100
AcDbLine
  8
0
 62
256
370
0
  6
BYLAYER
 10
-5.484
 20
2.8690000000000002
 30
0.0
 11
-5.4749999999999996
 21
2.8639999999999999
 31
0.0
  0
LINE
  5
73
100
AcDbEntity
100
AcDbLine
  8
0
 62
256
370
0
  6
BYLAYER
 10
-5.4749999999999996
 20
2.8639999999999999
 30
0.0
 11
-5.3520000000000003
 21
3.0880000000000001
 31
0.0
  0
LINE
  5
74
100
AcDbEntity
100
AcDbLine
  8
0
 62
256
370
0
  6
BYLAYER
 10
-5.3520000000000003
 20
3.0880000000000001
 30
0.0
 11
-5.3609999999999998
 21
3.093
 31
0.0
  0
LINE
  5
75
100
AcDbEntity
100
AcDbLine
  8
0
 62
256
370
0
  6
BYLAYER
 10
-5.3609999999999998
 20
3.093
 30
0.0
 11
-5.4619999999999997
 21
3.1819999999999999
 31
0.0
  0
LINE
  5
76
100
AcDbEntity
100
AcDbLine
  8
0
 62
256
370
0
  6
BYLAYER
 10
-5.4619999999999997
 20
3.1819999999999999
 30
0.0
 11
-5.6059999999999999
 21
3.3399999999999999
 31
0.0
  0
LINE
  5
77
100
AcDbEntity
100
AcDbLine
  8
0
 62
256
370
0
  6
BYLAYER
 10
-5.6059999999999999
 20
3.3399999999999999
 30
0.0
 11
-5.7759999999999998
 21
3.5779999999999998
 31
0.0
  0
LINE
  5
78
100
AcDbEntity
100
AcDbLine
  8
0
 62
256
370
0
  6
BYLAYER
 10
-5.7759999999999998
 20
3.5779999999999998
 30
0.0
 11
-5.9589999999999996
 21
3.9020000000000001
 31
0.0
  0
LINE
  5
79
100
AcDbEntity
100
AcDbLine
  8
0
 62
256
370
0
  6
BYLAYER
 10
-5.9589999999999996
 20
3.9020000000000001
 30
0.0
 11
-6.133
 21
4.3159999999999998
 31
0.0
  0
LINE
  5
7A
100
AcDbEntity
100
AcDbLine
  8
0
 62
256
370
0
  6
BYLAYER
 10
-6.133
 20
4.3159999999999998
 30
0.0
 11
-6.0
 21
4.4989999999999997
 31
0.0
  0
LINE
  5
7B
100
AcDbEntity
100
AcDbLine
  8
0
 62
256
370
0
  6
BYLAYER
 10
-6.0
 20
4.4989999999999997
 30
0.0
 11
-5.5519999999999996
 21
4.4610000000000003
 31
0.0
  0
LINE
  5
7C
100
AcDbEntity
100
AcDbLine
  8
0
 62
256
370
0
  6
BYLAYER
 10
-5.5519999999999996
 20
4.4610000000000003
 30
0.0
 11
-5.1870000000000003
 21
4.3879999999999999
 31
0.0
  0
LINE
  5
7D
100
AcDbEntity
100
AcDbLine
  8
0
 62
256
370
0
  6
BYLAYER
 10
-5.1870000000000003
 20
4.3879999999999999
 30
0.0
 11
-4.9080000000000004
 21
4.2990000000000004
 31
0.0
  0
LINE
  5
7E
100
AcDbEntity
100
AcDbLine
  8
0
 62
256
370
0
  6
BYLAYER
 10
-4.9080000000000004
 20
4.2990000000000004
 30
0.0
 11
-4.7140000000000004
 21
4.2110000000000003
 31
0.0
  0
LINE
  5
7F
100
AcDbEntity
100
AcDbLine
  8
0
 62
256
370
0
  6
BYLAYER
 10
-4.7140000000000004
 20
4.2110000000000003
 30
0.0
 11
-4.5979999999999999
 21
4.1429999999999998
 31
0.0
  0
LINE
  5
80
100
AcDbEntity
100
AcDbLine
  8
0
 62
256
370
0
  6
BYLAYER
 10
-4.5979999999999999
 20
4.1429999999999998
 30
0.0
 11
-4.5899999999999999
 21
4.1360000000000001
 31
0.0
  0
LINE
  5
81
100
AcDbEntity
100
AcDbLine
  8
0
 62
256
370
0
  6
BYLAYER
 10
-4.5899999999999999
 20
4.1360000000000001
 30
0.0
 11
-4.4160000000000004
 21
4.3220000000000001
 31
0.0
  0
LINE
  5
82
100
AcDbEntity
100
AcDbLine
  8
0
 62
256
370
0
  6
BYLAYER
 10
-4.4160000000000004
 20
4.3220000000000001
 30
0.0
 11
-4.423
 21
4.3289999999999997
 31
0.0
  0
LINE
  5
83
100
AcDbEntity
100
AcDbLine
  8
0
 62
256
370
0
  6
BYLAYER
 10
-4.423
 20
4.3289999999999997
 30
0.0
 11
-4.4989999999999997
 21
4.4400000000000004
 31
0.0
  0
LINE
  5
84
100
AcDbEntity
100
AcDbLine
  8
0
 62
256
370
0
  6
BYLAYER
 10
-4.4989999999999997
 20
4.4400000000000004
 30
0.0
 11
-4.5990000000000002
 21
4.6289999999999996
 31
0.0
  0
LINE
  5
85
100
AcDbEntity
100
AcDbLine
  8
0
 62
256
370
0
  6
BYLAYER
 10
-4.5990000000000002
 20
4.6289999999999996
 30
0.0
 11
-4.7050000000000001
 21
4.9020000000000001
 31
0.0
  0
LINE
  5
86
100
AcDbEntity
100
AcDbLine
  8
0
 62
256
370
0
  6
BYLAYER
 10
-4.7050000000000001
 20
4.9020000000000001
 30
0.0
 11
-4.8010000000000002
 21
5.2610000000000001
 31
0.0
  0
LINE
  5
87
100
AcDbEntity
100
AcDbLine
  8
0
 62
256
370
0
  6
BYLAYER
 10
-4.8010000000000002
 20
5.2610000000000001
 30
0.0
 11
-4.867
 21
5.7060000000000004
 31
0.0
  0
LINE
  5
88
100
AcDbEntity
100
AcDbLine
  8
0
 62
256
370
0
  6
BYLAYER
 10
-4.867
 20
5.7060000000000004
 30
0.0
 11
-4.6929999999999996
 21
5.8499999999999996
 31
0.0
  0
LINE
  5
89
100
AcDbEntity
100
AcDbLine
  8
0
 62
256
370
0
  6
BYLAYER
 10
-4.6929999999999996
 20
5.8499999999999996
 30
0.0
 11
-4.2679999999999998
 21
5.702
 31
0.0
  0
LINE
  5
8A
100
AcDbEntity
100
AcDbLine
  8
0
 62
256
370
0
  6
BYLAYER
 10
-4.2679999999999998
 20
5.702
 30
0.0
 11
-3.9329999999999998
 21
5.54
 31
0.0
  0
LINE
  5
8B
100
AcDbEntity
100
AcDbLine
  8
0
 62
256
370
0
  6
BYLAYER
 10
-3.9329999999999998
 20
5.54
 30
0.0
 11
-3.6850000000000001
 21
5.3849999999999998
 31
0.0
  0
LINE
  5
8C
100
AcDbEntity
100
AcDbLine
  8
0
 62
256
370
0
  6
BYLAYER
 10
-3.6850000000000001
 20
5.3849999999999998
 30
0.0
 11
-3.5190000000000001
 21
5.2510000000000003
 31
0.0
  0
LINE
  5
8D
100
AcDbEntity
100
AcDbLine
  8
0
 62
256
370
0
  6
BYLAYER
 10
-3.5190000000000001
 20
5.2510000000000003
 30
0.0
 11
-3.423
 21
5.1559999999999997
 31
0.0
  0
LINE
  5
8E
100
AcDbEntity
100
AcDbLine
  8
0
 62
256
370
0
  6
BYLAYER
 10
-3.423
 20
5.1559999999999997
 30
0.0
 11
-3.4169999999999998
 21
5.1459999999999999
 31
0.0
  0
LINE
  5
8F
100
AcDbEntity
100
AcDbLine
  8
0
 62
256
370
0
  6
BYLAYER
 10
-3.4169999999999998
 20
5.1459999999999999
 30
0.0
 11
-3.202
 21
5.2830000000000004
 31
0.0
  0
LINE
  5
90
100
AcDbEntity
100
AcDbLine
  8
0
 62
256
370
0
  6
BYLAYER
 10
-3.202
 20
5.2830000000000004
 30
0.0
 11
-3.2080000000000002
 21
5.2930000000000001
 31
0.0
  0
LINE
  5
91
100
AcDbEntity
100
AcDbLine
  8
0
 62
256
370
0
  6
BYLAYER
 10
-3.2080000000000002
 20
5.2930000000000001
 30
0.0
 11
-3.2530000000000001
 21
5.4199999999999999
 31
0.0
  0
LINE
  5
92
100
AcDbEntity
100
AcDbLine
  8
0
 62
256
370
0
  6
BYLAYER
 10
-3.2530000000000001
 20
5.4199999999999999
 30
0.0
 11
-3.3029999999999999
 21
5.6269999999999998
 31
0.0
  0
LINE
  5
93
100
AcDbEntity
100
AcDbLine
  8
0
 62
256
370
0
  6
BYLAYER
 10
-3.3029999999999999
 20
5.6269999999999998
 30
0.0
 11
-3.3380000000000001
 21
5.9180000000000001
 31
0.0
  0
LINE
  5
94
100
AcDbEntity
100
AcDbLine
  8
0
 62
256
370
0
  6
BYLAYER
 10
-3.3380000000000001
 20
5.9180000000000001
 30
0.0
 11
-3.3420000000000001
 21
6.29
 31
0.0
  0
LINE
  5
95
100
AcDbEntity
100
AcDbLine
  8
0
 62
256
370
0
  6
BYLAYER
 10
-3.3420000000000001
 20
6.29
 30
0.0
 11
-3.2949999999999999
 21
6.7370000000000001
 31
0.0
  0
LINE
  5
96
100
AcDbEntity
100
AcDbLine
  8
0
 62
256
370
0
  6
BYLAYER
 10
-3.2949999999999999
 20
6.7370000000000001
 30
0.0
 11
-3.0910000000000002
 21
6.8330000000000002
 31
0.0
  0
LINE
  5
97
100
AcDbEntity
100
AcDbLine
  8
0
 62
256
370
0
  6
BYLAYER
 10
-3.0910000000000002
 20
6.8330000000000002
 30
0.0
 11
-2.7160000000000002
 21
6.5839999999999996
 31
0.0
  0
LINE
  5
98
100
AcDbEntity
100
AcDbLine
  8
0
 62
256
370
0
  6
BYLAYER
 10
-2.7160000000000002
 20
6.5839999999999996
 30
0.0
 11
-2.4319999999999999
 21
6.3440000000000003
 31
0.0
  0
LINE
  5
99
100
AcDbEntity
100
AcDbLine
  8
0
 62
256
370
0
  6
BYLAYER
 10
-2.4319999999999999
 20
6.3440000000000003
 30
0.0
 11
-2.23
 21
6.1319999999999997
 31
0.0
  0
LINE
  5
9A
100
AcDbEntity
100
AcDbLine
  8
0
 62
256
370
0
  6
BYLAYER
 10
-2.23
 20
6.1319999999999997
 30
0.0
 11
-2.1019999999999999
 21
5.9610000000000003
 31
0.0
  0
LINE
  5
9B
100
AcDbEntity
100
AcDbLine
  8
0
 62
256
370
0
  6
BYLAYER
 10
-2.1019999999999999
 20
5.9610000000000003
 30
0.0
 11
-2.0329999999999999
 21
5.8460000000000001
 31
0.0
  0
LINE
  5
9C
100
AcDbEntity
100
AcDbLine
  8
0
 62
256
370
0
  6
BYLAYER
 10
-2.0329999999999999
 20
5.8460000000000001
 30
0.0
 11
-2.0289999999999999
 21
5.835
 31
0.0
  0
LINE
  5
9D
100
AcDbEntity
100
AcDbLine
  8
0
 62
256
370
0
  6
BYLAYER
 10
-2.0289999999999999
 20
5.835
 30
0.0
 11
-1.788
 21
5.9130000000000003
 31
0.0
  0
LINE
  5
9E
100
AcDbEntity
100
AcDbLine
  8
0
 62
256
370
0
  6
BYLAYER
 10
-1.788
 20
5.9130000000000003
 30
0.0
 11
-1.7909999999999999
 21
5.9240000000000004
 31
0.0
  0
LINE
  5
9F
100
AcDbEntity
100
AcDbLine
  8
0
 62
256
370
0
  6
BYLAYER
 10
-1.7909999999999999
 20
5.9240000000000004
 30
0.0
 11
-1.8029999999999999
 21
6.0579999999999998
 31
0.0
  0
LINE
  5
A0
100
AcDbEntity
100
AcDbLine
  8
0
 62
256
370
0
  6
BYLAYER
 10
-1.8029999999999999
 20
6.0579999999999998
 30
0.0
 11
-1.8
 21
6.2720000000000002
 31
0.0
  0
LINE
  5
A1
100
AcDbEntity
100
AcDbLine
  8
0
 62
256
370
0
  6
BYLAYER
 10
-1.8
 20
6.2720000000000002
 30
0.0
 11
-1.762
 21
6.5620000000000003
 31
0.0
  0
LINE
  5
A2
100
AcDbEntity
100
AcDbLine
  8
0
 62
256
370
0
  6
BYLAYER
 10
-1.762
 20
6.5620000000000003
 30
0.0
 11
-1.673
 21
6.923
 31
0.0
  0
LINE
  5
A3
100
AcDbEntity
100
AcDbLine
  8
0
 62
256
370
0
  6
BYLAYER
 10
-1.673
 20
6.923
 30
0.0
 11
-1.516
 21
7.3449999999999998
 31
0.0
  0
LINE
  5
A4
100
AcDbEntity
100
AcDbLine
  8
0
 62
256
370
0
  6
BYLAYER
 10
-1.516
 20
7.3449999999999998
 30
0.0
 11
-1.294
 21
7.3869999999999996
 31
0.0
  0
LINE
  5
A5
100
AcDbEntity
100
AcDbLine
  8
0
 62
256
370
0
  6
BYLAYER
 10
-1.294
 20
7.3869999999999996
 30
0.0
 11
-0.993
 21
7.0529999999999999
 31
0.0
  0
LINE
  5
A6
100
AcDbEntity
100
AcDbLine
  8
0
 62
256
370
0
  6
BYLAYER
 10
-0.993
 20
7.0529999999999999
 30
0.0
 11
-0.778
 21
6.75
 31
0.0
  0
LINE
  5
A7
100
AcDbEntity
100
AcDbLine
  8
0
 62
256
370
0
  6
BYLAYER
 10
-0.778
 20
6.75
 30
0.0
 11
-0.635
 21
6.4939999999999998
 31
0.0
  0
LINE
  5
A8
100
AcDbEntity
100
AcDbLine
  8
0
 62
256
370
0
  6
BYLAYER
 10
-0.635
 20
6.4939999999999998
 30
0.0
 11
-0.554
 21
6.2969999999999997
 31
0.0
  0
LINE
  5
A9
100
AcDbEntity
100
AcDbLine
  8
0
 62
256
370
0
  6
BYLAYER
 10
-0.554
 20
6.2969999999999997
 30
0.0
 11
-0.516
 21
6.1680000000000001
 31
0.0
  0
LINE
  5
AA
100
AcDbEntity
100
AcDbLine
  8
0
 62
256
370
0
  6
BYLAYER
 10
-0.516
 20
6.1680000000000001
 30
0.0
 11
-0.515
 21
6.1559999999999997
 31
0.0
  0
LINE
  5
AB
100
AcDbEntity
100
AcDbLine
  8
0
 62
256
370
0
  6
BYLAYER
 10
-0.515
 20
6.1559999999999997
 30
0.0
 11
-0.261
 21
6.173
 31
0.0
  0
LINE
  5
AC
100
AcDbEntity
100
AcDbLine
  8
0
 62
256
370
0
  6
BYLAYER
 10
-0.261
 20
6.173
 30
0.0
 11
-0.261
 21
6.1840000000000002
 31
0.0
  0
LINE
  5
AD
100
AcDbEntity
100
AcDbLine
  8
0
 62
256
370
0
  6
BYLAYER
 10
-0.261
 20
6.1840000000000002
 30
0.0
 11
-0.24
 21
6.3170000000000002
 31
0.0
  0
LINE
  5
AE
100
AcDbEntity
100
AcDbLine
  8
0
 62
256
370
0
  6
BYLAYER
 10
-0.24
 20
6.3170000000000002
 30
0.0
 11
-0.184
 21
6.5220000000000002
 31
0.0
  0
LINE
  5
AF
100
AcDbEntity
100
AcDbLine
  8
0
 62
256
370
0
  6
BYLAYER
 10
-0.184
 20
6.5220000000000002
 30
0.0
 11
-0.075
 21
6.7939999999999996
 31
0.0
  0
LINE
  5
B0
100
AcDbEntity
100
AcDbLine
  8
0
 62
256
370
0
  6
BYLAYER
 10
-0.075
 20
6.7939999999999996
 30
0.0
 11
0.101
 21
7.1219999999999999
 31
0.0
  0
LINE
  5
B1
100
AcDbEntity
100
AcDbLine
  8
0
 62
256
370
0
  6
BYLAYER
 10
0.101
 20
7.1219999999999999
 30
0.0
 11
0.358
 21
7.4909999999999997
 31
0.0
  0
LINE
  5
B2
100
AcDbEntity
100
AcDbLine
  8
0
 62
256
370
0
  6
BYLAYER
 10
0.358
 20
7.4909999999999997
 30
0.0
 11
0.584
 21
7.4770000000000003
 31
0.0
  0
LINE
  5
B3
100
AcDbEntity
100
AcDbLine
  8
0
 62
256
370
0
  6
BYLAYER
 10
0.584
 20
7.4770000000000003
 30
0.0
 11
0.792
 21
7.0780000000000003
 31
0.0
  0
LINE
  5
B4
100
AcDbEntity
100
AcDbLine
  8
0
 62
256
370
0
  6
BYLAYER
 10
0.792
 20
7.0780000000000003
 30
0.0
 11
0.925
 21
6.7309999999999999
 31
0.0
  0
LINE
  5
B5
100
AcDbEntity
100
AcDbLine
  8
0
 62
256
370
0
  6
BYLAYER
 10
0.925
 20
6.7309999999999999
 30
0.0
 11
1.0
 21
6.4480000000000004
 31
0.0
  0
LINE
  5
B6
100
AcDbEntity
100
AcDbLine
  8
0
 62
256
370
0
  6
BYLAYER
 10
1.0
 20
6.4480000000000004
 30
0.0
 11
1.03
 21
6.2370000000000001
 31
0.0
  0
LINE
  5
B7
100
AcDbEntity
100
AcDbLine
  8
0
 62
256
370
0
  6
BYLAYER
 10
1.03
 20
6.2370000000000001
 30
0.0
 11
1.034
 21
6.1020000000000003
 31
0.0
  0
LINE
  5
B8
100
AcDbEntity
100
AcDbLine
  8
0
 62
256
370
0
  6
BYLAYER
 10
1.034
 20
6.1020000000000003
 30
0.0
 11
1.032
 21
6.0910000000000002
 31
0.0
  0
LINE
  5
B9
100
AcDbEntity
100
AcDbLine
  8
0
 62
256
370
0
  6
BYLAYER
 10
1.032
 20
6.0910000000000002
 30
0.0
 11
1.2829999999999999
 21
6.0430000000000001
 31
0.0
  0
LINE
  5
BA
100
AcDbEntity
100
AcDbLine
  8
0
 62
256
370
0
  6
BYLAYER
 10
1.2829999999999999
 20
6.0430000000000001
 30
0.0
 11
1.2849999999999999
 21
6.0540000000000003
 31
0.0
  0
LINE
  5
BB
100
AcDbEntity
100
AcDbLine
  8
0
 62
256
370
0
  6
BYLAYER
 10
1.2849999999999999
 20
6.0540000000000003
 30
0.0
 11
1.339
 21
6.1779999999999999
 31
0.0
  0
LINE
  5
BC
100
AcDbEntity
100
AcDbLine
  8
0
 62
256
370
0
  6
BYLAYER
 10
1.339
 20
6.1779999999999999
 30
0.0
 11
1.444
 21
6.3630000000000004
 31
0.0
  0
LINE
  5
BD
100
AcDbEntity
100
AcDbLine
  8
0
 62
256
370
0
  6
BYLAYER
 10
1.444
 20
6.3630000000000004
 30
0.0
 11
1.617
 21
6.5990000000000002
 31
0.0
  0
LINE
  5
BE
100
AcDbEntity
100
AcDbLine
  8
0
 62
256
370
0
  6
BYLAYER
 10
1.617
 20
6.5990000000000002
 30
0.0
 11
1.869
 21
6.8730000000000002
 31
0.0
  0
LINE
  5
BF
100
AcDbEntity
100
AcDbLine
  8
0
 62
256
370
0
  6
BYLAYER
 10
1.869
 20
6.8730000000000002
 30
0.0
 11
2.21
 21
7.1669999999999998
 31
0.0
  0
LINE
  5
C0
100
AcDbEntity
100
AcDbLine
  8
0
 62
256
370
0
  6
BYLAYER
 10
2.21
 20
7.1669999999999998
 30
0.0
 11
2.4249999999999998
 21
7.0970000000000004
 31
0.0
  0
LINE
  5
C1
100
AcDbEntity
100
AcDbLine
  8
0
 62
256
370
0
  6
BYLAYER
 10
2.4249999999999998
 20
7.0970000000000004
 30
0.0
 11
2.5270000000000001
 21
6.6589999999999998
 31
0.0
  0
LINE
  5
C2
100
AcDbEntity
100
AcDbLine
  8
0
 62
256
370
0
  6
BYLAYER
 10
2.5270000000000001
 20
6.6589999999999998
 30
0.0
 11
2.5699999999999998
 21
6.29
 31
0.0
  0
LINE
  5
C3
100
AcDbEntity
100
AcDbLine
  8
0
 62
256
370
0
  6
BYLAYER
 10
2.5699999999999998
 20
6.29
 30
0.0
 11
2.5720000000000001
 21
5.9969999999999999
 31
0.0
  0
LINE
  5
C4
100
AcDbEntity
100
AcDbLine
  8
0
 62
256
370
0
  6
BYLAYER
 10
2.5720000000000001
 20
5.9969999999999999
 30
0.0
 11
2.548
 21
5.7850000000000001
 31
0.0
  0
LINE
  5
C5
100
AcDbEntity
100
AcDbLine
  8
0
 62
256
370
0
  6
BYLAYER
 10
2.548
 20
5.7850000000000001
 30
0.0
 11
2.5190000000000001
 21
5.6529999999999996
 31
0.0
  0
LINE
  5
C6
100
AcDbEntity
100
AcDbLine
  8
0
 62
256
370
0
  6
BYLAYER
 10
2.5190000000000001
 20
5.6529999999999996
 30
0.0
 11
2.5139999999999998
 21
5.6429999999999998
 31
0.0
  0
LINE
  5
C7
100
AcDbEntity
100
AcDbLine
  8
0
 62
256
370
0
  6
BYLAYER
 10
2.5139999999999998
 20
5.6429999999999998
 30
0.0
 11
2.7450000000000001
 21
5.5339999999999998
 31
0.0
  0
LINE
  5
C8
100
AcDbEntity
100
AcDbLine
  8
0
 62
256
370
0
  6
BYLAYER
 10
2.7450000000000001
 20
5.5339999999999998
 30
0.0
 11
2.75
 21
5.5449999999999999
 31
0.0
  0
LINE
  5
C9
100
AcDbEntity
100
AcDbLine
  8
0
 62
256
370
0
  6
BYLAYER
 10
2.75
 20
5.5449999999999999
 30
0.0
 11
2.8330000000000002
 21
5.6509999999999998
 31
0.0
  0
LINE
  5
CA
100
AcDbEntity
100
AcDbLine
  8
0
 62
256
370
0
  6
BYLAYER
 10
2.8330000000000002
 20
5.6509999999999998
 30
0.0
 11
2.9809999999999999
 21
5.8040000000000003
 31
0.0
  0
LINE
  5
CB
100
AcDbEntity
100
AcDbLine
  8
0
 62
256
370
0
  6
BYLAYER
 10
2.9809999999999999
 20
5.8040000000000003
 30
0.0
 11
3.2080000000000002
 21
5.9900000000000002
 31
0.0
  0
LINE
  5
CC
100
AcDbEntity
100
AcDbLine
  8
0
 62
256
370
0
  6
BYLAYER
 10
3.2080000000000002
 20
5.9900000000000002
 30
0.0
 11
3.52
 21
6.1920000000000002
 31
0.0
  0
LINE
  5
CD
100
AcDbEntity
100
AcDbLine
  8
0
 62
256
370
0
  6
BYLAYER
 10
3.52
 20
6.1920000000000002
 30
0.0
 11
3.923
 21
6.3920000000000003
 31
0.0
  0
LINE
  5
CE
100
AcDbEntity
100
AcDbLine
  8
0
 62
256
370
0
  6
BYLAYER
 10
3.923
 20
6.3920000000000003
 30
0.0
 11
4.1139999999999999
 21
6.2709999999999999
 31
0.0
  0
LINE
  5
CF
100
AcDbEntity
100
AcDbLine
  8
0
 62
256
370
0
  6
BYLAYER
 10
4.1139999999999999
 20
6.2709999999999999
 30
0.0
 11
4.1040000000000001
 21
5.8209999999999997
 31
0.0
  0
LINE
  5
D0
100
AcDbEntity
100
AcDbLine
  8
0
 62
256
370
0
  6
BYLAYER
 10
4.1040000000000001
 20
5.8209999999999997
 30
0.0
 11
4.0540000000000003
 21
5.4530000000000003
 31
0.0
  0
LINE
  5
D1
100
AcDbEntity
100
AcDbLine
  8
0
 62
256
370
0
  6
BYLAYER
 10
4.0540000000000003
 20
5.4530000000000003
 30
0.0
 11
3.9820000000000002
 21
5.1689999999999996
 31
0.0
  0
LINE
  5
D2
100
AcDbEntity
100
AcDbLine
  8
0
 62
256
370
0
  6
BYLAYER
 10
3.9820000000000002
 20
5.1689999999999996
 30
0.0
 11
3.907
 21
4.9690000000000003
 31
0.0
  0
LINE
  5
D3
100
AcDbEntity
100
AcDbLine
  8
0
 62
256
370
0
  6
BYLAYER
 10
3.907
 20
4.9690000000000003
 30
0.0
 11
3.8460000000000001
 21
4.8490000000000002
 31
0.0
  0
LINE
  5
D4
100
AcDbEntity
100
AcDbLine
  8
0
 62
256
370
0
  6
BYLAYER
 10
3.8460000000000001
 20
4.8490000000000002
 30
0.0
 11
3.839
 21
4.8410000000000002
 31
0.0
  0
LINE
  5
D5
100
AcDbEntity
100
AcDbLine
  8
0
 62
256
370
0
  6
BYLAYER
 10
3.839
 20
4.8410000000000002
 30
0.0
 11
4.0359999999999996
 21
4.6779999999999999
 31
0.0
  0
LINE
  5
D6
100
AcDbEntity
100
AcDbLine
  8
0
 62
256
370
0
  6
BYLAYER
 10
4.0359999999999996
 20
4.6779999999999999
 30
0.0
 11
4.0430000000000001
 21
4.6859999999999999
 31
0.0
  0
LINE
  5
D7
100
AcDbEntity
100
AcDbLine
  8
0
 62
256
370
0
  6
BYLAYER
 10
4.0430000000000001
 20
4.6859999999999999
 30
0.0
 11
4.149
 21
4.7690000000000001
 31
0.0
  0
LINE
  5
D8
100
AcDbEntity
100
AcDbLine
  8
0
 62
256
370
0
  6
BYLAYER
 10
4.149
 20
4.7690000000000001
 30
0.0
 11
4.3310000000000004
 21
4.8799999999999999
 31
0.0
  0
LINE
  5
D9
100
AcDbEntity
100
AcDbLine
  8
0
 62
256
370
0
  6
BYLAYER
 10
4.3310000000000004
 20
4.8799999999999999
 30
0.0
 11
4.5970000000000004
 21
5.0039999999999996
 31
0.0
  0
LINE
  5
DA
100
AcDbEntity
100
AcDbLine
  8
0
 62
256
370
0
  6
BYLAYER
 10
4.5970000000000004
 20
5.0039999999999996
 30
0.0
 11
4.9489999999999998
 21
5.1219999999999999
 31
0.0
  0
LINE
  5
DB
100
AcDbEntity
100
AcDbLine
  8
0
 62
256
370
0
  6
BYLAYER
 10
4.9489999999999998
 20
5.1219999999999999
 30
0.0
 11
5.3890000000000002
 21
5.2160000000000002
 31
0.0
  0
LINE
  5
DC
100
AcDbEntity
100
AcDbLine
  8
0
 62
256
370
0
  6
BYLAYER
 10
5.3890000000000002
 20
5.2160000000000002
 30
0.0
 11
5.5439999999999996
 21
5.0510000000000002
 31
0.0
  0
LINE
  5
DD
100
AcDbEntity
100
AcDbLine
  8
0
 62
256
370
0
  6
BYLAYER
 10
5.5439999999999996
 20
5.0510000000000002
 30
0.0
 11
5.423
 21
4.6180000000000003
 31
0.0
  0
LINE
  5
DE
100
AcDbEntity
100
AcDbLine
  8
0
 62
256
370
0
  6
BYLAYER
 10
5.423
 20
4.6180000000000003
 30
0.0
 11
5.282
 21
4.2729999999999997
 31
0.0
  0
LINE
  5
DF
100
AcDbEntity
100
AcDbLine
  8
0
 62
256
370
0
  6
BYLAYER
 10
5.282
 20
4.2729999999999997
 30
0.0
 11
5.1429999999999998
 21
4.016
 31
0.0
  0
LINE
  5
E0
100
AcDbEntity
100
AcDbLine
  8
0
 62
256
370
0
  6
BYLAYER
 10
5.1429999999999998
 20
4.016
 30
0.0
 11
5.0199999999999996
 21
3.8410000000000002
 31
0.0
  0
LINE
  5
E1
100
AcDbEntity
100
AcDbLine
  8
0
 62
256
370
0
  6
BYLAYER
 10
5.0199999999999996
 20
3.8410000000000002
 30
0.0
 11
4.931
 21
3.7400000000000002
 31
0.0
  0
LINE
  5
E2
100
AcDbEntity
100
AcDbLine
  8
0
 62
256
370
0
  6
BYLAYER
 10
4.931
 20
3.7400000000000002
 30
0.0
 11
4.923
 21
3.734
 31
0.0
  0
LINE
  5
E3
100
AcDbEntity
100
AcDbLine
  8
0
 62
256
370
0
  6
BYLAYER
 10
4.923
 20
3.734
 30
0.0
 11
5.0720000000000001
 21
3.528
 31
0.0
  0
LINE
  5
E4
100
AcDbEntity
100
AcDbLine
  8
0
 62
256
370
0
  6
BYLAYER
 10
5.0720000000000001
 20
3.528
 30
0.0
 11
5.0810000000000004
 21
3.5339999999999998
 31
0.0
  0
LINE
  5
E5
100
AcDbEntity
100
AcDbLine
  8
0
 62
256
370
0
  6
BYLAYER
 10
5.0810000000000004
 20
3.5339999999999998
 30
0.0
 11
5.2050000000000001
 21
3.5870000000000002
 31
0.0
  0
LINE
  5
E6
100
AcDbEntity
100
AcDbLine
  8
0
 62
256
370
0
  6
BYLAYER
 10
5.2050000000000001
 20
3.5870000000000002
 30
0.0
 11
5.4089999999999998
 21
3.6499999999999999
 31
0.0
  0
LINE
  5
E7
100
AcDbEntity
100
AcDbLine
  8
0
 62
256
370
0
  6
BYLAYER
 10
5.4089999999999998
 20
3.6499999999999999
 30
0.0
 11
5.6959999999999997
 21
3.7029999999999998
 31
0.0
  0
LINE
  5
E8
100
AcDbEntity
100
AcDbLine
  8
0
 62
256
370
0
  6
BYLAYER
 10
5.6959999999999997
 20
3.7029999999999998
 30
0.0
 11
6.0670000000000002
 21
3.73
 31
0.0
  0
LINE
  5
E9
100
AcDbEntity
100
AcDbLine
  8
0
 62
256
370
0
  6
BYLAYER
 10
6.0670000000000002
 20
3.73
 30
0.0
 11
6.5170000000000003
 21
3.7120000000000002
 31
0.0
  0
LINE
  5
EA
100
AcDbEntity
100
AcDbLine
  8
0
 62
256
370
0
  6
BYLAYER
 10
6.5170000000000003
 20
3.7120000000000002
 30
0.0
 11
6.6260000000000003
 21
3.5139999999999998
 31
0.0
  0
LINE
  5
EB
100
AcDbEntity
100
AcDbLine
  8
0
 62
256
370
0
  6
BYLAYER
 10
6.6260000000000003
 20
3.5139999999999998
 30
0.0
 11
6.4009999999999998
 21
3.1240000000000001
 31
0.0
  0
LINE
  5
EC
100
AcDbEntity
100
AcDbLine
  8
0
 62
256
370
0
  6
BYLAYER
 10
6.4009999999999998
 20
3.1240000000000001
 30
0.0
 11
6.1790000000000003
 21
2.8250000000000002
 31
0.0
  0
LINE
  5
ED
100
AcDbEntity
100
AcDbLine
  8
0
 62
256
370
0
  6
BYLAYER
 10
6.1790000000000003
 20
2.8250000000000002
 30
0.0
 11
5.9800000000000004
 21
2.6110000000000002
 31
0.0
  0
LINE
  5
EE
100
AcDbEntity
100
AcDbLine
  8
0
 62
256
370
0
  6
BYLAYER
 10
5.9800000000000004
 20
2.6110000000000002
 30
0.0
 11
5.8170000000000002
 21
2.472
 31
0.0
  0
LINE
  5
EF
100
AcDbEntity
100
AcDbLine
  8
0
 62
256
370
0
  6
BYLAYER
 10
5.8170000000000002
 20
2.472
 30
0.0
 11
5.7060000000000004
 21
2.3959999999999999
 31
0.0
  0
LINE
  5
F0
100
AcDbEntity
100
AcDbLine
  8
0
 62
256
370
0
  6
BYLAYER
 10
5.7060000000000004
 20
2.3959999999999999
 30
0.0
 11
5.6959999999999997
 21
2.3919999999999999
 31
0.0
  0
LINE
  5
F1
100
AcDbEntity
100
AcDbLine
  8
0
 62
256
370
0
  6
BYLAYER
 10
5.6959999999999997
 20
2.3919999999999999
 30
0.0
 11
5.79
 21
2.1549999999999998
 31
0.0
  0
LINE
  5
F2
100
AcDbEntity
100
AcDbLine
  8
0
 62
256
370
0
  6
BYLAYER
 10
5.79
 20
2.1549999999999998
 30
0.0
 11
5.7999999999999998
 21
2.1589999999999998
 31
0.0
  0
LINE
  5
F3
100
AcDbEntity
100
AcDbLine
  8
0
 62
256
370
0
  6
BYLAYER
 10
5.7999999999999998
 20
2.1589999999999998
 30
0.0
 11
5.9329999999999998
 21
2.1800000000000002
 31
0.0
  0
LINE
  5
F4
100
AcDbEntity
100
AcDbLine
  8
0
 62
256
370
0
  6
BYLAYER
 10
5.9329999999999998
 20
2.1800000000000002
 30
0.0
 11
6.1459999999999999
 21
2.1899999999999999
 31
0.0
  0
LINE
  5
F5
100
AcDbEntity
100
AcDbLine
  8
0
 62
256
370
0
  6
BYLAYER
 10
6.1459999999999999
 20
2.1899999999999999
 30
0.0
 11
6.4390000000000001
 21
2.1699999999999999
 31
0.0
  0
LINE
  5
F6
100
AcDbEntity
100
AcDbLine
  8
0
 62
256
370
0
  6
BYLAYER
 10
6.4390000000000001
 20
2.1699999999999999
 30
0.0
 11
6.8040000000000003
 21
2.1040000000000001
 31
0.0
  0
LINE
  5
F7
100
AcDbEntity
100
AcDbLine
  8
0
 62
256
370
0
  6
BYLAYER
 10
6.8040000000000003
 20
2.1040000000000001
 30
0.0
 11
7.2350000000000003
 21
1.974
 31
0.0
  0
LINE
  5
F8
100
AcDbEntity
100
AcDbLine
  8
0
 62
256
370
0
  6
BYLAYER
 10
7.2350000000000003
 20
1.974
 30
0.0
 11
7.2919999999999998
 21
1.7549999999999999
 31
0.0
  0
LINE
  5
F9
100
AcDbEntity
100
AcDbLine
  8
0
 62
256
370
0
  6
BYLAYER
 10
7.2919999999999998
 20
1.7549999999999999
 30
0.0
 11
6.9770000000000003
 21
1.4339999999999999
 31
0.0
  0
LINE
  5
FA
100
AcDbEntity
100
AcDbLine
  8
0
 62
256
370
0
  6
BYLAYER
 10
6.9770000000000003
 20
1.4339999999999999
 30
0.0
 11
6.6879999999999997
 21
1.2
 31
0.0
  0
LINE
  5
FB
100
AcDbEntity
100
AcDbLine
  8
0
 62
256
370
0
  6
BYLAYER
 10
6.6879999999999997
 20
1.2
 30
0.0
 11
6.4409999999999998
 21
1.042
 31
0.0
  0
LINE
  5
FC
100
AcDbEntity
100
AcDbLine
  8
0
 62
256
370
0
  6
BYLAYER
 10
6.4409999999999998
 20
1.042
 30
0.0
 11
6.25
 21
0.948
 31
0.0
  0
LINE
  5
FD
100
AcDbEntity
100
AcDbLine
  8
0
 62
256
370
0
  6
BYLAYER
 10
6.25
 20
0.948
 30
0.0
 11
6.1230000000000002
 21
0.902
 31
0.0
  0
LINE
  5
FE
100
AcDbEntity
100
AcDbLine
  8
0
 62
256
370
0
  6
BYLAYER
 10
6.1230000000000002
 20
0.902
 30
0.0
 11
6.1120000000000001
 21
0.9
 31
0.0
  0
LINE
  5
FF
100
AcDbEntity
100
AcDbLine
  8
0
 62
256
370
0
  6
BYLAYER
 10
6.1120000000000001
 20
0.9
 30
0.0
 11
6.1440000000000001
 21
0.648
 31
0.0
  0
LINE
  5
100
100
AcDbEntity
100
AcDbLine
  8
0
 62
256
370
0
  6
BYLAYER
 10
6.1440000000000001
 20
0.648
 30
0.0
 11
6.1550000000000002
 21
0.649
 31
0.0
  0
LINE
  5
101
100
AcDbEntity
100
AcDbLine
  8
0
 62
256
370
0
  6
BYLAYER
 10
6.1550000000000002
 20
0.649
 30
0.0
 11
6.2889999999999997
 21
0.636
 31
0.0
  0
LINE
  5
102
100
AcDbEntity
100
AcDbLine
  8
0
 62
256
370
0
  6
BYLAYER
 10
6.2889999999999997
 20
0.636
 30
0.0
 11
6.4980000000000002
 21
0.593
 31
0.0
  0
LINE
  5
103
100
AcDbEntity
100
AcDbLine
  8
0
 62
256
370
0
  6
BYLAYER
 10
6.4980000000000002
 20
0.593
 30
0.0
 11
6.7759999999999998
 21
0.501
 31
0.0
  0
LINE
  5
104
100
AcDbEntity
100
AcDbLine
  8
0
 62
256
370
0
  6
BYLAYER
 10
6.7759999999999998
 20
0.501
 30
0.0
 11
7.1139999999999999
 21
0.346
 31
0.0
  0
LINE
  5
105
100
AcDbEntity
100
AcDbLine
  8
0
 62
256
370
0
  6
BYLAYER
 10
7.1139999999999999
 20
0.346
 30
0.0
 11
7.4989999999999997
 21
0.113
 31
0.0
  0
LINE
  5
106
100
AcDbEntity
100
AcDbLine
  8
0
 62
256
370
0
  6
BYLAYER
 10
7.4989999999999997
 20
0.113
 30
0.0
 11
7.4989999999999997
 21
-0.113
 31
0.0
  0
LINE
  5
107
100
AcDbEntity
100
AcDbLine
  8
0
 62
256
370
0
  6
BYLAYER
 10
7.4989999999999997
 20
-0.113
 30
0.0
 11
7.1139999999999999
 21
-0.346
 31
0.0
  0
LINE
  5
108
100
AcDbEntity
100
AcDbLine
  8
0
 62
256
370
0
  6
BYLAYER
 10
7.1139999999999999
 20
-0.346
 30
0.0
 11
6.7759999999999998
 21
-0.501
 31
0.0
  0
LINE
  5
109
100
AcDbEntity
100
AcDbLine
  8
0
 62
256
370
0
  6
BYLAYER
 10
6.7759999999999998
 20
-0.501
 30
0.0
 11
6.4980000000000002
 21
-0.593
 31
0.0
  0
LINE
  5
10A
100
AcDbEntity
100
AcDbLine
  8
0
 62
256
370
0
  6
BYLAYER
 10
6.4980000000000002
 20
-0.593
 30
0.0
 11
6.2889999999999997
 21
-0.636
 31
0.0
  0
LINE
  5
10B
100
AcDbEntity
100
AcDbLine
  8
0
 62
256
370
0
  6
BYLAYER
 10
6.2889999999999997
 20
-0.636
 30
0.0
 11
6.1550000000000002
 21
-0.649
 31
0.0
  0
LINE
  5
10C
100
AcDbEntity
100
AcDbLine
  8
0
 62
256
370
0
  6
BYLAYER
 10
6.1550000000000002
 20
-0.649
 30
0.0
 11
6.1440000000000001
 21
-0.648
 31
0.0
  0
LINE
  5
10D
100
AcDbEntity
100
AcDbLine
  8
0
 62
256
370
0
  6
BYLAYER
 10
6.1440000000000001
 20
-0.648
 30
0.0
 11
6.1120000000000001
 21
-0.9
 31
0.0
  0
LINE
  5
10E
100
AcDbEntity
100
AcDbLine
  8
0
 62
256
370
0
  6
BYLAYER
 10
6.1120000000000001
 20
-0.9
 30
0.0
 11
6.1230000000000002
 21
-0.902
 31
0.0
  0
LINE
  5
10F
100
AcDbEntity
100
AcDbLine
  8
0
 62
256
370
0
  6
BYLAYER
 10
6.1230000000000002
 20
-0.902
 30
0.0
 11
6.25
 21
-0.948
 31
0.0
  0
LINE
  5
110
100
AcDbEntity
100
AcDbLine
  8
0
 62
256
370
0
  6
BYLAYER
 10
6.25
 20
-0.948
 30
0.0
 11
6.4409999999999998
 21
-1.042
 31
0.0
  0
LINE
  5
111
100
AcDbEntity
100
AcDbLine
  8
0
 62
256
370
0
  6
BYLAYER
 10
6.4409999999999998
 20
-1.042
 30
0.0
 11
6.6879999999999997
 21
-1.2
 31
0.0
  0
LINE
  5
112
100
AcDbEntity
100
AcDbLine
  8
0
 62
256
370
0
  6
BYLAYER
 10
6.6879999999999997
 20
-1.2
 30
0.0
 11
6.9770000000000003
 21
-1.4339999999999999
 31
0.0
  0
LINE
  5
113
100
AcDbEntity
100
AcDbLine
  8
0
 62
256
370
0
  6
BYLAYER
 10
6.9770000000000003
 20
-1.4339999999999999
 30
0.0
 11
7.2919999999999998
 21
-1.7549999999999999
 31
0.0
  0
LINE
  5
114
100
AcDbEntity
100
AcDbLine
  8
0
 62
256
370
0
  6
BYLAYER
 10
7.2919999999999998
 20
-1.7549999999999999
 30
0.0
 11
7.2350000000000003
 21
-1.974
 31
0.0
  0
LINE
  5
115
100
AcDbEntity
100
AcDbLine
  8
0
 62
256
370
0
  6
BYLAYER
 10
7.2350000000000003
 20
-1.974
 30
0.0
 11
6.8040000000000003
 21
-2.1040000000000001
 31
0.0
  0
LINE
  5
116
100
AcDbEntity
100
AcDbLine
  8
0
 62
256
370
0
  6
BYLAYER
 10
6.8040000000000003
 20
-2.1040000000000001
 30
0.0
 11
6.4390000000000001
 21
-2.1699999999999999
 31
0.0
  0
LINE
  5
117
100
AcDbEntity
100
AcDbLine
  8
0
 62
256
370
0
  6
BYLAYER
 10
6.4390000000000001
 20
-2.1699999999999999
 30
0.0
 11
6.1459999999999999
 21
-2.1899999999999999
 31
0.0
  0
LINE
  5
118
100
AcDbEntity
100
AcDbLine
  8
0
 62
256
370
0
  6
BYLAYER
 10
6.1459999999999999
 20
-2.1899999999999999
 30
0.0
 11
5.9329999999999998
 21
-2.1800000000000002
 31
0.0
  0
LINE
  5
119
100
AcDbEntity
100
AcDbLine
  8
0
 62
256
370
0
  6
BYLAYER
 10
5.9329999999999998
 20
-2.1800000000000002
 30
0.0
 11
5.7999999999999998
 21
-2.1589999999999998
 31
0.0
  0
LINE
  5
11A
100
AcDbEntity
100
AcDbLine
  8
0
 62
256
370
0
  6
BYLAYER
 10
5.7999999999999998
 20
-2.1589999999999998
 30
0.0
 11
5.79
 21
-2.1549999999999998
 31
0.0
  0
LINE
  5
11B
100
AcDbEntity
100
AcDbLine
  8
0
 62
256
370
0
  6
BYLAYER
 10
5.79
 20
-2.1549999999999998
 30
0.0
 11
5.6959999999999997
 21
-2.3919999999999999
 31
0.0
  0
LINE
  5
11C
100
AcDbEntity
100
AcDbLine
  8
0
 62
256
370
0
  6
BYLAYER
 10
5.6959999999999997
 20
-2.3919999999999999
 30
0.0
 11
5.7060000000000004
 21
-2.3959999999999999
 31
0.0
  0
LINE
  5
11D
100
AcDbEntity
100
AcDbLine
  8
0
 62
256
370
0
  6
BYLAYER
 10
5.7060000000000004
 20
-2.3959999999999999
 30
0.0
 11
5.8170000000000002
 21
-2.472
 31
0.0
  0
LINE
  5
11E
100
AcDbEntity
100
AcDbLine
  8
0
 62
256
370
0
  6
BYLAYER
 10
5.8170000000000002
 20
-2.472
 30
0.0
 11
5.9800000000000004
 21
-2.6110000000000002
 31
0.0
  0
LINE
  5
11F
100
AcDbEntity
100
AcDbLine
  8
0
 62
256
370
0
  6
BYLAYER
 10
5.9800000000000004
 20
-2.6110000000000002
 30
0.0
 11
6.1790000000000003
 21
-2.8250000000000002
 31
0.0
  0
LINE
  5
120
100
AcDbEntity
100
AcDbLine
  8
0
 62
256
370
0
  6
BYLAYER
 10
6.1790000000000003
 20
-2.8250000000000002
 30
0.0
 11
6.4009999999999998
 21
-3.1240000000000001
 31
0.0
  0
LINE
  5
121
100
AcDbEntity
100
AcDbLine
  8
0
 62
256
370
0
  6
BYLAYER
 10
6.4009999999999998
 20
-3.1240000000000001
 30
0.0
 11
6.6260000000000003
 21
-3.5139999999999998
 31
0.0
  0
LINE
  5
122
100
AcDbEntity
100
AcDbLine
  8
0
 62
256
370
0
  6
BYLAYER
 10
6.6260000000000003
 20
-3.5139999999999998
 30
0.0
 11
6.5170000000000003
 21
-3.7120000000000002
 31
0.0
  0
LINE
  5
123
100
AcDbEntity
100
AcDbLine
  8
0
 62
256
370
0
  6
BYLAYER
 10
6.5170000000000003
 20
-3.7120000000000002
 30
0.0
 11
6.0670000000000002
 21
-3.73
 31
0.0
  0
LINE
  5
124
100
AcDbEntity
100
AcDbLine
  8
0
 62
256
370
0
  6
BYLAYER
 10
6.0670000000000002
 20
-3.73
 30
0.0
 11
5.6959999999999997
 21
-3.7029999999999998
 31
0.0
  0
LINE
  5
125
100
AcDbEntity
100
AcDbLine
  8
0
 62
256
370
0
  6
BYLAYER
 10
5.6959999999999997
 20
-3.7029999999999998
 30
0.0
 11
5.4089999999999998
 21
-3.6499999999999999
 31
0.0
  0
LINE
  5
126
100
AcDbEntity
100
AcDbLine
  8
0
 62
256
370
0
  6
BYLAYER
 10
5.4089999999999998
 20
-3.6499999999999999
 30
0.0
 11
5.2050000000000001
 21
-3.5870000000000002
 31
0.0
  0
LINE
  5
127
100
AcDbEntity
100
AcDbLine
  8
0
 62
256
370
0
  6
BYLAYER
 10
5.2050000000000001
 20
-3.5870000000000002
 30
0.0
 11
5.0810000000000004
 21
-3.5339999999999998
 31
0.0
  0
LINE
  5
128
100
AcDbEntity
100
AcDbLine
  8
0
 62
256
370
0
  6
BYLAYER
 10
5.0810000000000004
 20
-3.5339999999999998
 30
0.0
 11
5.0720000000000001
 21
-3.528
 31
0.0
  0
LINE
  5
129
100
AcDbEntity
100
AcDbLine
  8
0
 62
256
370
0
  6
BYLAYER
 10
5.0720000000000001
 20
-3.528
 30
0.0
 11
4.923
 21
-3.734
 31
0.0
  0
LINE
  5
12A
100
AcDbEntity
100
AcDbLine
  8
0
 62
256
370
0
  6
BYLAYER
 10
4.923
 20
-3.734
 30
0.0
 11
4.931
 21
-3.7400000000000002
 31
0.0
  0
LINE
  5
12B
100
AcDbEntity
100
AcDbLine
  8
0
 62
256
370
0
  6
BYLAYER
 10
4.931
 20
-3.7400000000000002
 30
0.0
 11
5.0199999999999996
 21
-3.8410000000000002
 31
0.0
  0
LINE
  5
12C
100
AcDbEntity
100
AcDbLine
  8
0
 62
256
370
0
  6
BYLAYER
 10
5.0199999999999996
 20
-3.8410000000000002
 30
0.0
 11
5.1429999999999998
 21
-4.016
 31
0.0
  0
LINE
  5
12D
100
AcDbEntity
100
AcDbLine
  8
0
 62
256
370
0
  6
BYLAYER
 10
5.1429999999999998
 20
-4.016
 30
0.0
 11
5.282
 21
-4.2729999999999997
 31
0.0
  0
LINE
  5
12E
100
AcDbEntity
100
AcDbLine
  8
0
 62
256
370
0
  6
BYLAYER
 10
5.282
 20
-4.2729999999999997
 30
0.0
 11
5.423
 21
-4.6180000000000003
 31
0.0
  0
LINE
  5
12F
100
AcDbEntity
100
AcDbLine
  8
0
 62
256
370
0
  6
BYLAYER
 10
5.423
 20
-4.6180000000000003
 30
0.0
 11
5.5439999999999996
 21
-5.0510000000000002
 31
0.0
  0
LINE
  5
130
100
AcDbEntity
100
AcDbLine
  8
0
 62
256
370
0
  6
BYLAYER
 10
5.5439999999999996
 20
-5.0510000000000002
 30
0.0
 11
5.3890000000000002
 21
-5.2160000000000002
 31
0.0
  0
LINE
  5
131
100
AcDbEntity
100
AcDbLine
  8
0
 62
256
370
0
  6
BYLAYER
 10
5.3890000000000002
 20
-5.2160000000000002
 30
0.0
 11
4.9489999999999998
 21
-5.1219999999999999
 31
0.0
  0
LINE
  5
132
100
AcDbEntity
100
AcDbLine
  8
0
 62
256
370
0
  6
BYLAYER
 10
4.9489999999999998
 20
-5.1219999999999999
 30
0.0
 11
4.5970000000000004
 21
-5.0039999999999996
 31
0.0
  0
LINE
  5
133
100
AcDbEntity
100
AcDbLine
  8
0
 62
256
370
0
  6
BYLAYER
 10
4.5970000000000004
 20
-5.0039999999999996
 30
0.0
 11
4.3310000000000004
 21
-4.8799999999999999
 31
0.0
  0
LINE
  5
134
100
AcDbEntity
100
AcDbLine
  8
0
 62
256
370
0
  6
BYLAYER
 10
4.3310000000000004
 20
-4.8799999999999999
 30
0.0
 11
4.149
 21
-4.7690000000000001
 31
0.0
  0
LINE
  5
135
100
AcDbEntity
100
AcDbLine
  8
0
 62
256
370
0
  6
BYLAYER
 10
4.149
 20
-4.7690000000000001
 30
0.0
 11
4.0430000000000001
 21
-4.6859999999999999
 31
0.0
  0
LINE
  5
136
100
AcDbEntity
100
AcDbLine
  8
0
 62
256
370
0
  6
BYLAYER
 10
4.0430000000000001
 20
-4.6859999999999999
 30
0.0
 11
4.0359999999999996
 21
-4.6779999999999999
 31
0.0
  0
LINE
  5
137
100
AcDbEntity
100
AcDbLine
  8
0
 62
256
370
0
  6
BYLAYER
 10
4.0359999999999996
 20
-4.6779999999999999
 30
0.0
 11
3.839
 21
-4.8399999999999999
 31
0.0
  0
LINE
  5
138
100
AcDbEntity
100
AcDbLine
  8
0
 62
256
370
0
  6
BYLAYER
 10
3.839
 20
-4.8399999999999999
 30
0.0
 11
3.8460000000000001
 21
-4.8490000000000002
 31
0.0
  0
LINE
  5
139
100
AcDbEntity
100
AcDbLine
  8
0
 62
256
370
0
  6
BYLAYER
 10
3.8460000000000001
 20
-4.8490000000000002
 30
0.0
 11
3.907
 21
-4.9690000000000003
 31
0.0
  0
LINE
  5
13A
100
AcDbEntity
100
AcDbLine
  8
0
 62
256
370
0
  6
BYLAYER
 10
3.907
 20
-4.9690000000000003
 30
0.0
 11
3.9820000000000002
 21
-5.1689999999999996
 31
0.0
  0
LINE
  5
13B
100
AcDbEntity
100
AcDbLine
  8
0
 62
256
370
0
  6
BYLAYER
 10
3.9820000000000002
 20
-5.1689999999999996
 30
0.0
 11
4.0540000000000003
 21
-5.4530000000000003
 31
0.0
  0
LINE
  5
13C
100
AcDbEntity
100
AcDbLine
  8
0
 62
256
370
0
  6
BYLAYER
 10
4.0540000000000003
 20
-5.4530000000000003
 30
0.0
 11
4.1040000000000001
 21
-5.8209999999999997
 31
0.0
  0
LINE
  5
13D
100
AcDbEntity
100
AcDbLine
  8
0
 62
256
370
0
  6
BYLAYER
 10
4.1040000000000001
 20
-5.8209999999999997
 30
0.0
 11
4.1139999999999999
 21
-6.2709999999999999
 31
0.0
  0
LINE
  5
13E
100
AcDbEntity
100
AcDbLine
  8
0
 62
256
370
0
  6
BYLAYER
 10
4.1139999999999999
 20
-6.2709999999999999
 30
0.0
 11
3.923
 21
-6.3920000000000003
 31
0.0
  0
LINE
  5
13F
100
AcDbEntity
100
AcDbLine
  8
0
 62
256
370
0
  6
BYLAYER
 10
3.923
 20
-6.3920000000000003
 30
0.0
 11
3.52
 21
-6.1920000000000002
 31
0.0
  0
LINE
  5
140
100
AcDbEntity
100
AcDbLine
  8
0
 62
256
370
0
  6
BYLAYER
 10
3.52
 20
-6.1920000000000002
 30
0.0
 11
3.2080000000000002
 21
-5.9900000000000002
 31
0.0
  0
LINE
  5
141
100
AcDbEntity
100
AcDbLine
  8
0
 62
256
370
0
  6
BYLAYER
 10
3.2080000000000002
 20
-5.9900000000000002
 30
0.0
 11
2.9809999999999999
 21
-5.8040000000000003
 31
0.0
  0
LINE
  5
142
100
AcDbEntity
100
AcDbLine
  8
0
 62
256
370
0
  6
BYLAYER
 10
2.9809999999999999
 20
-5.8040000000000003
 30
0.0
 11
2.8330000000000002
 21
-5.6509999999999998
 31
0.0
  0
LINE
  5
143
100
AcDbEntity
100
AcDbLine
  8
0
 62
256
370
0
  6
BYLAYER
 10
2.8330000000000002
 20
-5.6509999999999998
 30
0.0
 11
2.75
 21
-5.5449999999999999
 31
0.0
  0
LINE
  5
144
100
AcDbEntity
100
AcDbLine
  8
0
 62
256
370
0
  6
BYLAYER
 10
2.75
 20
-5.5449999999999999
 30
0.0
 11
2.7450000000000001
 21
-5.5339999999999998
 31
0.0
  0
LINE
  5
145
100
AcDbEntity
100
AcDbLine
  8
0
 62
256
370
0
  6
BYLAYER
 10
2.7450000000000001
 20
-5.5339999999999998
 30
0.0
 11
2.5139999999999998
 21
-5.6429999999999998
 31
0.0
  0
LINE
  5
146
100
AcDbEntity
100
AcDbLine
  8
0
 62
256
370
0
  6
BYLAYER
 10
2.5139999999999998
 20
-5.6429999999999998
 30
0.0
 11
2.5190000000000001
 21
-5.6529999999999996
 31
0.0
  0
LINE
  5
147
100
AcDbEntity
100
AcDbLine
  8
0
 62
256
370
0
  6
BYLAYER
 10
2.5190000000000001
 20
-5.6529999999999996
 30
0.0
 11
2.548
 21
-5.7850000000000001
 31
0.0
  0
LINE
  5
148
100
AcDbEntity
100
AcDbLine
  8
0
 62
256
370
0
  6
BYLAYER
 10
2.548
 20
-5.7850000000000001
 30
0.0
 11
2.5720000000000001
 21
-5.9969999999999999
 31
0.0
  0
LINE
  5
149
100
AcDbEntity
100
AcDbLine
  8
0
 62
256
370
0
  6
BYLAYER
 10
2.5720000000000001
 20
-5.9969999999999999
 30
0.0
 11
2.5699999999999998
 21
-6.29
 31
0.0
  0
LINE
  5
14A
100
AcDbEntity
100
AcDbLine
  8
0
 62
256
370
0
  6
BYLAYER
 10
2.5699999999999998
 20
-6.29
 30
0.0
 11
2.5270000000000001
 21
-6.6589999999999998
 31
0.0
  0
LINE
  5
14B
100
AcDbEntity
100
AcDbLine
  8
0
 62
256
370
0
  6
BYLAYER
 10
2.5270000000000001
 20
-6.6589999999999998
 30
0.0
 11
2.4249999999999998
 21
-7.0970000000000004
 31
0.0
  0
LINE
  5
14C
100
AcDbEntity
100
AcDbLine
  8
0
 62
256
370
0
  6
BYLAYER
 10
2.4249999999999998
 20
-7.0970000000000004
 30
0.0
 11
2.21
 21
-7.1669999999999998
 31
0.0
  0
LINE
  5
14D
100
AcDbEntity
100
AcDbLine
  8
0
 62
256
370
0
  6
BYLAYER
 10
2.21
 20
-7.1669999999999998
 30
0.0
 11
1.869
 21
-6.8730000000000002
 31
0.0
  0
LINE
  5
14E
100
AcDbEntity
100
AcDbLine
  8
0
 62
256
370
0
  6
BYLAYER
 10
1.869
 20
-6.8730000000000002
 30
0.0
 11
1.617
 21
-6.5990000000000002
 31
0.0
  0
LINE
  5
14F
100
AcDbEntity
100
AcDbLine
  8
0
 62
256
370
0
  6
BYLAYER
 10
1.617
 20
-6.5990000000000002
 30
0.0
 11
1.444
 21
-6.3630000000000004
 31
0.0
  0
LINE
  5
150
100
AcDbEntity
100
AcDbLine
  8
0
 62
256
370
0
  6
BYLAYER
 10
1.444
 20
-6.3630000000000004
 30
0.0
 11
1.339
 21
-6.1779999999999999
 31
0.0
  0
LINE
  5
151
100
AcDbEntity
100
AcDbLine
  8
0
 62
256
370
0
  6
BYLAYER
 10
1.339
 20
-6.1779999999999999
 30
0.0
 11
1.2849999999999999
 21
-6.0540000000000003
 31
0.0
  0
LINE
  5
152
100
AcDbEntity
100
AcDbLine
  8
0
 62
256
370
0
  6
BYLAYER
 10
1.2849999999999999
 20
-6.0540000000000003
 30
0.0
 11
1.2829999999999999
 21
-6.0430000000000001
 31
0.0
  0
LINE
  5
153
100
AcDbEntity
100
AcDbLine
  8
0
 62
256
370
0
  6
BYLAYER
 10
1.2829999999999999
 20
-6.0430000000000001
 30
0.0
 11
1.032
 21
-6.0910000000000002
 31
0.0
  0
LINE
  5
154
100
AcDbEntity
100
AcDbLine
  8
0
 62
256
370
0
  6
BYLAYER
 10
1.032
 20
-6.0910000000000002
 30
0.0
 11
1.034
 21
-6.1020000000000003
 31
0.0
  0
LINE
  5
155
100
AcDbEntity
100
AcDbLine
  8
0
 62
256
370
0
  6
BYLAYER
 10
1.034
 20
-6.1020000000000003
 30
0.0
 11
1.03
 21
-6.2370000000000001
 31
0.0
  0
LINE
  5
156
100
AcDbEntity
100
AcDbLine
  8
0
 62
256
370
0
  6
BYLAYER
 10
1.03
 20
-6.2370000000000001
 30
0.0
 11
1.0
 21
-6.4480000000000004
 31
0.0
  0
LINE
  5
157
100
AcDbEntity
100
AcDbLine
  8
0
 62
256
370
0
  6
BYLAYER
 10
1.0
 20
-6.4480000000000004
 30
0.0
 11
0.925
 21
-6.7309999999999999
 31
0.0
  0
LINE
  5
158
100
AcDbEntity
100
AcDbLine
  8
0
 62
256
370
0
  6
BYLAYER
 10
0.925
 20
-6.7309999999999999
 30
0.0
 11
0.792
 21
-7.0780000000000003
 31
0.0
  0
LINE
  5
159
100
AcDbEntity
100
AcDbLine
  8
0
 62
256
370
0
  6
BYLAYER
 10
0.792
 20
-7.0780000000000003
 30
0.0
 11
0.584
 21
-7.4770000000000003
 31
0.0
  0
LINE
  5
15A
100
AcDbEntity
100
AcDbLine
  8
0
 62
256
370
0
  6
BYLAYER
 10
0.584
 20
-7.4770000000000003
 30
0.0
 11
0.358
 21
-7.4909999999999997
 31
0.0
  0
LINE
  5
15B
100
AcDbEntity
100
AcDbLine
  8
0
 62
256
370
0
  6
BYLAYER
 10
0.358
 20
-7.4909999999999997
 30
0.0
 11
0.101
 21
-7.1219999999999999
 31
0.0
  0
LINE
  5
15C
100
AcDbEntity
100
AcDbLine
  8
0
 62
256
370
0
  6
BYLAYER
 10
0.101
 20
-7.1219999999999999
 30
0.0
 11
-0.075
 21
-6.7939999999999996
 31
0.0
  0
LINE
  5
15D
100
AcDbEntity
100
AcDbLine
  8
0
 62
256
370
0
  6
BYLAYER
 10
-0.075
 20
-6.7939999999999996
 30
0.0
 11
-0.184
 21
-6.5220000000000002
 31
0.0
  0
LINE
  5
15E
100
AcDbEntity
100
AcDbLine
  8
0
 62
256
370
0
  6
BYLAYER
 10
-0.184
 20
-6.5220000000000002
 30
0.0
 11
-0.24
 21
-6.3170000000000002
 31
0.0
  0
LINE
  5
15F
100
AcDbEntity
100
AcDbLine
  8
0
 62
256
370
0
  6
BYLAYER
 10
-0.24
 20
-6.3170000000000002
 30
0.0
 11
-0.261
 21
-6.1840000000000002
 31
0.0
  0
LINE
  5
160
100
AcDbEntity
100
AcDbLine
  8
0
 62
256
370
0
  6
BYLAYER
 10
-0.261
 20
-6.1840000000000002
 30
0.0
 11
-0.261
 21
-6.173
 31
0.0
  0
LINE
  5
161
100
AcDbEntity
100
AcDbLine
  8
0
 62
256
370
0
  6
BYLAYER
 10
-0.261
 20
-6.173
 30
0.0
 11
-0.515
 21
-6.1559999999999997
 31
0.0
  0
LINE
  5
162
100
AcDbEntity
100
AcDbLine
  8
0
 62
256
370
0
  6
BYLAYER
 10
-0.515
 20
-6.1559999999999997
 30
0.0
 11
-0.516
 21
-6.1680000000000001
 31
0.0
  0
LINE
  5
163
100
AcDbEntity
100
AcDbLine
  8
0
 62
256
370
0
  6
BYLAYER
 10
-0.516
 20
-6.1680000000000001
 30
0.0
 11
-0.554
 21
-6.2969999999999997
 31
0.0
  0
LINE
  5
164
100
AcDbEntity
100
AcDbLine
  8
0
 62
256
370
0
  6
BYLAYER
 10
-0.554
 20
-6.2969999999999997
 30
0.0
 11
-0.635
 21
-6.4939999999999998
 31
0.0
  0
LINE
  5
165
100
AcDbEntity
100
AcDbLine
  8
0
 62
256
370
0
  6
BYLAYER
 10
-0.635
 20
-6.4939999999999998
 30
0.0
 11
-0.778
 21
-6.75
 31
0.0
  0
LINE
  5
166
100
AcDbEntity
100
AcDbLine
  8
0
 62
256
370
0
  6
BYLAYER
 10
-0.778
 20
-6.75
 30
0.0
 11
-0.993
 21
-7.0529999999999999
 31
0.0
  0
LINE
  5
167
100
AcDbEntity
100
AcDbLine
  8
0
 62
256
370
0
  6
BYLAYER
 10
-0.993
 20
-7.0529999999999999
 30
0.0
 11
-1.294
 21
-7.3869999999999996
 31
0.0
  0
LINE
  5
168
100
AcDbEntity
100
AcDbLine
  8
0
 62
256
370
0
  6
BYLAYER
 10
-1.294
 20
-7.3869999999999996
 30
0.0
 11
-1.516
 21
-7.3449999999999998
 31
0.0
  0
LINE
  5
169
100
AcDbEntity
100
AcDbLine
  8
0
 62
256
370
0
  6
BYLAYER
 10
-1.516
 20
-7.3449999999999998
 30
0.0
 11
-1.673
 21
-6.923
 31
0.0
  0
LINE
  5
16A
100
AcDbEntity
100
AcDbLine
  8
0
 62
256
370
0
  6
BYLAYER
 10
-1.673
 20
-6.923
 30
0.0
 11
-1.762
 21
-6.5620000000000003
 31
0.0
  0
LINE
  5
16B
100
AcDbEntity
100
AcDbLine
  8
0
 62
256
370
0
  6
BYLAYER
 10
-1.762
 20
-6.5620000000000003
 30
0.0
 11
-1.8
 21
-6.2720000000000002
 31
0.0
  0
LINE
  5
16C
100
AcDbEntity
100
AcDbLine
  8
0
 62
256
370
0
  6
BYLAYER
 10
-1.8
 20
-6.2720000000000002
 30
0.0
 11
-1.8029999999999999
 21
-6.0579999999999998
 31
0.0
  0
LINE
  5
16D
100
AcDbEntity
100
AcDbLine
  8
0
 62
256
370
0
  6
BYLAYER
 10
-1.8029999999999999
 20
-6.0579999999999998
 30
0.0
 11
-1.7909999999999999
 21
-5.9240000000000004
 31
0.0
  0
LINE
  5
16E
100
AcDbEntity
100
AcDbLine
  8
0
 62
256
370
0
  6
BYLAYER
 10
-1.7909999999999999
 20
-5.9240000000000004
 30
0.0
 11
-1.788
 21
-5.9130000000000003
 31
0.0
  0
LINE
  5
16F
100
AcDbEntity
100
AcDbLine
  8
0
 62
256
370
0
  6
BYLAYER
 10
-1.788
 20
-5.9130000000000003
 30
0.0
 11
-2.0289999999999999
 21
-5.835
 31
0.0
  0
LINE
  5
170
100
AcDbEntity
100
AcDbLine
  8
0
 62
256
370
0
  6
BYLAYER
 10
-2.0289999999999999
 20
-5.835
 30
0.0
 11
-2.0329999999999999
 21
-5.8460000000000001
 31
0.0
  0
LINE
  5
171
100
AcDbEntity
100
AcDbLine
  8
0
 62
256
370
0
  6
BYLAYER
 10
-2.0329999999999999
 20
-5.8460000000000001
 30
0.0
 11
-2.1019999999999999
 21
-5.9610000000000003
 31
0.0
  0
LINE
  5
172
100
AcDbEntity
100
AcDbLine
  8
0
 62
256
370
0
  6
BYLAYER
 10
-2.1019999999999999
 20
-5.9610000000000003
 30
0.0
 11
-2.23
 21
-6.1319999999999997
 31
0.0
  0
LINE
  5
173
100
AcDbEntity
100
AcDbLine
  8
0
 62
256
370
0
  6
BYLAYER
 10
-2.23
 20
-6.1319999999999997
 30
0.0
 11
-2.4319999999999999
 21
-6.3440000000000003
 31
0.0
  0
LINE
  5
174
100
AcDbEntity
100
AcDbLine
  8
0
 62
256
370
0
  6
BYLAYER
 10
-2.4319999999999999
 20
-6.3440000000000003
 30
0.0
 11
-2.7160000000000002
 21
-6.5839999999999996
 31
0.0
  0
LINE
  5
175
100
AcDbEntity
100
AcDbLine
  8
0
 62
256
370
0
  6
BYLAYER
 10
-2.7160000000000002
 20
-6.5839999999999996
 30
0.0
 11
-3.0910000000000002
 21
-6.8330000000000002
 31
0.0
  0
LINE
  5
176
100
AcDbEntity
100
AcDbLine
  8
0
 62
256
370
0
  6
BYLAYER
 10
-3.0910000000000002
 20
-6.8330000000000002
 30
0.0
 11
-3.2949999999999999
 21
-6.7370000000000001
 31
0.0
  0
LINE
  5
177
100
AcDbEntity
100
AcDbLine
  8
0
 62
256
370
0
  6
BYLAYER
 10
-3.2949999999999999
 20
-6.7370000000000001
 30
0.0
 11
-3.3420000000000001
 21
-6.29
 31
0.0
  0
LINE
  5
178
100
AcDbEntity
100
AcDbLine
  8
0
 62
256
370
0
  6
BYLAYER
 10
-3.3420000000000001
 20
-6.29
 30
0.0
 11
-3.3380000000000001
 21
-5.9180000000000001
 31
0.0
  0
LINE
  5
179
100
AcDbEntity
100
AcDbLine
  8
0
 62
256
370
0
  6
BYLAYER
 10
-3.3380000000000001
 20
-5.9180000000000001
 30
0.0
 11
-3.3029999999999999
 21
-5.6269999999999998
 31
0.0
  0
LINE
  5
17A
100
AcDbEntity
100
AcDbLine
  8
0
 62
256
370
0
  6
BYLAYER
 10
-3.3029999999999999
 20
-5.6269999999999998
 30
0.0
 11
-3.2530000000000001
 21
-5.4199999999999999
 31
0.0
  0
LINE
  5
17B
100
AcDbEntity
100
AcDbLine
  8
0
 62
256
370
0
  6
BYLAYER
 10
-3.2530000000000001
 20
-5.4199999999999999
 30
0.0
 11
-3.2080000000000002
 21
-5.2930000000000001
 31
0.0
  0
LINE
  5
17C
100
AcDbEntity
100
AcDbLine
  8
0
 62
256
370
0
  6
BYLAYER
 10
-3.2080000000000002
 20
-5.2930000000000001
 30
0.0
 11
-3.202
 21
-5.2830000000000004
 31
0.0
  0
LINE
  5
17D
100
AcDbEntity
100
AcDbLine
  8
0
 62
256
370
0
  6
BYLAYER
 10
-3.202
 20
-5.2830000000000004
 30
0.0
 11
-3.4169999999999998
 21
-5.1470000000000002
 31
0.0
  0
LINE
  5
17E
100
AcDbEntity
100
AcDbLine
  8
0
 62
256
370
0
  6
BYLAYER
 10
-3.4169999999999998
 20
-5.1470000000000002
 30
0.0
 11
-3.423
 21
-5.1559999999999997
 31
0.0
  0
LINE
  5
17F
100
AcDbEntity
100
AcDbLine
  8
0
 62
256
370
0
  6
BYLAYER
 10
-3.423
 20
-5.1559999999999997
 30
0.0
 11
-3.5190000000000001
 21
-5.2510000000000003
 31
0.0
  0
LINE
  5
180
100
AcDbEntity
100
AcDbLine
  8
0
 62
256
370
0
  6
BYLAYER
 10
-3.5190000000000001
 20
-5.2510000000000003
 30
0.0
 11
-3.6850000000000001
 21
-5.3849999999999998
 31
0.0
  0
LINE
  5
181
100
AcDbEntity
100
AcDbLine
  8
0
 62
256
370
0
  6
BYLAYER
 10
-3.6850000000000001
 20
-5.3849999999999998
 30
0.0
 11
-3.9329999999999998
 21
-5.54
 31
0.0
  0
LINE
  5
182
100
AcDbEntity
100
AcDbLine
  8
0
 62
256
370
0
  6
BYLAYER
 10
-3.9329999999999998
 20
-5.54
 30
0.0
 11
-4.2679999999999998
 21
-5.702
 31
0.0
  0
LINE
  5
183
100
AcDbEntity
100
AcDbLine
  8
0
 62
256
370
0
  6
BYLAYER
 10
-4.2679999999999998
 20
-5.702
 30
0.0
 11
-4.6929999999999996
 21
-5.8499999999999996
 31
0.0
  0
LINE
  5
184
100
AcDbEntity
100
AcDbLine
  8
0
 62
256
370
0
  6
BYLAYER
 10
-4.6929999999999996
 20
-5.8499999999999996
 30
0.0
 11
-4.867
 21
-5.7060000000000004
 31
0.0
  0
LINE
  5
185
100
AcDbEntity
100
AcDbLine
  8
0
 62
256
370
0
  6
BYLAYER
 10
-4.867
 20
-5.7060000000000004
 30
0.0
 11
-4.8010000000000002
 21
-5.2610000000000001
 31
0.0
  0
LINE
  5
186
100
AcDbEntity
100
AcDbLine
  8
0
 62
256
370
0
  6
BYLAYER
 10
-4.8010000000000002
 20
-5.2610000000000001
 30
0.0
 11
-4.7050000000000001
 21
-4.9020000000000001
 31
0.0
  0
LINE
  5
187
100
AcDbEntity
100
AcDbLine
  8
0
 62
256
370
0
  6
BYLAYER
 10
-4.7050000000000001
 20
-4.9020000000000001
 30
0.0
 11
-4.5990000000000002
 21
-4.6289999999999996
 31
0.0
  0
LINE
  5
188
100
AcDbEntity
100
AcDbLine
  8
0
 62
256
370
0
  6
BYLAYER
 10
-4.5990000000000002
 20
-4.6289999999999996
 30
0.0
 11
-4.4989999999999997
 21
-4.4400000000000004
 31
0.0
  0
LINE
  5
189
100
AcDbEntity
100
AcDbLine
  8
0
 62
256
370
0
  6
BYLAYER
 10
-4.4989999999999997
 20
-4.4400000000000004
 30
0.0
 11
-4.423
 21
-4.3289999999999997
 31
0.0
  0
LINE
  5
18A
100
AcDbEntity
100
AcDbLine
  8
0
 62
256
370
0
  6
BYLAYER
 10
-4.423
 20
-4.3289999999999997
 30
0.0
 11
-4.4160000000000004
 21
-4.3220000000000001
 31
0.0
  0
LINE
  5
18B
100
AcDbEntity
100
AcDbLine
  8
0
 62
256
370
0
  6
BYLAYER
 10
-4.4160000000000004
 20
-4.3220000000000001
 30
0.0
 11
-4.5899999999999999
 21
-4.1360000000000001
 31
0.0
  0
LINE
  5
18C
100
AcDbEntity
100
AcDbLine
  8
0
 62
256
370
0
  6
BYLAYER
 10
-4.5899999999999999
 20
-4.1360000000000001
 30
0.0
 11
-4.5979999999999999
 21
-4.1429999999999998
 31
0.0
  0
LINE
  5
18D
100
AcDbEntity
100
AcDbLine
  8
0
 62
256
370
0
  6
BYLAYER
 10
-4.5979999999999999
 20
-4.1429999999999998
 30
0.0
 11
-4.7140000000000004
 21
-4.2110000000000003
 31
0.0
  0
LINE
  5
18E
100
AcDbEntity
100
AcDbLine
  8
0
 62
256
370
0
  6
BYLAYER
 10
-4.7140000000000004
 20
-4.2110000000000003
 30
0.0
 11
-4.9080000000000004
 21
-4.2990000000000004
 31
0.0
  0
LINE
  5
18F
100
AcDbEntity
100
AcDbLine
  8
0
 62
256
370
0
  6
BYLAYER
 10
-4.9080000000000004
 20
-4.2990000000000004
 30
0.0
 11
-5.1870000000000003
 21
-4.3879999999999999
 31
0.0
  0
LINE
  5
190
100
AcDbEntity
100
AcDbLine
  8
0
 62
256
370
0
  6
BYLAYER
 10
-5.1870000000000003
 20
-4.3879999999999999
 30
0.0
 11
-5.5519999999999996
 21
-4.4610000000000003
 31
0.0
  0
LINE
  5
191
100
AcDbEntity
100
AcDbLine
  8
0
 62
256
370
0
  6
BYLAYER
 10
-5.5519999999999996
 20
-4.4610000000000003
 30
0.0
 11
-6.0
 21
-4.4989999999999997
 31
0.0
  0
LINE
  5
192
100
AcDbEntity
100
AcDbLine
  8
0
 62
256
370
0
  6
BYLAYER
 10
-6.0
 20
-4.4989999999999997
 30
0.0
 11
-6.133
 21
-4.3159999999999998
 31
0.0
  0
LINE
  5
193
100
AcDbEntity
100
AcDbLine
  8
0
 62
256
370
0
  6
BYLAYER
 10
-6.133
 20
-4.3159999999999998
 30
0.0
 11
-5.9589999999999996
 21
-3.9020000000000001
 31
0.0
  0
LINE
  5
194
100
AcDbEntity
100
AcDbLine
  8
0
 62
256
370
0
  6
BYLAYER
 10
-5.9589999999999996
 20
-3.9020000000000001
 30
0.0
 11
-5.7759999999999998
 21
-3.5779999999999998
 31
0.0
  0
LINE
  5
195
100
AcDbEntity
100
AcDbLine
  8
0
 62
256
370
0
  6
BYLAYER
 10
-5.7759999999999998
 20
-3.5779999999999998
 30
0.0
 11
-5.6059999999999999
 21
-3.3399999999999999
 31
0.0
  0
LINE
  5
196
100
AcDbEntity
100
AcDbLine
  8
0
 62
256
370
0
  6
BYLAYER
 10
-5.6059999999999999
 20
-3.3399999999999999
 30
0.0
 11
-5.4619999999999997
 21
-3.1819999999999999
 31
0.0
  0
LINE
  5
197
100
AcDbEntity
100
AcDbLine
  8
0
 62
256
370
0
  6
BYLAYER
 10
-5.4619999999999997
 20
-3.1819999999999999
 30
0.0
 11
-5.3609999999999998
 21
-3.093
 31
0.0
  0
LINE
  5
198
100
AcDbEntity
100
AcDbLine
  8
0
 62
256
370
0
  6
BYLAYER
 10
-5.3609999999999998
 20
-3.093
 30
0.0
 11
-5.351
 21
-3.0870000000000002
 31
0.0
  0
LINE
  5
199
100
AcDbEntity
100
AcDbLine
  8
0
 62
256
370
0
  6
BYLAYER
 10
-5.351
 20
-3.0870000000000002
 30
0.0
 11
-5.4740000000000002
 21
-2.8639999999999999
 31
0.0
  0
LINE
  5
19A
100
AcDbEntity
100
AcDbLine
  8
0
 62
256
370
0
  6
BYLAYER
 10
-5.4740000000000002
 20
-2.8639999999999999
 30
0.0
 11
-5.484
 21
-2.8690000000000002
 31
0.0
  0
LINE
  5
19B
100
AcDbEntity
100
AcDbLine
  8
0
 62
256
370
0
  6
BYLAYER
 10
-5.484
 20
-2.8690000000000002
 30
0.0
 11
-5.6130000000000004
 21
-2.9060000000000001
 31
0.0
  0
LINE
  5
19C
100
AcDbEntity
100
AcDbLine
  8
0
 62
256
370
0
  6
BYLAYER
 10
-5.6130000000000004
 20
-2.9060000000000001
 30
0.0
 11
-5.8230000000000004
 21
-2.9430000000000001
 31
0.0
  0
LINE
  5
19D
100
AcDbEntity
100
AcDbLine
  8
0
 62
256
370
0
  6
BYLAYER
 10
-5.8230000000000004
 20
-2.9430000000000001
 30
0.0
 11
-6.1159999999999997
 21
-2.96
 31
0.0
  0
LINE
  5
19E
100
AcDbEntity
100
AcDbLine
  8
0
 62
256
370
0
  6
BYLAYER
 10
-6.1159999999999997
 20
-2.96
 30
0.0
 11
-6.4870000000000001
 21
-2.9409999999999998
 31
0.0
  0
LINE
  5
19F
100
AcDbEntity
100
AcDbLine
  8
0
 62
256
370
0
  6
BYLAYER
 10
-6.4870000000000001
 20
-2.9409999999999998
 30
0.0
 11
-6.931
 21
-2.8660000000000001
 31
0.0
  0
LINE
  5
1A0
100
AcDbEntity
100
AcDbLine
  8
0
 62
256
370
0
  6
BYLAYER
 10
-6.931
 20
-2.8660000000000001
 30
0.0
 11
-7.0140000000000002
 21
-2.6560000000000001
 31
0.0
  0
LINE
  5
1A1
100
AcDbEntity
100
AcDbLine
  8
0
 62
256
370
0
  6
BYLAYER
 10
-7.0140000000000002
 20
-2.6560000000000001
 30
0.0
 11
-6.742
 21
-2.2970000000000002
 31
0.0
  0
LINE
  5
1A2
100
AcDbEntity
100
AcDbLine
  8
0
 62
256
370
0
  6
BYLAYER
 10
-6.742
 20
-2.2970000000000002
 30
0.0
 11
-6.4850000000000003
 21
-2.0289999999999999
 31
0.0
  0
LINE
  5
1A3
100
AcDbEntity
100
AcDbLine
  8
0
 62
256
370
0
  6
BYLAYER
 10
-6.4850000000000003
 20
-2.0289999999999999
 30
0.0
 11
-6.2599999999999998
 21
-1.841
 31
0.0
  0
LINE
  5
1A4
100
AcDbEntity
100
AcDbLine
  8
0
 62
256
370
0
  6
BYLAYER
 10
-6.2599999999999998
 20
-1.841
 30
0.0
 11
-6.0810000000000004
 21
-1.724
 31
0.0
  0
LINE
  5
1A5
100
AcDbEntity
100
AcDbLine
  8
0
 62
256
370
0
  6
BYLAYER
 10
-6.0810000000000004
 20
-1.724
 30
0.0
 11
-5.9619999999999997
 21
-1.6619999999999999
 31
0.0
  0
LINE
  5
1A6
100
AcDbEntity
100
AcDbLine
  8
0
 62
256
370
0
  6
BYLAYER
 10
-5.9619999999999997
 20
-1.6619999999999999
 30
0.0
 11
-5.9509999999999996
 21
-1.659
 31
0.0
  0
LINE
  5
1A7
100
AcDbEntity
100
AcDbLine
  8
0
 62
256
370
0
  6
BYLAYER
 10
-5.9509999999999996
 20
-1.659
 30
0.0
 11
-6.0140000000000002
 21
-1.4119999999999999
 31
0.0
  0
LINE
  5
1A8
100
AcDbEntity
100
AcDbLine
  8
0
 62
256
370
0
  6
BYLAYER
 10
-6.0140000000000002
 20
-1.4119999999999999
 30
0.0
 11
-6.0250000000000004
 21
-1.415
 31
0.0
  0
LINE
  5
1A9
100
AcDbEntity
100
AcDbLine
  8
0
 62
256
370
0
  6
BYLAYER
 10
-6.0250000000000004
 20
-1.415
 30
0.0
 11
-6.1600000000000001
 21
-1.419
 31
0.0
  0
LINE
  5
1AA
100
AcDbEntity
100
AcDbLine
  8
0
 62
256
370
0
  6
BYLAYER
 10
-6.1600000000000001
 20
-1.419
 30
0.0
 11
-6.3719999999999999
 21
-1.403
 31
0.0
  0
LINE
  5
1AB
100
AcDbEntity
100
AcDbLine
  8
0
 62
256
370
0
  6
BYLAYER
 10
-6.3719999999999999
 20
-1.403
 30
0.0
 11
-6.6600000000000001
 21
-1.3460000000000001
 31
0.0
  0
LINE
  5
1AC
100
AcDbEntity
100
AcDbLine
  8
0
 62
256
370
0
  6
BYLAYER
 10
-6.6600000000000001
 20
-1.3460000000000001
 30
0.0
 11
-7.0149999999999997
 21
-1.2350000000000001
 31
0.0
  0
LINE
  5
1AD
100
AcDbEntity
100
AcDbLine
  8
0
 62
256
370
0
  6
BYLAYER
 10
-7.0149999999999997
 20
-1.2350000000000001
 30
0.0
 11
-7.4260000000000002
 21
-1.052
 31
0.0
  0
LINE
  5
1AE
100
AcDbEntity
100
AcDbLine
  8
0
 62
256
370
0
  6
BYLAYER
 10
-7.4260000000000002
 20
-1.052
 30
0.0
 11
-7.4539999999999997
 21
-0.828
 31
0.0
  0
CIRCLE
  5
1AF
100
AcDbEntity
100
AcDbCircle
  8
0
 62
256
370
0
  6
BYLAYER
 10
0.0
 20
0.0
 30
0.0
 40
2.5
  0
ENDBLK
  5
1B0
100
AcDbEntity
  8
0
100
AcDbBlockEnd
  0
BLOCK
  5
1B1
100
AcDbEntity
  8
0
100
AcDbBlockBegin
  2
Servo1DrillHoles
 70
0
 10
0.0
 20
0.0
 30
0.0
  3
Servo1DrillHoles
  1

  0
CIRCLE
  5
1B2
100
AcDbEntity
100
AcDbCircle
  8
0
 62
256
370
-1
  6
BYLAYER
 10
-5.1000000000000014
 20
-23.6600000000000108
 30
0.0
 40
1.05
  0
CIRCLE
  5
1B3
100
AcDbEntity
100
AcDbCircle
  8
0
 62
256
370
-1
  6
BYLAYER
 10
5.0699999999999932
 20
-23.6600000000000108
 30
0.0
 40
1.05
  0
CIRCLE
  5
1B4
100
AcDbEntity
100
AcDbCircle
  8
0
 62
256
370
-1
  6
BYLAYER
 10
-5.1000000000000014
 20
23.5999999999999908
 30
0.0
 40
1.05
  0
CIRCLE
  5
1B5
100
AcDbEntity
100
AcDbCircle
  8
0
 62
256
370
-1
  6
BYLAYER
 10
5.0699999999999932
 20
23.5999999999999908
 30
0.0
 40
1.05
  0
ENDBLK
  5
1B6
100
AcDbEntity
  8
0
100
AcDbBlockEnd
  0
BLOCK
  5
1B7
100
AcDbEntity
  8
0
100
AcDbBlockBegin
  2
stepper2
 70
0
 10
0.0
 20
0.0
 30
0.0
  3
stepper2
  1

  0
CIRCLE
  5
1B8
100
AcDbEntity
100
AcDbCircle
  8
0
 62
256
370
-1
  6
BYLAYER
 10
-22.5000000000000107
 20
-38.9711431702997189
 30
0.0
 40
2.0499999999999998
  0
CIRCLE
  5
1B9
100
AcDbEntity
100
AcDbCircle
  8
0
 62
256
370
-1
  6
BYLAYER
 10
-8.0
 20
8.0000000000000142
 30
0.0
 40
1.5
  0
CIRCLE
  5
1BA
100
AcDbEntity
100
AcDbCircle
  8
0
 62
256
370
-1
  6
BYLAYER
 10
-8.0
 20
-8.0
 30
0.0
 40
1.5
  0
CIRCLE
  5
1BB
100
AcDbEntity
100
AcDbCircle
  8
0
 62
256
370
-1
  6
BYLAYER
 10
0.0
 20
0.0
 30
0.0
 40
7.5499999999999998
  0
CIRCLE
  5
1BC
100
AcDbEntity
100
AcDbCircle
  8
0
 62
256
370
-1
  6
BYLAYER
 10
8.0
 20
7.9999999999999858
 30
0.0
 40
1.5
  0
CIRCLE
  5
1BD
100
AcDbEntity
100
AcDbCircle
  8
0
 62
256
370
-1
  6
BYLAYER
 10
8.0
 20
-8.0
 30
0.0
 40
1.5
  0
ENDBLK
  5
1BE
100
AcDbEntity
  8
0
100
AcDbBlockEnd
  0
BLOCK
  5
1BF
100
AcDbEntity
  8
0
100
AcDbBlockBegin
  2
SY28STH32-0674A
 70
0
 10
0.0
 20
0.0
 30
0.0
  3
SY28STH32-0674A
  1

  0
CIRCLE
  5
1C0
100
AcDbEntity
100
AcDbCircle
  8
0
 62
256
370
-1
  6
BYLAYER
 10
0.0
 20
0.0
 30
0.0
 40
11.0500000000000007
  0
CIRCLE
  5
1C1
100
AcDbEntity
100
AcDbCircle
  8
0
 62
256
370
-1
  6
BYLAYER
 10
11.5
 20
-11.5
 30
0.0
 40
1.5
  0
CIRCLE
  5
1C2
100
AcDbEntity
100
AcDbCircle
  8
0
 62
256
370
-1
  6
BYLAYER
 10
-11.5
 20
-11.5
 30
0.0
 40
1.5
  0
CIRCLE
  5
1C3
100
AcDbEntity
100
AcDbCircle
  8
0
 62
256
370
-1
  6
BYLAYER
 10
11.5
 20
11.5
 30
0.0
 40
1.5
  0
CIRCLE
  5
1C4
100
AcDbEntity
100
AcDbCircle
  8
0
 62
256
370
-1
  6
BYLAYER
 10
-11.5
 20
11.5
 30
0.0
 40
1.5
  0
ENDBLK
  5
1C5
100
AcDbEntity
  8
0
100
AcDbBlockEnd
  0
BLOCK
  5
1C6
100
AcDbEntity
  8
0
100
AcDbBlockBegin
  2
steppermount
 70
0
 10
0.0
 20
0.0
 30
0.0
  3
steppermount
  1

  0
CIRCLE
  5
1C7
100
AcDbEntity
100
AcDbCircle
  8
0
 62
256
370
-1
  6
BYLAYER
 10
0.0
 20
44.9999999999999929
 30
0.0
 40
2.0499999999999998
  0
CIRCLE
  5
1C8
100
AcDbEntity
100
AcDbCircle
  8
0
 62
256
370
-1
  6
BYLAYER
 10
8.0
 20
-8.0
 30
0.0
 40
1.5
  0
CIRCLE
  5
1C9
100
AcDbEntity
100
AcDbCircle
  8
0
 62
256
370
-1
  6
BYLAYER
 10
8.0
 20
8.0
 30
0.0
 40
1.5
  0
CIRCLE
  5
1CA
100
AcDbEntity
100
AcDbCircle
  8
0
 62
256
370
-1
  6
BYLAYER
 10
0.0
 20
0.0
 30
0.0
 40
7.5499999999999998
  0
CIRCLE
  5
1CB
100
AcDbEntity
100
AcDbCircle
  8
0
 62
256
370
-1
  6
BYLAYER
 10
-8.0
 20
-8.0
 30
0.0
 40
1.5
  0
CIRCLE
  5
1CC
100
AcDbEntity
100
AcDbCircle
  8
0
 62
256
370
-1
  6
BYLAYER
 10
-8.0
 20
8.0
 30
0.0
 40
1.5
  0
ENDBLK
  5
1CD
100
AcDbEntity
  8
0
100
AcDbBlockEnd
  0
BLOCK
  5
1CE
100
AcDbEntity
  8
0
100
AcDbBlockBegin
  2
ServoScrews
 70
0
 10
0.0
 20
0.0
 30
0.0
  3
ServoScrews
  1

  0
CIRCLE
  5
1CF
100
AcDbEntity
100
AcDbCircle
  8
0
 62
256
370
-1
  6
BYLAYER
 10
-4.9999999999999929
 20
-23.6600000000000108
 30
0.0
 40
2.2000000000000002
  0
CIRCLE
  5
1D0
100
AcDbEntity
100
AcDbCircle
  8
0
 62
256
370
-1
  6
BYLAYER
 10
5.1700000000000088
 20
-23.6600000000000108
 30
0.0
 40
2.2000000000000002
  0
CIRCLE
  5
1D1
100
AcDbEntity
100
AcDbCircle
  8
0
 62
256
370
-1
  6
BYLAYER
 10
-4.9999999999999929
 20
23.5999999999999908
 30
0.0
 40
2.2000000000000002
  0
CIRCLE
  5
1D2
100
AcDbEntity
100
AcDbCircle
  8
0
 62
256
370
-1
  6
BYLAYER
 10
5.1700000000000088
 20
23.5999999999999908
 30
0.0
 40
2.2000000000000002
  0
ENDBLK
  5
1D3
100
AcDbEntity
  8
0
100
AcDbBlockEnd
  0
BLOCK
  5
1D4
100
AcDbEntity
  8
0
100
AcDbBlockBegin
  2
SY20STH30-0604A
 70
0
 10
0.0
 20
0.0
 30
0.0
  3
SY20STH30-0604A
  1

  0
CIRCLE
  5
1D5
100
AcDbEntity
100
AcDbCircle
  8
0
 62
256
370
-1
  6
BYLAYER
 10
8.0
 20
-8.0
 30
0.0
 40
1.5
  0
CIRCLE
  5
1D6
100
AcDbEntity
100
AcDbCircle
  8
0
 62
256
370
-1
  6
BYLAYER
 10
-8.0
 20
-8.0
 30
0.0
 40
1.5
  0
CIRCLE
  5
1D7
100
AcDbEntity
100
AcDbCircle
  8
0
 62
256
370
-1
  6
BYLAYER
 10
8.0
 20
8.0
 30
0.0
 40
1.5
  0
CIRCLE
  5
1D8
100
AcDbEntity
100
AcDbCircle
  8
0
 62
256
370
-1
  6
BYLAYER
 10
-8.0
 20
8.0
 30
0.0
 40
1.5
  0
CIRCLE
  5
1D9
100
AcDbEntity
100
AcDbCircle
  8
0
 62
256
370
-1
  6
BYLAYER
 10
0.0
 20
0.0
 30
0.0
 40
7.5499999999999998
  0
ENDBLK
  5
1DA
100
AcDbEntity
  8
0
100
AcDbBlockEnd
  0
BLOCK
  5
1DB
100
AcDbEntity
  8
0
100
AcDbBlockBegin
  2
SY42STH38-1684A
 70
0
 10
0.0
 20
0.0
 30
0.0
  3
SY42STH38-1684A
  1

  0
CIRCLE
  5
1DC
100
AcDbEntity
100
AcDbCircle
  8
0
 62
256
370
-1
  6
BYLAYER
 10
0.0
 20
0.0
 30
0.0
 40
11.0500000000000007
  0
CIRCLE
  5
1DD
100
AcDbEntity
100
AcDbCircle
  8
0
 62
256
370
-1
  6
BYLAYER
 10
15.5
 20
-15.5
 30
0.0
 40
1.5
  0
CIRCLE
  5
1DE
100
AcDbEntity
100
AcDbCircle
  8
0
 62
256
370
-1
  6
BYLAYER
 10
-15.5
 20
-15.5
 30
0.0
 40
1.5
  0
CIRCLE
  5
1DF
100
AcDbEntity
100
AcDbCircle
  8
0
 62
256
370
-1
  6
BYLAYER
 10
15.5
 20
15.5
 30
0.0
 40
1.5
  0
CIRCLE
  5
1E0
100
AcDbEntity
100
AcDbCircle
  8
0
 62
256
370
-1
  6
BYLAYER
 10
-15.5
 20
15.5
 30
0.0
 40
1.5
  0
ENDBLK
  5
1E1
100
AcDbEntity
  8
0
100
AcDbBlockEnd
  0
BLOCK
  5
1E2
100
AcDbEntity
  8
0
100
AcDbBlockBegin
  2
SY35ST36-1004A
 70
0
 10
0.0
 20
0.0
 30
0.0
  3
SY35ST36-1004A
  1

  0
CIRCLE
  5
1E3
100
AcDbEntity
100
AcDbCircle
  8
0
 62
256
370
-1
  6
BYLAYER
 10
0.0
 20
0.0
 30
0.0
 40
11.0500000000000007
  0
CIRCLE
  5
1E4
100
AcDbEntity
100
AcDbCircle
  8
0
 62
256
370
-1
  6
BYLAYER
 10
13.0
 20
-13.0
 30
0.0
 40
1.5
  0
CIRCLE
  5
1E5
100
AcDbEntity
100
AcDbCircle
  8
0
 62
256
370
-1
  6
BYLAYER
 10
-13.0
 20
-13.0
 30
0.0
 40
1.5
  0
CIRCLE
  5
1E6
100
AcDbEntity
100
AcDbCircle
  8
0
 62
256
370
-1
  6
BYLAYER
 10
13.0
 20
13.0
 30
0.0
 40
1.5
  0
CIRCLE
  5
1E7
100
AcDbEntity
100
AcDbCircle
  8
0
 62
256
370
-1
  6
BYLAYER
 10
-13.0
 20
13.0
 30
0.0
 40
1.5
  0
ENDBLK
  5
1E8
100
AcDbEntity
  8
0
100
AcDbBlockEnd
  0
BLOCK
  5
1E9
100
AcDbEntity
  8
0
100
AcDbBlockBegin
  2
stepper
 70
0
 10
0.0
 20
0.0
 30
0.0
  3
stepper
  1

  0
CIRCLE
  5
1EA
100
AcDbEntity
100
AcDbCircle
  8
0
 62
256
370
-1
  6
BYLAYER
 10
-8.0
 20
-8.0000000000000071
 30
0.0
 40
1.5
  0
CIRCLE
  5
1EB
100
AcDbEntity
100
AcDbCircle
  8
0
 62
256
370
-1
  6
BYLAYER
 10
8.0
 20
-8.0
 30
0.0
 40
1.5
  0
CIRCLE
  5
1EC
100
AcDbEntity
100
AcDbCircle
  8
0
 62
256
370
-1
  6
BYLAYER
 10
0.0
 20
0.0
 30
0.0
 40
7.5499999999999998
  0
CIRCLE
  5
1ED
100
AcDbEntity
100
AcDbCircle
  8
0
 62
256
370
-1
  6
BYLAYER
 10
-8.0
 20
8.0000000000000071
 30
0.0
 40
1.5
  0
CIRCLE
  5
1EE
100
AcDbEntity
100
AcDbCircle
  8
0
 62
256
370
-1
  6
BYLAYER
 10
8.0
 20
8.0
 30
0.0
 40
1.5
  0
ENDBLK
  5
1EF
100
AcDbEntity
  8
0
100
AcDbBlockEnd
  0
BLOCK
  5
1F0
100
AcDbEntity
  8
0
100
AcDbBlockBegin
  2
SmallServo
 70
0
 10
0.0
 20
0.0
 30
0.0
  3
SmallServo
  1

  0
LINE
  5
1F1
100
AcDbEntity
100
AcDbLine
  8
0
 62
256
370
0
  6
BYLAYER
 10
-6.0
 20
-15.0
 30
0.0
 11
-6.0
 21
15.0
 31
0.0
  0
LINE
  5
1F2
100
AcDbEntity
100
AcDbLine
  8
0
 62
256
370
0
  6
BYLAYER
 10
-6.0
 20
15.0
 30
0.0
 11
6.0
 21
15.0
 31
0.0
  0
LINE
  5
1F3
100
AcDbEntity
100
AcDbLine
  8
0
 62
256
370
0
  6
BYLAYER
 10
6.0
 20
15.0
 30
0.0
 11
6.0
 21
-15.0
 31
0.0
  0
LINE
  5
1F4
100
AcDbEntity
100
AcDbLine
  8
0
 62
256
370
0
  6
BYLAYER
 10
6.0
 20
-15.0
 30
0.0
 11
-6.0
 21
-15.0
 31
0.0
  0
CIRCLE
  5
1F5
100
AcDbEntity
100
AcDbCircle
  8
0
 62
256
370
0
  6
BYLAYER
 10
-0.0000000000000142
 20
17.4999999999999893
 30
0.0
 40
1.05
  0
CIRCLE
  5
1F6
100
AcDbEntity
100
AcDbCircle
  8
0
 62
256
370
0
  6
BYLAYER
 10
-0.0000000000000142
 20
-17.5
 30
0.0
 40
1.05
  0
ENDBLK
  5
1F7
100
AcDbEntity
  8
0
100
AcDbBlockEnd
  0
ENDSEC
  0
SECTION
  2
ENTITIES
  0
LINE
  5
1F8
100
AcDbEntity
100
AcDbLine
  8
0
 62
256
370
0
  6
BYLAYER
 10
0.0
 20
0.0
 30
0.0
 11
0.0
 21
80.0
 31
0.0
  0
LINE
  5
1F9
100
AcDbEntity
100
AcDbLine
  8
0
 62
256
370
0
  6
BYLAYER
 10
0.0
 20
80.0
 30
0.0
 11
74.9999999999999858
 21
80.0
 31
0.0
  0
LINE
  5
1FA
100
AcDbEntity
100
AcDbLine
  8
0
 62
256
370
0
  6
BYLAYER
 10
75.0
 20
15.0
 30
0.0
 11
81.3499999999999943
 21
15.0
 31
0.0
  0
LINE
  5
1FB
100
AcDbEntity
100
AcDbLine
  8
0
 62
256
370
0
  6
BYLAYER
 10
75.0
 20
5.0
 30
0.0
 11
75.0
 21
0.0
 31
0.0
  0
LINE
  5
1FC
100
AcDbEntity
100
AcDbLine
  8
0
 62
256
370
0
  6
BYLAYER
 10
75.0
 20
80.0
 30
0.0
 11
75.0
 21
80.0
 31
0.0
  0
LINE
  5
1FD
100
AcDbEntity
100
AcDbLine
  8
0
 62
256
370
0
  6
BYLAYER
 10
75.0
 20
80.0
 30
0.0
 11
75.0
 21
80.0
 31
0.0
  0
LINE
  5
1FE
100
AcDbEntity
100
AcDbLine
  8
0
 62
256
370
0
  6
BYLAYER
 10
80.0
 20
80.0
 30
0.0
 11
80.0
 21
80.0
 31
0.0
  0
LINE
  5
1FF
100
AcDbEntity
100
AcDbLine
  8
0
 62
256
370
0
  6
BYLAYER
 10
81.3499999999999943
 20
75.0
 30
0.0
 11
81.3499999999999943
 21
65.0
 31
0.0
  0
LINE
  5
200
100
AcDbEntity
100
AcDbLine
  8
0
 62
256
370
0
  6
BYLAYER
 10
75.0
 20
80.0
 30
0.0
 11
75.0
 21
75.0
 31
0.0
  0
LINE
  5
201
100
AcDbEntity
100
AcDbLine
  8
0
 62
256
370
0
  6
BYLAYER
 10
75.0
 20
75.0
 30
0.0
 11
81.3499999999999943
 21
75.0
 31
0.0
  0
LINE
  5
202
100
AcDbEntity
100
AcDbLine
  8
0
 62
256
370
0
  6
BYLAYER
 10
75.0
 20
0.0
 30
0.0
 11
0.0
 21
0.0
 31
0.0
  0
LINE
  5
203
100
AcDbEntity
100
AcDbLine
  8
0
 62
256
370
0
  6
BYLAYER
 10
81.3499999999999943
 20
5.0
 30
0.0
 11
75.0
 21
5.0000000000000009
 31
0.0
  0
LINE
  5
204
100
AcDbEntity
100
AcDbLine
  8
0
 62
256
370
0
  6
BYLAYER
 10
75.0
 20
65.0
 30
0.0
 11
75.0
 21
50.0
 31
0.0
  0
LINE
  5
205
100
AcDbEntity
100
AcDbLine
  8
0
 62
256
370
0
  6
BYLAYER
 10
81.3499999999999943
 20
15.0
 30
0.0
 11
81.3499999999999943
 21
5.0
 31
0.0
  0
LINE
  5
206
100
AcDbEntity
100
AcDbLine
  8
0
 62
256
370
0
  6
BYLAYER
 10
81.3499999999999943
 20
65.0
 30
0.0
 11
75.0
 21
65.0
 31
0.0
  0
LINE
  5
207
100
AcDbEntity
100
AcDbLine
  8
0
 62
256
370
0
  6
BYLAYER
 10
75.0
 20
80.0
 30
0.0
 11
225.0
 21
80.0
 31
0.0
  0
LINE
  5
208
100
AcDbEntity
100
AcDbLine
  8
0
 62
256
370
0
  6
BYLAYER
 10
225.0
 20
80.0
 30
0.0
 11
225.0
 21
75.0
 31
0.0
  0
LINE
  5
209
100
AcDbEntity
100
AcDbLine
  8
0
 62
256
370
0
  6
BYLAYER
 10
225.0
 20
75.0
 30
0.0
 11
218.6500000000000057
 21
75.0
 31
0.0
  0
LINE
  5
20A
100
AcDbEntity
100
AcDbLine
  8
0
 62
256
370
0
  6
BYLAYER
 10
218.6500000000000057
 20
75.0
 30
0.0
 11
218.6500000000000057
 21
65.0
 31
0.0
  0
LINE
  5
20B
100
AcDbEntity
100
AcDbLine
  8
0
 62
256
370
0
  6
BYLAYER
 10
218.6500000000000057
 20
65.0
 30
0.0
 11
225.0
 21
65.0
 31
0.0
  0
LINE
  5
20C
100
AcDbEntity
100
AcDbLine
  8
0
 62
256
370
0
  6
BYLAYER
 10
225.0
 20
65.0
 30
0.0
 11
225.0
 21
50.0
 31
0.0
  0
LINE
  5
20D
100
AcDbEntity
100
AcDbLine
  8
0
 62
256
370
0
  6
BYLAYER
 10
225.0
 20
50.0
 30
0.0
 11
218.6500000000000057
 21
50.0
 31
0.0
  0
LINE
  5
20E
100
AcDbEntity
100
AcDbLine
  8
0
 62
256
370
0
  6
BYLAYER
 10
75.0
 20
-0.0
 30
0.0
 11
225.0
 21
0.0
 31
0.0
  0
LINE
  5
20F
100
AcDbEntity
100
AcDbLine
  8
0
 62
256
370
0
  6
BYLAYER
 10
225.0
 20
0.0
 30
0.0
 11
225.0
 21
5.0
 31
0.0
  0
LINE
  5
210
100
AcDbEntity
100
AcDbLine
  8
0
 62
256
370
0
  6
BYLAYER
 10
225.0
 20
5.0
 30
0.0
 11
218.6500000000000057
 21
5.0000000000000009
 31
0.0
  0
LINE
  5
211
100
AcDbEntity
100
AcDbLine
  8
0
 62
256
370
0
  6
BYLAYER
 10
218.6500000000000057
 20
5.0000000000000009
 30
0.0
 11
218.6500000000000057
 21
15.0
 31
0.0
  0
LINE
  5
212
100
AcDbEntity
100
AcDbLine
  8
0
 62
256
370
0
  6
BYLAYER
 10
218.6500000000000057
 20
15.0
 30
0.0
 11
225.0
 21
15.0
 31
0.0
  0
LINE
  5
213
100
AcDbEntity
100
AcDbLine
  8
0
 62
256
370
0
  6
BYLAYER
 10
225.0
 20
15.0
 30
0.0
 11
225.0
 21
30.0
 31
0.0
  0
LINE
  5
214
100
AcDbEntity
100
AcDbLine
  8
0
 62
256
370
0
  6
BYLAYER
 10
225.0
 20
30.0
 30
0.0
 11
218.6500000000000057
 21
30.0
 31
0.0
  0
LINE
  5
215
100
AcDbEntity
100
AcDbLine
  8
0
 62
256
370
0
  6
BYLAYER
 10
218.6500000000000057
 20
30.0
 30
0.0
 11
218.6500000000000057
 21
50.0
 31
0.0
  0
LINE
  5
216
100
AcDbEntity
100
AcDbLine
  8
0
 62
256
370
0
  6
BYLAYER
 10
225.0
 20
80.0
 30
0.0
 11
300.0
 21
80.0
 31
0.0
  0
LINE
  5
217
100
AcDbEntity
100
AcDbLine
  8
0
 62
256
370
0
  6
BYLAYER
 10
300.0
 20
80.0
 30
0.0
 11
300.0
 21
0.0
 31
0.0
  0
LINE
  5
218
100
AcDbEntity
100
AcDbLine
  8
0
 62
256
370
0
  6
BYLAYER
 10
300.0
 20
0.0
 30
0.0
 11
225.0
 21
0.0
 31
0.0
  0
CIRCLE
  5
219
100
AcDbEntity
100
AcDbCircle
  8
0
 62
256
370
0
  6
BYLAYER
 10
290.0
 20
40.0
 30
0.0
 40
2.0499999999999998
  0
LINE
  5
21A
100
AcDbEntity
100
AcDbLine
  8
0
 62
256
370
0
  6
BYLAYER
 10
75.0
 20
50.0
 30
0.0
 11
81.3499999999999943
 21
50.0
 31
0.0
  0
LINE
  5
21B
100
AcDbEntity
100
AcDbLine
  8
0
 62
256
370
0
  6
BYLAYER
 10
75.0
 20
30.0
 30
0.0
 11
75.0
 21
15.0
 31
0.0
  0
LINE
  5
21C
100
AcDbEntity
100
AcDbLine
  8
0
 62
256
370
0
  6
BYLAYER
 10
81.3499999999999943
 20
29.9999999999999964
 30
0.0
 11
75.0
 21
29.9999999999999964
 31
0.0
  0
LINE
  5
21D
100
AcDbEntity
100
AcDbLine
  8
0
 62
256
370
0
  6
BYLAYER
 10
80.0
 20
50.0
 30
0.0
 11
80.0
 21
50.0
 31
0.0
  0
LINE
  5
21E
100
AcDbEntity
100
AcDbLine
  8
0
 62
256
370
0
  6
BYLAYER
 10
80.0
 20
50.0
 30
0.0
 11
80.0
 21
50.0
 31
0.0
  0
LINE
  5
21F
100
AcDbEntity
100
AcDbLine
  8
0
 62
256
370
0
  6
BYLAYER
 10
81.3499999999999943
 20
50.0
 30
0.0
 11
81.3499999999999943
 21
30.0
 31
0.0
  0
CIRCLE
  5
220
100
AcDbEntity
100
AcDbCircle
  8
0
 62
256
370
0
  6
BYLAYER
 10
245.0
 20
15.0
 30
0.0
 40
2.0499999999999998
  0
CIRCLE
  5
221
100
AcDbEntity
100
AcDbCircle
  8
0
 62
256
370
0
  6
BYLAYER
 10
55.0
 20
15.0
 30
0.0
 40
2.0499999999999998
  0
LINE
  5
222
100
AcDbEntity
100
AcDbLine
  8
0
 62
256
370
0
  6
BYLAYER
 10
190.0
 20
70.0
 30
0.0
 11
190.0
 21
10.0
 31
0.0
  0
LINE
  5
223
100
AcDbEntity
100
AcDbLine
  8
0
 62
256
370
0
  6
BYLAYER
 10
190.0
 20
10.0
 30
0.0
 11
110.0
 21
10.0
 31
0.0
  0
LINE
  5
224
100
AcDbEntity
100
AcDbLine
  8
0
 62
256
370
0
  6
BYLAYER
 10
110.0
 20
10.0
 30
0.0
 11
110.0
 21
70.0
 31
0.0
  0
LINE
  5
225
100
AcDbEntity
100
AcDbLine
  8
0
 62
256
370
0
  6
BYLAYER
 10
110.0
 20
70.0
 30
0.0
 11
190.0
 21
70.0
 31
0.0
  0
LINE
  5
226
100
AcDbEntity
100
AcDbLine
  8
0
 62
256
370
0
  6
BYLAYER
 10
178.0
 20
71.0
 30
0.0
 11
178.0
 21
71.0
 31
0.0
  0
CIRCLE
  5
227
100
AcDbEntity
100
AcDbCircle
  8
0
 62
256
370
-1
  6
BYLAYER
 10
180.0
 20
30.0
 30
0.0
 40
2.0499999999999998
  0
INSERT
  5
228
100
AcDbEntity
100
AcDbBlockReference
  8
0
 62
256
370
-1
  6
BYLAYER
  2
SY28STH32-0674A
 10
125.0
 20
55.0
 30
0.0
  0
INSERT
  5
229
100
AcDbEntity
100
AcDbBlockReference
  8
0
 62
256
370
-1
  6
BYLAYER
  2
SY42STH38-1684A
 10
245.0
 20
60.0
 30
0.0
  0
CIRCLE
  5
22A
100
AcDbEntity
100
AcDbCircle
  8
0
 62
256
370
-1
  6
BYLAYER
 10
10.0
 20
40.0
 30
0.0
 40
2.0499999999999998
  0
INSERT
  5
22B
100
AcDbEntity
100
AcDbBlockReference
  8
0
 62
256
370
-1
  6
BYLAYER
  2
SY35ST36-1004A
 10
55.0
 20
60.0
 30
0.0
  0
CIRCLE
  5
22C
100
AcDbEntity
100
AcDbCircle
  8
0
 62
256
370
-1
  6
BYLAYER
 10
120.0
 20
30.0
 30
0.0
 40
2.0499999999999998
  0
INSERT
  5
22D
100
AcDbEntity
100
AcDbBlockReference
  8
0
 62
256
370
-1
  6
BYLAYER
  2
SY20STH30-0604A
 10
175.0
 20
55.0
 30
0.0
  0
ENDSEC
  0
SECTION
  2
OBJECTS
  0
DICTIONARY
  5
C
100
AcDbDictionary
280
0
281
1
  3
ACAD_GROUP
350
D
  3
ACAD_LAYOUT
350
1A
  3
ACAD_MLINESTYLE
350
17
  3
ACAD_PLOTSETTINGS
350
19
  3
ACAD_PLOTSTYLENAME
350
E
  3
AcDbVariableDictionary
350
22E
  3
QCAD_OBJECTS
350
22F
  0
DICTIONARY
  5
D
100
AcDbDictionary
280
0
281
1
  0
ACDBDICTIONARYWDFLT
  5
E
100
AcDbDictionary
281
1
  3
Normal
350
F
100
AcDbDictionaryWithDefault
340
F
  0
ACDBPLACEHOLDER
  5
F
  0
DICTIONARY
  5
17
100
AcDbDictionary
280
0
281
1
  3
Standard
350
18
  0
MLINESTYLE
  5
18
100
AcDbMlineStyle
  2
STANDARD
 70
0
  3

 62
256
 51
90.0
 52
90.0
 71
2
 49
0.5
 62
256
  6
BYLAYER
 49
-0.5
 62
256
  6
BYLAYER
  0
DICTIONARY
  5
19
100
AcDbDictionary
280
0
281
1
  0
DICTIONARY
  5
1A
100
AcDbDictionary
281
1
  3
Layout1
350
1E
  3
Layout2
350
26
  3
Model
350
22
  0
LAYOUT
  5
1E
100
AcDbPlotSettings
  1

  2
none_device
  4

  6

 40
0.0
 41
0.0
 42
0.0
 43
0.0
 44
0.0
 45
0.0
 46
0.0
 47
0.0
 48
0.0
 49
0.0
140
0.0
141
0.0
142
1.0
143
1.0
 70
688
 72
0
 73
0
 74
5
  7

 75
16
147
1.0
148
0.0
149
0.0
100
AcDbLayout
  1
Layout1
 70
1
 71
1
 10
0.0
 20
0.0
 11
420.0
 21
297.0
 12
0.0
 22
0.0
 32
0.0
 14
100000000000000000000.0
 24
100000000000000000000.0
 34
100000000000000000000.0
 15
-100000000000000000000.0
 25
-100000000000000000000.0
 35
-100000000000000000000.0
146
0.0
 13
0.0
 23
0.0
 33
0.0
 16
1.0
 26
0.0
 36
0.0
 17
0.0
 27
1.0
 37
0.0
 76
0
330
1B
  0
LAYOUT
  5
22
100
AcDbPlotSettings
  1

  2
none_device
  4

  6

 40
0.0
 41
0.0
 42
0.0
 43
0.0
 44
0.0
 45
0.0
 46
0.0
 47
0.0
 48
0.0
 49
0.0
140
0.0
141
0.0
142
1.0
143
1.0
 70
1712
 72
0
 73
0
 74
0
  7

 75
0
147
1.0
148
0.0
149
0.0
100
AcDbLayout
  1
Model
 70
1
 71
0
 10
0.0
 20
0.0
 11
12.0
 21
9.0
 12
0.0
 22
0.0
 32
0.0
 14
0.0
 24
0.0
 34
0.0
 15
0.0
 25
0.0
 35
0.0
146
0.0
 13
0.0
 23
0.0
 33
0.0
 16
1.0
 26
0.0
 36
0.0
 17
0.0
 27
1.0
 37
0.0
 76
0
330
1F
  0
LAYOUT
  5
26
100
AcDbPlotSettings
  1

  2
none_device
  4

  6

 40
0.0
 41
0.0
 42
0.0
 43
0.0
 44
0.0
 45
0.0
 46
0.0
 47
0.0
 48
0.0
 49
0.0
140
0.0
141
0.0
142
1.0
143
1.0
 70
688
 72
0
 73
0
 74
5
  7

 75
16
147
1.0
148
0.0
149
0.0
100
AcDbLayout
  1
Layout2
 70
1
 71
2
 10
0.0
 20
0.0
 11
12.0
 21
9.0
 12
0.0
 22
0.0
 32
0.0
 14
0.0
 24
0.0
 34
0.0
 15
0.0
 25
0.0
 35
0.0
146
0.0
 13
0.0
 23
0.0
 33
0.0
 16
1.0
 26
0.0
 36
0.0
 17
0.0
 27
1.0
 37
0.0
 76
0
330
23
  0
DICTIONARY
  5
22E
100
AcDbDictionary
281
1
  3
DIMASSOC
350
231
  3
HIDETEXT
350
230
  0
DICTIONARYVAR
  5
230
100
DictionaryVariables
280
0
  1
2
  0
DICTIONARYVAR
  5
231
100
DictionaryVariables
280
0
  1
1
  0
DICTIONARY
  5
22F
100
AcDbDictionary
281
1
  3
Grid/DisplayGrid00
350
232
  3
Grid/DisplayGrid01
350
233
  3
Grid/DisplayGrid02
350
234
  3
Grid/DisplayGrid03
350
235
  3
Grid/GridSpacingX00
350
236
  3
Grid/GridSpacingX01
350
237
  3
Grid/GridSpacingX02
350
238
  3
Grid/GridSpacingX03
350
239
  3
Grid/GridSpacingY00
350
23A
  3
Grid/GridSpacingY01
350
23B
  3
Grid/GridSpacingY02
350
23C
  3
Grid/GridSpacingY03
350
23D
  3
Grid/IsometricGrid00
350
23E
  3
Grid/IsometricGrid01
350
23F
  3
Grid/IsometricGrid02
350
240
  3
Grid/IsometricGrid03
350
241
  3
Grid/IsometricProjection00
350
242
  3
Grid/IsometricProjection01
350
243
  3
Grid/IsometricProjection02
350
244
  3
Grid/IsometricProjection03
350
245
  3
Grid/MetaGridSpacingX00
350
246
  3
Grid/MetaGridSpacingX01
350
247
  3
Grid/MetaGridSpacingX02
350
248
  3
Grid/MetaGridSpacingX03
350
249
  3
Grid/MetaGridSpacingY00
350
24A
  3
Grid/MetaGridSpacingY01
350
24B
  3
Grid/MetaGridSpacingY02
350
24C
  3
Grid/MetaGridSpacingY03
350
24D
  3
MultiPageSettings/Columns
350
24E
  3
MultiPageSettings/GlueMarginsBottom
350
24F
  3
MultiPageSettings/GlueMarginsLeft
350
250
  3
MultiPageSettings/GlueMarginsRight
350
251
  3
MultiPageSettings/GlueMarginsTop
350
252
  3
MultiPageSettings/PrintCropMarks
350
253
  3
MultiPageSettings/Rows
350
254
  3
PageSettings/OffsetX
350
255
  3
PageSettings/OffsetY
350
256
  3
PageSettings/PageOrientation
350
257
  3
PageSettings/PaperHeight
350
258
  3
PageSettings/PaperWidth
350
259
  3
PageSettings/Scale
350
25A
  3
PageSettings/ShowPaperBorders
350
25B
  3
UnitSettings/PaperUnit
350
25C
  0
XRECORD
  5
232
330
22F
100
AcDbXrecord
280
1
290
1
  0
XRECORD
  5
233
330
22F
100
AcDbXrecord
280
1
290
1
  0
XRECORD
  5
234
330
22F
100
AcDbXrecord
280
1
290
1
  0
XRECORD
  5
235
330
22F
100
AcDbXrecord
280
1
290
1
  0
XRECORD
  5
236
330
22F
100
AcDbXrecord
280
1
1000
auto
  0
XRECORD
  5
237
330
22F
100
AcDbXrecord
280
1
1000
auto
  0
XRECORD
  5
238
330
22F
100
AcDbXrecord
280
1
1000
auto
  0
XRECORD
  5
239
330
22F
100
AcDbXrecord
280
1
1000
auto
  0
XRECORD
  5
23A
330
22F
100
AcDbXrecord
280
1
1000
auto
  0
XRECORD
  5
23B
330
22F
100
AcDbXrecord
280
1
1000
auto
  0
XRECORD
  5
23C
330
22F
100
AcDbXrecord
280
1
1000
auto
  0
XRECORD
  5
23D
330
22F
100
AcDbXrecord
280
1
1000
auto
  0
XRECORD
  5
23E
330
22F
100
AcDbXrecord
280
1
290
0
  0
XRECORD
  5
23F
330
22F
100
AcDbXrecord
280
1
290
0
  0
XRECORD
  5
240
330
22F
100
AcDbXrecord
280
1
290
0
  0
XRECORD
  5
241
330
22F
100
AcDbXrecord
280
1
290
0
  0
XRECORD
  5
242
330
22F
100
AcDbXrecord
280
1
 90
0
  0
XRECORD
  5
243
330
22F
100
AcDbXrecord
280
1
 90
0
  0
XRECORD
  5
244
330
22F
100
AcDbXrecord
280
1
 90
0
  0
XRECORD
  5
245
330
22F
100
AcDbXrecord
280
1
 90
0
  0
XRECORD
  5
246
330
22F
100
AcDbXrecord
280
1
1000
auto
  0
XRECORD
  5
247
330
22F
100
AcDbXrecord
280
1
1000
auto
  0
XRECORD
  5
248
330
22F
100
AcDbXrecord
280
1
1000
auto
  0
XRECORD
  5
249
330
22F
100
AcDbXrecord
280
1
1000
auto
  0
XRECORD
  5
24A
330
22F
100
AcDbXrecord
280
1
1000
auto
  0
XRECORD
  5
24B
330
22F
100
AcDbXrecord
280
1
1000
auto
  0
XRECORD
  5
24C
330
22F
100
AcDbXrecord
280
1
1000
auto
  0
XRECORD
  5
24D
330
22F
100
AcDbXrecord
280
1
1000
auto
  0
XRECORD
  5
24E
330
22F
100
AcDbXrecord
280
1
 90
1
  0
XRECORD
  5
24F
330
22F
100
AcDbXrecord
280
1
 40
10.0
  0
XRECORD
  5
250
330
22F
100
AcDbXrecord
280
1
 40
10.0
  0
XRECORD
  5
251
330
22F
100
AcDbXrecord
280
1
 40
10.0
  0
XRECORD
  5
252
330
22F
100
AcDbXrecord
280
1
 40
10.0
  0
XRECORD
  5
253
330
22F
100
AcDbXrecord
280
1
290
0
  0
XRECORD
  5
254
330
22F
100
AcDbXrecord
280
1
 90
1
  0
XRECORD
  5
255
330
22F
100
AcDbXrecord
280
1
 40
0.0
  0
XRECORD
  5
256
330
22F
100
AcDbXrecord
280
1
 40
0.0
  0
XRECORD
  5
257
330
22F
100
AcDbXrecord
280
1
1000
Portrait
  0
XRECORD
  5
258
330
22F
100
AcDbXrecord
280
1
 40
297.0
  0
XRECORD
  5
259
330
22F
100
AcDbXrecord
280
1
 40
210.0
  0
XRECORD
  5
25A
330
22F
100
AcDbXrecord
280
1
1000
1:1
  0
XRECORD
  5
25B
330
22F
100
AcDbXrecord
280
1
290
1
  0
XRECORD
  5
25C
330
22F
100
AcDbXrecord
280
1
 90
4
  0
ENDSEC
  0
EOF
