  0
SECTION
  2
BLOCKS
  0
ENDSEC
  0
SECTION
  2
ENTITIES
  0
LINE
  8
0
 10
-13.193
 11
-13.192
 20
-32.832
 21
-32.12
  0
LINE
  8
0
 10
-13.192
 11
-11.717
 20
-32.12
 21
-31.081
  0
LINE
  8
0
 10
-11.717
 11
-10.35
 20
-31.081
 21
-30.304
  0
LINE
  8
0
 10
-10.35
 11
-9.129
 20
-30.304
 21
-29.758
  0
LINE
  8
0
 10
-9.129
 11
-8.082
 20
-29.758
 21
-29.406
  0
LINE
  8
0
 10
-8.082
 11
-7.234
 20
-29.406
 21
-29.21
  0
LINE
  8
0
 10
-7.234
 11
-7.169
 20
-29.21
 21
-29.218
  0
LINE
  8
0
 10
-7.169
 11
-6.978
 20
-29.218
 21
-27.95
  0
LINE
  8
0
 10
-6.978
 11
-7.042
 20
-27.95
 21
-27.938
  0
LINE
  8
0
 10
-7.042
 11
-7.795
 20
-27.938
 21
-27.501
  0
LINE
  8
0
 10
-7.795
 11
-8.692
 20
-27.501
 21
-26.856
  0
LINE
  8
0
 10
-8.692
 11
-9.697
 20
-26.856
 21
-25.974
  0
LINE
  8
0
 10
-9.697
 11
-10.774
 20
-25.974
 21
-24.828
  0
LINE
  8
0
 10
-10.774
 11
-11.878
 20
-24.828
 21
-23.401
  0
LINE
  8
0
 10
-11.878
 11
-11.668
 20
-23.401
 21
-22.721
  0
LINE
  8
0
 10
-11.668
 11
-9.952
 20
-22.721
 21
-22.162
  0
LINE
  8
0
 10
-9.952
 11
-8.417
 20
-22.162
 21
-21.823
  0
LINE
  8
0
 10
-8.417
 11
-7.089
 20
-21.823
 21
-21.662
  0
LINE
  8
0
 10
-7.089
 11
-5.985
 20
-21.662
 21
-21.634
  0
LINE
  8
0
 10
-5.985
 11
-5.117
 20
-21.634
 21
-21.696
  0
LINE
  8
0
 10
-5.117
 11
-5.057
 20
-21.696
 21
-21.723
  0
LINE
  8
0
 10
-5.057
 11
-4.501
 20
-21.723
 21
-20.567
  0
LINE
  8
0
 10
-4.501
 11
-4.559
 20
-20.567
 21
-20.537
  0
LINE
  8
0
 10
-4.559
 11
-5.149
 20
-20.537
 21
-19.897
  0
LINE
  8
0
 10
-5.149
 11
-5.816
 20
-19.897
 21
-19.017
  0
LINE
  8
0
 10
-5.816
 11
-6.517
 20
-19.017
 21
-17.878
  0
LINE
  8
0
 10
-6.517
 11
-7.209
 20
-17.878
 21
-16.466
  0
LINE
  8
0
 10
-7.209
 11
-7.842
 20
-16.466
 21
-14.777
  0
LINE
  8
0
 10
-7.842
 11
-7.441
 20
-14.777
 21
-14.188
  0
LINE
  8
0
 10
-7.441
 11
-5.637
 20
-14.188
 21
-14.161
  0
LINE
  8
0
 10
-5.637
 11
-4.07
 20
-14.161
 21
-14.288
  0
LINE
  8
0
 10
-4.07
 11
-2.753
 20
-14.288
 21
-14.526
  0
LINE
  8
0
 10
-2.753
 11
-1.69
 20
-14.526
 21
-14.824
  0
LINE
  8
0
 10
-1.69
 11
-0.879
 20
-14.824
 21
-15.14
  0
LINE
  8
0
 10
-0.879
 11
-0.83
 20
-15.14
 21
-15.183
  0
LINE
  8
0
 10
-0.83
 11
0.043
 20
-15.183
 21
-14.243
  0
LINE
  8
0
 10
0.043
 11
-0.004
 20
-14.243
 21
-14.197
  0
LINE
  8
0
 10
-0.004
 11
-0.38
 20
-14.197
 21
-13.412
  0
LINE
  8
0
 10
-0.38
 11
-0.758
 20
-13.412
 21
-12.374
  0
LINE
  8
0
 10
-0.758
 11
-1.092
 20
-12.374
 21
-11.079
  0
LINE
  8
0
 10
-1.092
 11
-1.336
 20
-11.079
 21
-9.525
  0
LINE
  8
0
 10
-1.336
 11
-1.444
 20
-9.525
 21
-7.725
  0
LINE
  8
0
 10
-1.444
 11
-0.887
 20
-7.725
 21
-7.281
  0
LINE
  8
0
 10
-0.887
 11
0.845
 20
-7.281
 21
-7.786
  0
LINE
  8
0
 10
0.845
 11
2.305
 20
-7.786
 21
-8.37
  0
LINE
  8
0
 10
2.305
 11
3.492
 20
-8.37
 21
-8.985
  0
LINE
  8
0
 10
3.492
 11
4.421
 20
-8.985
 21
-9.583
  0
LINE
  8
0
 10
4.421
 11
5.103
 20
-9.583
 21
-10.124
  0
LINE
  8
0
 10
5.103
 11
5.137
 20
-10.124
 21
-10.179
  0
LINE
  8
0
 10
5.137
 11
6.248
 20
-10.179
 21
-9.539
  0
LINE
  8
0
 10
6.248
 11
6.216
 20
-9.539
 21
-9.481
  0
LINE
  8
0
 10
6.216
 11
6.089
 20
-9.481
 21
-8.62
  0
LINE
  8
0
 10
6.089
 11
6.035
 20
-8.62
 21
-7.517
  0
LINE
  8
0
 10
6.035
 11
6.096
 20
-7.517
 21
-6.181
  0
LINE
  8
0
 10
6.096
 11
6.32
 20
-6.181
 21
-4.625
  0
LINE
  8
0
 10
6.32
 11
6.749
 20
-4.625
 21
-2.872
  0
LINE
  8
0
 10
6.749
 11
7.412
 20
-2.872
 21
-2.612
  0
LINE
  8
0
 10
7.412
 11
8.917
 20
-2.612
 21
-3.605
  0
LINE
  8
0
 10
8.917
 11
10.141
 20
-3.605
 21
-4.594
  0
LINE
  8
0
 10
10.141
 11
11.095
 20
-4.594
 21
-5.531
  0
LINE
  8
0
 10
11.095
 11
11.805
 20
-5.531
 21
-6.377
  0
LINE
  8
0
 10
11.805
 11
12.297
 20
-6.377
 21
-7.095
  0
LINE
  8
0
 10
12.297
 11
12.313
 20
-7.095
 21
-7.159
  0
LINE
  8
0
 10
12.313
 11
13.564
 20
-7.159
 21
-6.873
  0
LINE
  8
0
 10
13.564
 11
13.551
 20
-6.873
 21
-6.809
  0
LINE
  8
0
 10
13.551
 11
13.683
 20
-6.809
 21
-5.948
  0
LINE
  8
0
 10
13.683
 11
13.956
 20
-5.948
 21
-4.879
  0
LINE
  8
0
 10
13.956
 11
14.409
 20
-4.879
 21
-3.619
  0
LINE
  8
0
 10
14.409
 11
15.082
 20
-3.619
 21
-2.199
  0
LINE
  8
0
 10
15.082
 11
16.008
 20
-2.199
 21
-0.65
  0
LINE
  8
0
 10
16.008
 11
16.718
 20
-0.65
 21
-0.597
  0
LINE
  8
0
 10
16.718
 11
17.864
 20
-0.597
 21
-1.99
  0
LINE
  8
0
 10
17.864
 11
18.741
 20
-1.99
 21
-3.295
  0
LINE
  8
0
 10
18.741
 11
19.377
 20
-3.295
 21
-4.472
  0
LINE
  8
0
 10
19.377
 11
19.806
 20
-4.472
 21
-5.489
  0
LINE
  8
0
 10
19.806
 11
20.065
 20
-5.489
 21
-6.32
  0
LINE
  8
0
 10
20.065
 11
20.062
 20
-6.32
 21
-6.385
  0
LINE
  8
0
 10
20.062
 11
21.341
 20
-6.385
 21
-6.481
  0
LINE
  8
0
 10
21.341
 11
21.348
 20
-6.481
 21
-6.417
  0
LINE
  8
0
 10
21.348
 11
21.728
 20
-6.417
 21
-5.634
  0
LINE
  8
0
 10
21.728
 11
22.304
 20
-5.634
 21
-4.692
  0
LINE
  8
0
 10
22.304
 11
23.108
 20
-4.692
 21
-3.622
  0
LINE
  8
0
 10
23.108
 11
24.169
 20
-3.622
 21
-2.462
  0
LINE
  8
0
 10
24.169
 11
25.511
 20
-2.462
 21
-1.256
  0
LINE
  8
0
 10
25.511
 11
26.205
 20
-1.256
 21
-1.414
  0
LINE
  8
0
 10
26.205
 11
26.889
 20
-1.414
 21
-3.083
  0
LINE
  8
0
 10
26.889
 11
27.343
 20
-3.083
 21
-4.589
  0
LINE
  8
0
 10
27.343
 11
27.604
 20
-4.589
 21
-5.901
  0
LINE
  8
0
 10
27.604
 11
27.714
 20
-5.901
 21
-7
  0
LINE
  8
0
 10
27.714
 11
27.716
 20
-7
 21
-7.87
  0
LINE
  8
0
 10
27.716
 11
27.694
 20
-7.87
 21
-7.932
  0
LINE
  8
0
 10
27.694
 11
28.889
 20
-7.932
 21
-8.401
  0
LINE
  8
0
 10
28.889
 11
28.914
 20
-8.401
 21
-8.34
  0
LINE
  8
0
 10
28.914
 11
29.507
 20
-8.34
 21
-7.704
  0
LINE
  8
0
 10
29.507
 11
30.336
 20
-7.704
 21
-6.973
  0
LINE
  8
0
 10
30.336
 11
31.419
 20
-6.973
 21
-6.189
  0
LINE
  8
0
 10
31.419
 11
32.775
 20
-6.189
 21
-5.393
  0
LINE
  8
0
 10
32.775
 11
34.413
 20
-5.393
 21
-4.635
  0
LINE
  8
0
 10
34.413
 11
35.03
 20
-4.635
 21
-4.991
  0
LINE
  8
0
 10
35.03
 11
35.192
 20
-4.991
 21
-6.788
  0
LINE
  8
0
 10
35.192
 11
35.181
 20
-6.788
 21
-8.361
  0
LINE
  8
0
 10
35.181
 11
35.043
 20
-8.361
 21
-9.691
  0
LINE
  8
0
 10
35.043
 11
34.825
 20
-9.691
 21
-10.774
  0
LINE
  8
0
 10
34.825
 11
34.57
 20
-10.774
 21
-11.606
  0
LINE
  8
0
 10
34.57
 11
34.531
 20
-11.606
 21
-11.657
  0
LINE
  8
0
 10
34.531
 11
35.535
 20
-11.657
 21
-12.458
  0
LINE
  8
0
 10
35.535
 11
35.576
 20
-12.458
 21
-12.408
  0
LINE
  8
0
 10
35.576
 11
36.331
 20
-12.408
 21
-11.975
  0
LINE
  8
0
 10
36.331
 11
37.338
 20
-11.975
 21
-11.521
  0
LINE
  8
0
 10
37.338
 11
38.604
 20
-11.521
 21
-11.091
  0
LINE
  8
0
 10
38.604
 11
40.135
 20
-11.091
 21
-10.73
  0
LINE
  8
0
 10
40.135
 11
41.923
 20
-10.73
 21
-10.489
  0
LINE
  8
0
 10
41.923
 11
42.407
 20
-10.489
 21
-11.011
  0
LINE
  8
0
 10
42.407
 11
42.033
 20
-11.011
 21
-12.775
  0
LINE
  8
0
 10
42.033
 11
41.559
 20
-12.775
 21
-14.275
  0
LINE
  8
0
 10
41.559
 11
41.036
 20
-14.275
 21
-15.506
  0
LINE
  8
0
 10
41.036
 11
40.507
 20
-15.506
 21
-16.476
  0
LINE
  8
0
 10
40.507
 11
40.019
 20
-16.476
 21
-17.197
  0
LINE
  8
0
 10
40.019
 11
39.966
 20
-17.197
 21
-17.234
  0
LINE
  8
0
 10
39.966
 11
40.689
 20
-17.234
 21
-18.294
  0
LINE
  8
0
 10
40.689
 11
40.743
 20
-18.294
 21
-18.26
  0
LINE
  8
0
 10
40.743
 11
41.593
 20
-18.26
 21
-18.068
  0
LINE
  8
0
 10
41.593
 11
42.689
 20
-18.068
 21
-17.931
  0
LINE
  8
0
 10
42.689
 11
44.026
 20
-17.931
 21
-17.893
  0
LINE
  8
0
 10
44.026
 11
45.595
 20
-17.893
 21
-18
  0
LINE
  8
0
 10
45.595
 11
47.374
 20
-18
 21
-18.296
  0
LINE
  8
0
 10
47.374
 11
47.683
 20
-18.296
 21
-18.938
  0
LINE
  8
0
 10
47.683
 11
46.806
 20
-18.938
 21
-20.514
  0
LINE
  8
0
 10
46.806
 11
45.911
 20
-20.514
 21
-21.807
  0
LINE
  8
0
 10
45.911
 11
45.048
 20
-21.807
 21
-22.829
  0
LINE
  8
0
 10
45.048
 11
44.257
 20
-22.829
 21
-23.6
  0
LINE
  8
0
 10
44.257
 11
43.578
 20
-23.6
 21
-24.145
  0
LINE
  8
0
 10
43.578
 11
43.517
 20
-24.145
 21
-24.165
  0
LINE
  8
0
 10
43.517
 11
43.895
 20
-24.165
 21
-25.392
  0
LINE
  8
0
 10
43.895
 11
43.957
 20
-25.392
 21
-25.374
  0
LINE
  8
0
 10
43.957
 11
44.825
 20
-25.374
 21
-25.441
  0
LINE
  8
0
 10
44.825
 11
45.913
 20
-25.441
 21
-25.633
  0
LINE
  8
0
 10
45.913
 11
47.202
 20
-25.633
 21
-25.991
  0
LINE
  8
0
 10
47.202
 11
48.669
 20
-25.991
 21
-26.555
  0
LINE
  8
0
 10
48.669
 11
50.282
 20
-26.555
 21
-27.363
  0
LINE
  8
0
 10
50.282
 11
50.388
 20
-27.363
 21
-28.067
  0
LINE
  8
0
 10
50.388
 11
49.084
 20
-28.067
 21
-29.314
  0
LINE
  8
0
 10
49.084
 11
47.849
 20
-29.314
 21
-30.286
  0
LINE
  8
0
 10
47.849
 11
46.723
 20
-30.286
 21
-31.008
  0
LINE
  8
0
 10
46.723
 11
45.74
 20
-31.008
 21
-31.513
  0
LINE
  8
0
 10
45.74
 11
44.931
 20
-31.513
 21
-31.832
  0
LINE
  8
0
 10
44.931
 11
44.866
 20
-31.832
 21
-31.834
  0
LINE
  8
0
 10
44.866
 11
44.865
 20
-31.834
 21
-33.117
  0
LINE
  8
0
 10
44.865
 11
44.93
 20
-33.117
 21
-33.119
  0
LINE
  8
0
 10
44.93
 11
45.74
 20
-33.119
 21
-33.439
  0
LINE
  8
0
 10
45.74
 11
46.722
 20
-33.439
 21
-33.943
  0
LINE
  8
0
 10
46.722
 11
47.849
 20
-33.943
 21
-34.665
  0
LINE
  8
0
 10
47.849
 11
49.085
 20
-34.665
 21
-35.637
  0
LINE
  8
0
 10
49.085
 11
50.388
 20
-35.637
 21
-36.885
  0
LINE
  8
0
 10
50.388
 11
50.282
 20
-36.885
 21
-37.589
  0
LINE
  8
0
 10
50.282
 11
48.669
 20
-37.589
 21
-38.397
  0
LINE
  8
0
 10
48.669
 11
47.201
 20
-38.397
 21
-38.961
  0
LINE
  8
0
 10
47.201
 11
45.912
 20
-38.961
 21
-39.319
  0
LINE
  8
0
 10
45.912
 11
44.825
 20
-39.319
 21
-39.511
  0
LINE
  8
0
 10
44.825
 11
43.957
 20
-39.511
 21
-39.578
  0
LINE
  8
0
 10
43.957
 11
43.895
 20
-39.578
 21
-39.561
  0
LINE
  8
0
 10
43.895
 11
43.516
 20
-39.561
 21
-40.786
  0
LINE
  8
0
 10
43.516
 11
43.578
 20
-40.786
 21
-40.807
  0
LINE
  8
0
 10
43.578
 11
44.257
 20
-40.807
 21
-41.352
  0
LINE
  8
0
 10
44.257
 11
45.048
 20
-41.352
 21
-42.123
  0
LINE
  8
0
 10
45.048
 11
45.91
 20
-42.123
 21
-43.145
  0
LINE
  8
0
 10
45.91
 11
46.805
 20
-43.145
 21
-44.438
  0
LINE
  8
0
 10
46.805
 11
47.683
 20
-44.438
 21
-46.014
  0
LINE
  8
0
 10
47.683
 11
47.374
 20
-46.014
 21
-46.656
  0
LINE
  8
0
 10
47.374
 11
45.595
 20
-46.656
 21
-46.952
  0
LINE
  8
0
 10
45.595
 11
44.026
 20
-46.952
 21
-47.059
  0
LINE
  8
0
 10
44.026
 11
42.689
 20
-47.059
 21
-47.021
  0
LINE
  8
0
 10
42.689
 11
41.592
 20
-47.021
 21
-46.884
  0
LINE
  8
0
 10
41.592
 11
40.744
 20
-46.884
 21
-46.693
  0
LINE
  8
0
 10
40.744
 11
40.689
 20
-46.693
 21
-46.657
  0
LINE
  8
0
 10
40.689
 11
39.966
 20
-46.657
 21
-47.717
  0
LINE
  8
0
 10
39.966
 11
40.019
 20
-47.717
 21
-47.755
  0
LINE
  8
0
 10
40.019
 11
40.507
 20
-47.755
 21
-48.476
  0
LINE
  8
0
 10
40.507
 11
41.036
 20
-48.476
 21
-49.446
  0
LINE
  8
0
 10
41.036
 11
41.559
 20
-49.446
 21
-50.677
  0
LINE
  8
0
 10
41.559
 11
42.032
 20
-50.677
 21
-52.176
  0
LINE
  8
0
 10
42.032
 11
42.407
 20
-52.176
 21
-53.941
  0
LINE
  8
0
 10
42.407
 11
41.923
 20
-53.941
 21
-54.463
  0
LINE
  8
0
 10
41.923
 11
40.135
 20
-54.463
 21
-54.222
  0
LINE
  8
0
 10
40.135
 11
38.604
 20
-54.222
 21
-53.861
  0
LINE
  8
0
 10
38.604
 11
37.338
 20
-53.861
 21
-53.431
  0
LINE
  8
0
 10
37.338
 11
36.331
 20
-53.431
 21
-52.977
  0
LINE
  8
0
 10
36.331
 11
35.576
 20
-52.977
 21
-52.543
  0
LINE
  8
0
 10
35.576
 11
35.534
 20
-52.543
 21
-52.494
  0
LINE
  8
0
 10
35.534
 11
34.532
 20
-52.494
 21
-53.294
  0
LINE
  8
0
 10
34.532
 11
34.57
 20
-53.294
 21
-53.346
  0
LINE
  8
0
 10
34.57
 11
34.825
 20
-53.346
 21
-54.178
  0
LINE
  8
0
 10
34.825
 11
35.043
 20
-54.178
 21
-55.261
  0
LINE
  8
0
 10
35.043
 11
35.181
 20
-55.261
 21
-56.591
  0
LINE
  8
0
 10
35.181
 11
35.192
 20
-56.591
 21
-58.164
  0
LINE
  8
0
 10
35.192
 11
35.029
 20
-58.164
 21
-59.961
  0
LINE
  8
0
 10
35.029
 11
34.413
 20
-59.961
 21
-60.317
  0
LINE
  8
0
 10
34.413
 11
32.775
 20
-60.317
 21
-59.559
  0
LINE
  8
0
 10
32.775
 11
31.419
 20
-59.559
 21
-58.763
  0
LINE
  8
0
 10
31.419
 11
30.336
 20
-58.763
 21
-57.979
  0
LINE
  8
0
 10
30.336
 11
29.507
 20
-57.979
 21
-57.248
  0
LINE
  8
0
 10
29.507
 11
28.914
 20
-57.248
 21
-56.612
  0
LINE
  8
0
 10
28.914
 11
28.888
 20
-56.612
 21
-56.551
  0
LINE
  8
0
 10
28.888
 11
27.694
 20
-56.551
 21
-57.021
  0
LINE
  8
0
 10
27.694
 11
27.716
 20
-57.021
 21
-57.081
  0
LINE
  8
0
 10
27.716
 11
27.714
 20
-57.081
 21
-57.952
  0
LINE
  8
0
 10
27.714
 11
27.604
 20
-57.952
 21
-59.051
  0
LINE
  8
0
 10
27.604
 11
27.343
 20
-59.051
 21
-60.363
  0
LINE
  8
0
 10
27.343
 11
26.89
 20
-60.363
 21
-61.869
  0
LINE
  8
0
 10
26.89
 11
26.205
 20
-61.869
 21
-63.538
  0
LINE
  8
0
 10
26.205
 11
25.511
 20
-63.538
 21
-63.696
  0
LINE
  8
0
 10
25.511
 11
24.17
 20
-63.696
 21
-62.489
  0
LINE
  8
0
 10
24.17
 11
23.108
 20
-62.489
 21
-61.33
  0
LINE
  8
0
 10
23.108
 11
22.303
 20
-61.33
 21
-60.261
  0
LINE
  8
0
 10
22.303
 11
21.728
 20
-60.261
 21
-59.318
  0
LINE
  8
0
 10
21.728
 11
21.348
 20
-59.318
 21
-58.535
  0
LINE
  8
0
 10
21.348
 11
21.341
 20
-58.535
 21
-58.47
  0
LINE
  8
0
 10
21.341
 11
20.062
 20
-58.47
 21
-58.566
  0
LINE
  8
0
 10
20.062
 11
20.065
 20
-58.566
 21
-58.632
  0
LINE
  8
0
 10
20.065
 11
19.807
 20
-58.632
 21
-59.462
  0
LINE
  8
0
 10
19.807
 11
19.377
 20
-59.462
 21
-60.48
  0
LINE
  8
0
 10
19.377
 11
18.741
 20
-60.48
 21
-61.657
  0
LINE
  8
0
 10
18.741
 11
17.864
 20
-61.657
 21
-62.962
  0
LINE
  8
0
 10
17.864
 11
16.718
 20
-62.962
 21
-64.355
  0
LINE
  8
0
 10
16.718
 11
16.008
 20
-64.355
 21
-64.302
  0
LINE
  8
0
 10
16.008
 11
15.082
 20
-64.302
 21
-62.753
  0
LINE
  8
0
 10
15.082
 11
14.41
 20
-62.753
 21
-61.332
  0
LINE
  8
0
 10
14.41
 11
13.956
 20
-61.332
 21
-60.074
  0
LINE
  8
0
 10
13.956
 11
13.683
 20
-60.074
 21
-59.004
  0
LINE
  8
0
 10
13.683
 11
13.551
 20
-59.004
 21
-58.143
  0
LINE
  8
0
 10
13.551
 11
13.564
 20
-58.143
 21
-58.079
  0
LINE
  8
0
 10
13.564
 11
12.313
 20
-58.079
 21
-57.793
  0
LINE
  8
0
 10
12.313
 11
12.297
 20
-57.793
 21
-57.857
  0
LINE
  8
0
 10
12.297
 11
11.805
 20
-57.857
 21
-58.575
  0
LINE
  8
0
 10
11.805
 11
11.095
 20
-58.575
 21
-59.421
  0
LINE
  8
0
 10
11.095
 11
10.141
 20
-59.421
 21
-60.358
  0
LINE
  8
0
 10
10.141
 11
8.918
 20
-60.358
 21
-61.347
  0
LINE
  8
0
 10
8.918
 11
7.412
 20
-61.347
 21
-62.34
  0
LINE
  8
0
 10
7.412
 11
6.749
 20
-62.34
 21
-62.08
  0
LINE
  8
0
 10
6.749
 11
6.32
 20
-62.08
 21
-60.327
  0
LINE
  8
0
 10
6.32
 11
6.096
 20
-60.327
 21
-58.771
  0
LINE
  8
0
 10
6.096
 11
6.035
 20
-58.771
 21
-57.434
  0
LINE
  8
0
 10
6.035
 11
6.089
 20
-57.434
 21
-56.331
  0
LINE
  8
0
 10
6.089
 11
6.217
 20
-56.331
 21
-55.47
  0
LINE
  8
0
 10
6.217
 11
6.248
 20
-55.47
 21
-55.413
  0
LINE
  8
0
 10
6.248
 11
5.136
 20
-55.413
 21
-54.772
  0
LINE
  8
0
 10
5.136
 11
5.102
 20
-54.772
 21
-54.827
  0
LINE
  8
0
 10
5.102
 11
4.421
 20
-54.827
 21
-55.369
  0
LINE
  8
0
 10
4.421
 11
3.492
 20
-55.369
 21
-55.967
  0
LINE
  8
0
 10
3.492
 11
2.304
 20
-55.967
 21
-56.581
  0
LINE
  8
0
 10
2.304
 11
0.845
 20
-56.581
 21
-57.165
  0
LINE
  8
0
 10
0.845
 11
-0.887
 20
-57.165
 21
-57.671
  0
LINE
  8
0
 10
-0.887
 11
-1.444
 20
-57.671
 21
-57.227
  0
LINE
  8
0
 10
-1.444
 11
-1.337
 20
-57.227
 21
-55.426
  0
LINE
  8
0
 10
-1.337
 11
-1.092
 20
-55.426
 21
-53.873
  0
LINE
  8
0
 10
-1.092
 11
-0.758
 20
-53.873
 21
-52.578
  0
LINE
  8
0
 10
-0.758
 11
-0.38
 20
-52.578
 21
-51.54
  0
LINE
  8
0
 10
-0.38
 11
-0.004
 20
-51.54
 21
-50.755
  0
LINE
  8
0
 10
-0.004
 11
0.042
 20
-50.755
 21
-50.71
  0
LINE
  8
0
 10
0.042
 11
-0.831
 20
-50.71
 21
-49.769
  0
LINE
  8
0
 10
-0.831
 11
-0.879
 20
-49.769
 21
-49.812
  0
LINE
  8
0
 10
-0.879
 11
-1.69
 20
-49.812
 21
-50.128
  0
LINE
  8
0
 10
-1.69
 11
-2.754
 20
-50.128
 21
-50.427
  0
LINE
  8
0
 10
-2.754
 11
-4.07
 20
-50.427
 21
-50.663
  0
LINE
  8
0
 10
-4.07
 11
-5.638
 20
-50.663
 21
-50.792
  0
LINE
  8
0
 10
-5.638
 11
-7.441
 20
-50.792
 21
-50.764
  0
LINE
  8
0
 10
-7.441
 11
-7.842
 20
-50.764
 21
-50.175
  0
LINE
  8
0
 10
-7.842
 11
-7.209
 20
-50.175
 21
-48.486
  0
LINE
  8
0
 10
-7.209
 11
-6.517
 20
-48.486
 21
-47.074
  0
LINE
  8
0
 10
-6.517
 11
-5.816
 20
-47.074
 21
-45.935
  0
LINE
  8
0
 10
-5.816
 11
-5.149
 20
-45.935
 21
-45.054
  0
LINE
  8
0
 10
-5.149
 11
-4.558
 20
-45.054
 21
-44.415
  0
LINE
  8
0
 10
-4.558
 11
-4.501
 20
-44.415
 21
-44.385
  0
LINE
  8
0
 10
-4.501
 11
-5.057
 20
-44.385
 21
-43.228
  0
LINE
  8
0
 10
-5.057
 11
-5.117
 20
-43.228
 21
-43.256
  0
LINE
  8
0
 10
-5.117
 11
-5.985
 20
-43.256
 21
-43.318
  0
LINE
  8
0
 10
-5.985
 11
-7.09
 20
-43.318
 21
-43.291
  0
LINE
  8
0
 10
-7.09
 11
-8.417
 20
-43.291
 21
-43.129
  0
LINE
  8
0
 10
-8.417
 11
-9.953
 20
-43.129
 21
-42.789
  0
LINE
  8
0
 10
-9.953
 11
-11.668
 20
-42.789
 21
-42.231
  0
LINE
  8
0
 10
-11.668
 11
-11.878
 20
-42.231
 21
-41.551
  0
LINE
  8
0
 10
-11.878
 11
-10.775
 20
-41.551
 21
-40.123
  0
LINE
  8
0
 10
-10.775
 11
-9.697
 20
-40.123
 21
-38.978
  0
LINE
  8
0
 10
-9.697
 11
-8.692
 20
-38.978
 21
-38.096
  0
LINE
  8
0
 10
-8.692
 11
-7.795
 20
-38.096
 21
-37.451
  0
LINE
  8
0
 10
-7.795
 11
-7.042
 20
-37.451
 21
-37.014
  0
LINE
  8
0
 10
-7.042
 11
-6.979
 20
-37.014
 21
-37.003
  0
LINE
  8
0
 10
-6.979
 11
-7.17
 20
-37.003
 21
-35.733
  0
LINE
  8
0
 10
-7.17
 11
-7.234
 20
-35.733
 21
-35.742
  0
LINE
  8
0
 10
-7.234
 11
-8.082
 20
-35.742
 21
-35.546
  0
LINE
  8
0
 10
-8.082
 11
-9.129
 20
-35.546
 21
-35.194
  0
LINE
  8
0
 10
-9.129
 11
-10.35
 20
-35.194
 21
-34.648
  0
LINE
  8
0
 10
-10.35
 11
-11.717
 20
-34.648
 21
-33.871
  0
LINE
  8
0
 10
-11.717
 11
-13.193
 20
-33.871
 21
-32.832
  0
LINE
  8
0
 10
-11.111
 11
-11.111
 20
-0.03
 21
0.03
  0
LINE
  8
0
 10
-11.111
 11
-9.785
 20
0.03
 21
1.278
  0
LINE
  8
0
 10
-9.785
 11
-8.555
 20
1.278
 21
1.979
  0
LINE
  8
0
 10
-8.555
 11
-7.583
 20
1.979
 21
2.261
  0
LINE
  8
0
 10
-7.583
 11
-6.977
 20
2.261
 21
2.291
  0
LINE
  8
0
 10
-6.977
 11
-6.777
 20
2.291
 21
2.258
  0
LINE
  8
0
 10
-6.777
 11
-5.01
 20
2.258
 21
1.669
  0
LINE
  8
0
 10
-5.01
 11
-3.95
 20
1.669
 21
3.504
  0
LINE
  8
0
 10
-3.95
 11
-5.344
 20
3.504
 21
4.74
  0
LINE
  8
0
 10
-5.344
 11
-5.473
 20
4.74
 21
4.897
  0
LINE
  8
0
 10
-5.473
 11
-5.75
 20
4.897
 21
5.437
  0
LINE
  8
0
 10
-5.75
 11
-5.991
 20
5.437
 21
6.419
  0
LINE
  8
0
 10
-5.991
 11
-5.999
 20
6.419
 21
7.835
  0
LINE
  8
0
 10
-5.999
 11
-5.581
 20
7.835
 21
9.607
  0
LINE
  8
0
 10
-5.581
 11
-5.53
 20
9.607
 21
9.637
  0
LINE
  8
0
 10
-5.53
 11
-3.786
 20
9.637
 21
9.113
  0
LINE
  8
0
 10
-3.786
 11
-2.564
 20
9.113
 21
8.398
  0
LINE
  8
0
 10
-2.564
 11
-1.833
 20
8.398
 21
7.698
  0
LINE
  8
0
 10
-1.833
 11
-1.504
 20
7.698
 21
7.188
  0
LINE
  8
0
 10
-1.504
 11
-1.433
 20
7.188
 21
6.998
  0
LINE
  8
0
 10
-1.433
 11
-1.059
 20
6.998
 21
5.173
  0
LINE
  8
0
 10
-1.059
 11
1.059
 20
5.173
 21
5.173
  0
LINE
  8
0
 10
1.059
 11
1.433
 20
5.173
 21
6.998
  0
LINE
  8
0
 10
1.433
 11
1.504
 20
6.998
 21
7.188
  0
LINE
  8
0
 10
1.504
 11
1.833
 20
7.188
 21
7.698
  0
LINE
  8
0
 10
1.833
 11
2.564
 20
7.698
 21
8.398
  0
LINE
  8
0
 10
2.564
 11
3.786
 20
8.398
 21
9.113
  0
LINE
  8
0
 10
3.786
 11
5.53
 20
9.113
 21
9.637
  0
LINE
  8
0
 10
5.53
 11
5.581
 20
9.637
 21
9.607
  0
LINE
  8
0
 10
5.581
 11
5.999
 20
9.607
 21
7.835
  0
LINE
  8
0
 10
5.999
 11
5.991
 20
7.835
 21
6.419
  0
LINE
  8
0
 10
5.991
 11
5.75
 20
6.419
 21
5.437
  0
LINE
  8
0
 10
5.75
 11
5.473
 20
5.437
 21
4.897
  0
LINE
  8
0
 10
5.473
 11
5.344
 20
4.897
 21
4.74
  0
LINE
  8
0
 10
5.344
 11
3.95
 20
4.74
 21
3.504
  0
LINE
  8
0
 10
3.95
 11
5.01
 20
3.504
 21
1.669
  0
LINE
  8
0
 10
5.01
 11
6.777
 20
1.669
 21
2.258
  0
LINE
  8
0
 10
6.777
 11
6.977
 20
2.258
 21
2.291
  0
LINE
  8
0
 10
6.977
 11
7.583
 20
2.291
 21
2.261
  0
LINE
  8
0
 10
7.583
 11
8.555
 20
2.261
 21
1.979
  0
LINE
  8
0
 10
8.555
 11
9.785
 20
1.979
 21
1.278
  0
LINE
  8
0
 10
9.785
 11
11.111
 20
1.278
 21
0.03
  0
LINE
  8
0
 10
11.111
 11
11.111
 20
0.03
 21
-0.03
  0
LINE
  8
0
 10
11.111
 11
9.785
 20
-0.03
 21
-1.278
  0
LINE
  8
0
 10
9.785
 11
8.555
 20
-1.278
 21
-1.979
  0
LINE
  8
0
 10
8.555
 11
7.583
 20
-1.979
 21
-2.261
  0
LINE
  8
0
 10
7.583
 11
6.977
 20
-2.261
 21
-2.291
  0
LINE
  8
0
 10
6.977
 11
6.777
 20
-2.291
 21
-2.258
  0
LINE
  8
0
 10
6.777
 11
5.01
 20
-2.258
 21
-1.669
  0
LINE
  8
0
 10
5.01
 11
3.95
 20
-1.669
 21
-3.504
  0
LINE
  8
0
 10
3.95
 11
5.344
 20
-3.504
 21
-4.74
  0
LINE
  8
0
 10
5.344
 11
5.473
 20
-4.74
 21
-4.897
  0
LINE
  8
0
 10
5.473
 11
5.75
 20
-4.897
 21
-5.437
  0
LINE
  8
0
 10
5.75
 11
5.991
 20
-5.437
 21
-6.419
  0
LINE
  8
0
 10
5.991
 11
5.999
 20
-6.419
 21
-7.835
  0
LINE
  8
0
 10
5.999
 11
5.581
 20
-7.835
 21
-9.607
  0
LINE
  8
0
 10
5.581
 11
5.53
 20
-9.607
 21
-9.637
  0
LINE
  8
0
 10
5.53
 11
3.786
 20
-9.637
 21
-9.113
  0
LINE
  8
0
 10
3.786
 11
2.564
 20
-9.113
 21
-8.398
  0
LINE
  8
0
 10
2.564
 11
1.833
 20
-8.398
 21
-7.698
  0
LINE
  8
0
 10
1.833
 11
1.504
 20
-7.698
 21
-7.188
  0
LINE
  8
0
 10
1.504
 11
1.433
 20
-7.188
 21
-6.998
  0
LINE
  8
0
 10
1.433
 11
1.059
 20
-6.998
 21
-5.173
  0
LINE
  8
0
 10
1.059
 11
-1.059
 20
-5.173
 21
-5.173
  0
LINE
  8
0
 10
-1.059
 11
-1.433
 20
-5.173
 21
-6.998
  0
LINE
  8
0
 10
-1.433
 11
-1.504
 20
-6.998
 21
-7.188
  0
LINE
  8
0
 10
-1.504
 11
-1.833
 20
-7.188
 21
-7.698
  0
LINE
  8
0
 10
-1.833
 11
-2.564
 20
-7.698
 21
-8.398
  0
LINE
  8
0
 10
-2.564
 11
-3.786
 20
-8.398
 21
-9.113
  0
LINE
  8
0
 10
-3.786
 11
-5.53
 20
-9.113
 21
-9.637
  0
LINE
  8
0
 10
-5.53
 11
-5.581
 20
-9.637
 21
-9.607
  0
LINE
  8
0
 10
-5.581
 11
-5.999
 20
-9.607
 21
-7.835
  0
LINE
  8
0
 10
-5.999
 11
-5.991
 20
-7.835
 21
-6.419
  0
LINE
  8
0
 10
-5.991
 11
-5.75
 20
-6.419
 21
-5.437
  0
LINE
  8
0
 10
-5.75
 11
-5.473
 20
-5.437
 21
-4.897
  0
LINE
  8
0
 10
-5.473
 11
-5.344
 20
-4.897
 21
-4.74
  0
LINE
  8
0
 10
-5.344
 11
-3.95
 20
-4.74
 21
-3.504
  0
LINE
  8
0
 10
-3.95
 11
-5.01
 20
-3.504
 21
-1.669
  0
LINE
  8
0
 10
-5.01
 11
-6.777
 20
-1.669
 21
-2.258
  0
LINE
  8
0
 10
-6.777
 11
-6.977
 20
-2.258
 21
-2.291
  0
LINE
  8
0
 10
-6.977
 11
-7.583
 20
-2.291
 21
-2.261
  0
LINE
  8
0
 10
-7.583
 11
-8.555
 20
-2.261
 21
-1.979
  0
LINE
  8
0
 10
-8.555
 11
-9.785
 20
-1.979
 21
-1.278
  0
LINE
  8
0
 10
-9.785
 11
-11.111
 20
-1.278
 21
-0.03
  0
LINE
  8
0
 10
-2.5
 11
-1.768
 20
0
 21
1.768
  0
LINE
  8
0
 10
-1.768
 11
0
 20
1.768
 21
2.5
  0
LINE
  8
0
 10
0
 11
1.768
 20
2.5
 21
1.768
  0
LINE
  8
0
 10
1.768
 11
2.5
 20
1.768
 21
0
  0
LINE
  8
0
 10
2.5
 11
1.768
 20
0
 21
-1.768
  0
LINE
  8
0
 10
1.768
 11
0
 20
-1.768
 21
-2.5
  0
LINE
  8
0
 10
0
 11
-1.768
 20
-2.5
 21
-1.768
  0
LINE
  8
0
 10
-1.768
 11
-2.5
 20
-1.768
 21
0
  0
LINE
  8
0
 10
17.836
 11
18.855
 20
-32.069
 21
-31.481
  0
LINE
  8
0
 10
18.855
 11
19.728
 20
-31.481
 21
-32.268
  0
LINE
  8
0
 10
19.728
 11
19.25
 20
-32.268
 21
-33.342
  0
LINE
  8
0
 10
19.25
 11
18.081
 20
-33.342
 21
-33.219
  0
LINE
  8
0
 10
18.081
 11
17.836
 20
-33.219
 21
-32.069
  0
ENDSEC
  0
SECTION
  2
OBJECTS
  0
DICTIONARY
  0
ENDSEC
  0
EOF
