999
dxflib 3.3.4.0
  0
SECTION
  2
HEADER
  9
$ACADVER
  1
AC1015
  9
$HANDSEED
  5
FFFF
  9
$DIMADEC
 70
0
  9
$DIMASZ
 40
0.18
  9
$DIMAUNIT
 70
0
  9
$DIMAZIN
 70
0
  9
$DIMDEC
 70
4
  9
$DIMEXE
 40
0.18
  9
$DIMEXO
 40
0.0625
  9
$DIMGAP
 40
0.09
  9
$DIMLUNIT
 70
2
  9
$DIMTSZ
 40
0.0
  9
$DIMTXT
 40
0.18
  9
$DIMZIN
 70
0
  9
$DWGCODEPAGE
  3
ANSI_1252
  9
$INSUNITS
 70
0
  9
$LTSCALE
 40
1.0
  0
ENDSEC
  0
SECTION
  2
TABLES
  0
TABLE
  2
VPORT
  5
8
100
AcDbSymbolTable
 70
1
  0
VPORT
  5
30
100
AcDbSymbolTableRecord
100
AcDbViewportTableRecord
  2
*Active
 70
0
 10
0.0
 20
0.0
 11
1.0
 21
1.0
 12
286.3055555555554861
 22
148.5
 13
0.0
 23
0.0
 14
10.0
 24
10.0
 15
10.0
 25
10.0
 16
0.0
 26
0.0
 36
1.0
 17
0.0
 27
0.0
 37
0.0
 40
297.0
 41
1.92798353909465
 42
50.0
 43
0.0
 44
0.0
 50
0.0
 51
0.0
 71
0
 72
100
 73
1
 74
3
 75
1
 76
1
 77
0
 78
0
281
0
 65
1
110
0.0
120
0.0
130
0.0
111
1.0
121
0.0
131
0.0
112
0.0
122
1.0
132
0.0
 79
0
146
0.0
  0
ENDTAB
  0
TABLE
  2
LTYPE
  5
5
100
AcDbSymbolTable
 70
21
  0
LTYPE
  5
16
100
AcDbSymbolTableRecord
100
AcDbLinetypeTableRecord
  2
CONTINUOUS
 70
0
  3
Solid line
 72
65
 73
0
 40
0.0
  0
LTYPE
  5
31
100
AcDbSymbolTableRecord
100
AcDbLinetypeTableRecord
  2
CENTER2
 70
0
  3
Center (.5x) ___ _ ___ _ ___ _ ___ _ ___ _ ___
 72
65
 73
4
 40
28.5749999999999993
 49
19.0500000000000007
 74
0
 49
-3.1749999999999998
 74
0
 49
3.1749999999999998
 74
0
 49
-3.1749999999999998
 74
0
  0
LTYPE
  5
32
100
AcDbSymbolTableRecord
100
AcDbLinetypeTableRecord
  2
DIVIDEX2
 70
0
  3
Divide (2x) ________  .  .  ________  .  .  _
 72
65
 73
6
 40
63.5
 49
25.3999999999999986
 74
0
 49
-12.6999999999999993
 74
0
 49
0.0
 74
0
 49
-12.6999999999999993
 74
0
 49
0.0
 74
0
 49
-12.6999999999999993
 74
0
  0
LTYPE
  5
33
100
AcDbSymbolTableRecord
100
AcDbLinetypeTableRecord
  2
DOT2
 70
0
  3
Dot (.5x) .....................................
 72
65
 73
2
 40
3.1749999999999998
 49
0.0
 74
0
 49
-3.1749999999999998
 74
0
  0
LTYPE
  5
34
100
AcDbSymbolTableRecord
100
AcDbLinetypeTableRecord
  2
DASHDOT2
 70
0
  3
Dash dot (.5x) _._._._._._._._._._._._._._._.
 72
65
 73
4
 40
12.6999999999999993
 49
6.3499999999999996
 74
0
 49
-3.1749999999999998
 74
0
 49
0.0
 74
0
 49
-3.1749999999999998
 74
0
  0
LTYPE
  5
35
100
AcDbSymbolTableRecord
100
AcDbLinetypeTableRecord
  2
DIVIDE
 70
0
  3
Divide ____ . . ____ . . ____ . . ____ . . ____
 72
65
 73
6
 40
31.75
 49
12.6999999999999993
 74
0
 49
-6.3499999999999996
 74
0
 49
0.0
 74
0
 49
-6.3499999999999996
 74
0
 49
0.0
 74
0
 49
-6.3499999999999996
 74
0
  0
LTYPE
  5
36
100
AcDbSymbolTableRecord
100
AcDbLinetypeTableRecord
  2
DASHDOT
 70
0
  3
Dash dot __ . __ . __ . __ . __ . __ . __ . __
 72
65
 73
4
 40
25.3999999999999986
 49
12.6999999999999993
 74
0
 49
-6.3499999999999996
 74
0
 49
0.0
 74
0
 49
-6.3499999999999996
 74
0
  0
LTYPE
  5
37
100
AcDbSymbolTableRecord
100
AcDbLinetypeTableRecord
  2
BORDER
 70
0
  3
Border __ __ . __ __ . __ __ . __ __ . __ __ .
 72
65
 73
6
 40
44.4500000000000028
 49
12.6999999999999993
 74
0
 49
-6.3499999999999996
 74
0
 49
12.6999999999999993
 74
0
 49
-6.3499999999999996
 74
0
 49
0.0
 74
0
 49
-6.3499999999999996
 74
0
  0
LTYPE
  5
38
100
AcDbSymbolTableRecord
100
AcDbLinetypeTableRecord
  2
DASHDOTX2
 70
0
  3
Dash dot (2x) ____  .  ____  .  ____  .  ___
 72
65
 73
4
 40
50.7999999999999972
 49
25.3999999999999986
 74
0
 49
-12.6999999999999993
 74
0
 49
0.0
 74
0
 49
-12.6999999999999993
 74
0
  0
LTYPE
  5
39
100
AcDbSymbolTableRecord
100
AcDbLinetypeTableRecord
  2
CENTERX2
 70
0
  3
Center (2x) ________  __  ________  __  _____
 72
65
 73
4
 40
101.5999999999999943
 49
63.5
 74
0
 49
-12.6999999999999993
 74
0
 49
12.6999999999999993
 74
0
 49
-12.6999999999999993
 74
0
  0
LTYPE
  5
3A
100
AcDbSymbolTableRecord
100
AcDbLinetypeTableRecord
  2
BORDER2
 70
0
  3
Border (.5x) __.__.__.__.__.__.__.__.__.__.__.
 72
65
 73
6
 40
22.2250000000000014
 49
6.3499999999999996
 74
0
 49
-3.1749999999999998
 74
0
 49
6.3499999999999996
 74
0
 49
-3.1749999999999998
 74
0
 49
0.0
 74
0
 49
-3.1749999999999998
 74
0
  0
LTYPE
  5
3B
100
AcDbSymbolTableRecord
100
AcDbLinetypeTableRecord
  2
BORDERX2
 70
0
  3
Border (2x) ____  ____  .  ____  ____  .  ___
 72
65
 73
6
 40
88.9000000000000057
 49
25.3999999999999986
 74
0
 49
-12.6999999999999993
 74
0
 49
25.3999999999999986
 74
0
 49
-12.6999999999999993
 74
0
 49
0.0
 74
0
 49
-12.6999999999999993
 74
0
  0
LTYPE
  5
14
100
AcDbSymbolTableRecord
100
AcDbLinetypeTableRecord
  2
BYBLOCK
 70
0
  3

 72
65
 73
0
 40
0.0
  0
LTYPE
  5
15
100
AcDbSymbolTableRecord
100
AcDbLinetypeTableRecord
  2
BYLAYER
 70
0
  3

 72
65
 73
0
 40
0.0
  0
LTYPE
  5
3C
100
AcDbSymbolTableRecord
100
AcDbLinetypeTableRecord
  2
DASHED2
 70
0
  3
Dashed (.5x) _ _ _ _ _ _ _ _ _ _ _ _ _ _ _ _ _
 72
65
 73
2
 40
9.5250000000000004
 49
6.3499999999999996
 74
0
 49
-3.1749999999999998
 74
0
  0
LTYPE
  5
3D
100
AcDbSymbolTableRecord
100
AcDbLinetypeTableRecord
  2
CENTER
 70
0
  3
Center ____ _ ____ _ ____ _ ____ _ ____ _ ____
 72
65
 73
4
 40
50.7999999999999972
 49
31.75
 74
0
 49
-6.3499999999999996
 74
0
 49
6.3499999999999996
 74
0
 49
-6.3499999999999996
 74
0
  0
LTYPE
  5
3E
100
AcDbSymbolTableRecord
100
AcDbLinetypeTableRecord
  2
DIVIDE2
 70
0
  3
Divide (.5x) __..__..__..__..__..__..__..__.._
 72
65
 73
6
 40
15.875
 49
6.3499999999999996
 74
0
 49
-3.1749999999999998
 74
0
 49
0.0
 74
0
 49
-3.1749999999999998
 74
0
 49
0.0
 74
0
 49
-3.1749999999999998
 74
0
  0
LTYPE
  5
3F
100
AcDbSymbolTableRecord
100
AcDbLinetypeTableRecord
  2
DASHED
 70
0
  3
Dashed __ __ __ __ __ __ __ __ __ __ __ __ __ _
 72
65
 73
2
 40
19.0500000000000007
 49
12.6999999999999993
 74
0
 49
-6.3499999999999996
 74
0
  0
LTYPE
  5
40
100
AcDbSymbolTableRecord
100
AcDbLinetypeTableRecord
  2
DOTX2
 70
0
  3
Dot (2x) .  .  .  .  .  .  .  .  .  .  .  .  .
 72
65
 73
2
 40
12.6999999999999993
 49
0.0
 74
0
 49
-12.6999999999999993
 74
0
  0
LTYPE
  5
41
100
AcDbSymbolTableRecord
100
AcDbLinetypeTableRecord
  2
DASHEDX2
 70
0
  3
Dashed (2x) ____  ____  ____  ____  ____  ___
 72
65
 73
2
 40
38.1000000000000014
 49
25.3999999999999986
 74
0
 49
-12.6999999999999993
 74
0
  0
LTYPE
  5
42
100
AcDbSymbolTableRecord
100
AcDbLinetypeTableRecord
  2
DOT
 70
0
  3
Dot . . . . . . . . . . . . . . . . . . . . . .
 72
65
 73
2
 40
6.3499999999999996
 49
0.0
 74
0
 49
-6.3499999999999996
 74
0
  0
ENDTAB
  0
TABLE
  2
LAYER
  5
2
100
AcDbSymbolTable
 70
1
  0
LAYER
  5
10
100
AcDbSymbolTableRecord
100
AcDbLayerTableRecord
  2
0
 70
0
 62
7
420
16777215
  6
CONTINUOUS
370
25
390
F
  0
ENDTAB
  0
TABLE
  2
STYLE
  5
3
100
AcDbSymbolTable
 70
1
  0
STYLE
  5
43
100
AcDbSymbolTableRecord
100
AcDbTextStyleTableRecord
  2
Standard
 70
0
 40
0.0
 41
1.0
 50
0.0
 71
0
 42
2.5
  3

  4

1001
ACAD
1000
txt
1071
0
  0
ENDTAB
  0
TABLE
  2
VIEW
  5
6
100
AcDbSymbolTable
 70
0
  0
ENDTAB
  0
TABLE
  2
UCS
  5
7
100
AcDbSymbolTable
 70
0
  0
ENDTAB
  0
TABLE
  2
APPID
  5
9
100
AcDbSymbolTable
 70
1
  0
APPID
  5
12
100
AcDbSymbolTableRecord
100
AcDbRegAppTableRecord
  2
ACAD
 70
0
  0
APPID
  5
44
100
AcDbSymbolTableRecord
100
AcDbRegAppTableRecord
  2
QCAD
 70
0
  0
ENDTAB
  0
TABLE
  2
DIMSTYLE
  5
A
100
AcDbSymbolTable
 70
1
100
AcDbDimStyleTable
 71
0
  0
DIMSTYLE
105
27
100
AcDbSymbolTableRecord
100
AcDbDimStyleTableRecord
  2
Standard
 41
0.18
 42
0.0625
 43
3.75
 44
0.18
 70
0
 73
0
 74
0
 77
1
 78
8
140
0.18
141
2.5
143
0.03937007874016
147
0.09
171
3
172
1
271
2
272
2
274
3
278
44
283
0
284
8
340
43
  0
ENDTAB
  0
TABLE
  2
BLOCK_RECORD
  5
1
100
AcDbSymbolTable
 70
1
  0
BLOCK_RECORD
  5
1F
100
AcDbSymbolTableRecord
100
AcDbBlockTableRecord
  2
*Model_Space
340
22
  0
BLOCK_RECORD
  5
1B
100
AcDbSymbolTableRecord
100
AcDbBlockTableRecord
  2
*Paper_Space
340
1E
  0
BLOCK_RECORD
  5
23
100
AcDbSymbolTableRecord
100
AcDbBlockTableRecord
  2
*Paper_Space0
340
26
  0
BLOCK_RECORD
  5
45
100
AcDbSymbolTableRecord
100
AcDbBlockTableRecord
  2
gear
340
0
  0
ENDTAB
  0
ENDSEC
  0
SECTION
  2
BLOCKS
  0
BLOCK
  5
20
100
AcDbEntity
  8
0
100
AcDbBlockBegin
  2
*Model_Space
 70
0
 10
0.0
 20
0.0
 30
0.0
  3
*Model_Space
  1

  0
ENDBLK
  5
21
100
AcDbEntity
  8
0
100
AcDbBlockEnd
  0
BLOCK
  5
1C
100
AcDbEntity
 67
1
  8
0
100
AcDbBlockBegin
  2
*Paper_Space
 70
0
 10
0.0
 20
0.0
 30
0.0
  3
*Paper_Space
  1

  0
ENDBLK
  5
1D
100
AcDbEntity
 67
1
  8
0
100
AcDbBlockEnd
  0
BLOCK
  5
24
100
AcDbEntity
  8
0
100
AcDbBlockBegin
  2
*Paper_Space0
 70
0
 10
0.0
 20
0.0
 30
0.0
  3
*Paper_Space0
  1

  0
ENDBLK
  5
25
100
AcDbEntity
  8
0
100
AcDbBlockEnd
  0
BLOCK
  5
46
100
AcDbEntity
  8
0
100
AcDbBlockBegin
  2
gear
 70
0
 10
0.0
 20
0.0
 30
0.0
  3
gear
  1

  0
LINE
  5
47
100
AcDbEntity
100
AcDbLine
  8
0
 62
256
370
0
  6
BYLAYER
 10
-7.4630000000000001
 20
-0.741
 30
0.0
 11
-7.1440000000000001
 21
-0.542
 31
0.0
  0
LINE
  5
48
100
AcDbEntity
100
AcDbLine
  8
0
 62
256
370
0
  6
BYLAYER
 10
-7.1440000000000001
 20
-0.542
 30
0.0
 11
-6.8799999999999999
 21
-0.415
 31
0.0
  0
LINE
  5
49
100
AcDbEntity
100
AcDbLine
  8
0
 62
256
370
0
  6
BYLAYER
 10
-6.8799999999999999
 20
-0.415
 30
0.0
 11
-6.6820000000000004
 21
-0.345
 31
0.0
  0
LINE
  5
4A
100
AcDbEntity
100
AcDbLine
  8
0
 62
256
370
0
  6
BYLAYER
 10
-6.6820000000000004
 20
-0.345
 30
0.0
 11
-6.5599999999999996
 21
-0.318
 31
0.0
  0
LINE
  5
4B
100
AcDbEntity
100
AcDbLine
  8
0
 62
256
370
0
  6
BYLAYER
 10
-6.5599999999999996
 20
-0.318
 30
0.0
 11
-6.5179999999999998
 21
-0.312
 31
0.0
  0
LINE
  5
4C
100
AcDbEntity
100
AcDbLine
  8
0
 62
256
370
0
  6
BYLAYER
 10
-6.5179999999999998
 20
-0.312
 30
0.0
 11
-6.1769999999999996
 21
-0.296
 31
0.0
  0
LINE
  5
4D
100
AcDbEntity
100
AcDbLine
  8
0
 62
256
370
0
  6
BYLAYER
 10
-6.1769999999999996
 20
-0.296
 30
0.0
 11
-6.1769999999999996
 21
0.296
 31
0.0
  0
LINE
  5
4E
100
AcDbEntity
100
AcDbLine
  8
0
 62
256
370
0
  6
BYLAYER
 10
-6.1769999999999996
 20
0.296
 30
0.0
 11
-6.5179999999999998
 21
0.312
 31
0.0
  0
LINE
  5
4F
100
AcDbEntity
100
AcDbLine
  8
0
 62
256
370
0
  6
BYLAYER
 10
-6.5179999999999998
 20
0.312
 30
0.0
 11
-6.5599999999999996
 21
0.318
 31
0.0
  0
LINE
  5
50
100
AcDbEntity
100
AcDbLine
  8
0
 62
256
370
0
  6
BYLAYER
 10
-6.5599999999999996
 20
0.318
 30
0.0
 11
-6.6820000000000004
 21
0.345
 31
0.0
  0
LINE
  5
51
100
AcDbEntity
100
AcDbLine
  8
0
 62
256
370
0
  6
BYLAYER
 10
-6.6820000000000004
 20
0.345
 30
0.0
 11
-6.8799999999999999
 21
0.415
 31
0.0
  0
LINE
  5
52
100
AcDbEntity
100
AcDbLine
  8
0
 62
256
370
0
  6
BYLAYER
 10
-6.8799999999999999
 20
0.415
 30
0.0
 11
-7.1440000000000001
 21
0.542
 31
0.0
  0
LINE
  5
53
100
AcDbEntity
100
AcDbLine
  8
0
 62
256
370
0
  6
BYLAYER
 10
-7.1440000000000001
 20
0.542
 30
0.0
 11
-7.4630000000000001
 21
0.741
 31
0.0
  0
LINE
  5
54
100
AcDbEntity
100
AcDbLine
  8
0
 62
256
370
0
  6
BYLAYER
 10
-7.4630000000000001
 20
0.741
 30
0.0
 11
-7.4130000000000003
 21
1.1379999999999999
 31
0.0
  0
LINE
  5
55
100
AcDbEntity
100
AcDbLine
  8
0
 62
256
370
0
  6
BYLAYER
 10
-7.4130000000000003
 20
1.1379999999999999
 30
0.0
 11
-7.0549999999999997
 21
1.252
 31
0.0
  0
LINE
  5
56
100
AcDbEntity
100
AcDbLine
  8
0
 62
256
370
0
  6
BYLAYER
 10
-7.0549999999999997
 20
1.252
 30
0.0
 11
-6.7670000000000003
 21
1.3089999999999999
 31
0.0
  0
LINE
  5
57
100
AcDbEntity
100
AcDbLine
  8
0
 62
256
370
0
  6
BYLAYER
 10
-6.7670000000000003
 20
1.3089999999999999
 30
0.0
 11
-6.5579999999999998
 21
1.327
 31
0.0
  0
LINE
  5
58
100
AcDbEntity
100
AcDbLine
  8
0
 62
256
370
0
  6
BYLAYER
 10
-6.5579999999999998
 20
1.327
 30
0.0
 11
-6.4329999999999998
 21
1.3240000000000001
 31
0.0
  0
LINE
  5
59
100
AcDbEntity
100
AcDbLine
  8
0
 62
256
370
0
  6
BYLAYER
 10
-6.4329999999999998
 20
1.3240000000000001
 30
0.0
 11
-6.391
 21
1.3180000000000001
 31
0.0
  0
LINE
  5
5A
100
AcDbEntity
100
AcDbLine
  8
0
 62
256
370
0
  6
BYLAYER
 10
-6.391
 20
1.3180000000000001
 30
0.0
 11
-6.056
 21
1.2490000000000001
 31
0.0
  0
LINE
  5
5B
100
AcDbEntity
100
AcDbLine
  8
0
 62
256
370
0
  6
BYLAYER
 10
-6.056
 20
1.2490000000000001
 30
0.0
 11
-5.9089999999999998
 21
1.823
 31
0.0
  0
LINE
  5
5C
100
AcDbEntity
100
AcDbLine
  8
0
 62
256
370
0
  6
BYLAYER
 10
-5.9089999999999998
 20
1.823
 30
0.0
 11
-6.2359999999999998
 21
1.9239999999999999
 31
0.0
  0
LINE
  5
5D
100
AcDbEntity
100
AcDbLine
  8
0
 62
256
370
0
  6
BYLAYER
 10
-6.2359999999999998
 20
1.9239999999999999
 30
0.0
 11
-6.2750000000000004
 21
1.9390000000000001
 31
0.0
  0
LINE
  5
5E
100
AcDbEntity
100
AcDbLine
  8
0
 62
256
370
0
  6
BYLAYER
 10
-6.2750000000000004
 20
1.9390000000000001
 30
0.0
 11
-6.3869999999999996
 21
1.996
 31
0.0
  0
LINE
  5
5F
100
AcDbEntity
100
AcDbLine
  8
0
 62
256
370
0
  6
BYLAYER
 10
-6.3869999999999996
 20
1.996
 30
0.0
 11
-6.5609999999999999
 21
2.113
 31
0.0
  0
LINE
  5
60
100
AcDbEntity
100
AcDbLine
  8
0
 62
256
370
0
  6
BYLAYER
 10
-6.5609999999999999
 20
2.113
 30
0.0
 11
-6.7850000000000001
 21
2.3010000000000002
 31
0.0
  0
LINE
  5
61
100
AcDbEntity
100
AcDbLine
  8
0
 62
256
370
0
  6
BYLAYER
 10
-6.7850000000000001
 20
2.3010000000000002
 30
0.0
 11
-7.0439999999999996
 21
2.5739999999999998
 31
0.0
  0
LINE
  5
62
100
AcDbEntity
100
AcDbLine
  8
0
 62
256
370
0
  6
BYLAYER
 10
-7.0439999999999996
 20
2.5739999999999998
 30
0.0
 11
-6.8970000000000002
 21
2.9460000000000002
 31
0.0
  0
LINE
  5
63
100
AcDbEntity
100
AcDbLine
  8
0
 62
256
370
0
  6
BYLAYER
 10
-6.8970000000000002
 20
2.9460000000000002
 30
0.0
 11
-6.5220000000000002
 21
2.9670000000000001
 31
0.0
  0
LINE
  5
64
100
AcDbEntity
100
AcDbLine
  8
0
 62
256
370
0
  6
BYLAYER
 10
-6.5220000000000002
 20
2.9670000000000001
 30
0.0
 11
-6.2290000000000001
 21
2.9510000000000001
 31
0.0
  0
LINE
  5
65
100
AcDbEntity
100
AcDbLine
  8
0
 62
256
370
0
  6
BYLAYER
 10
-6.2290000000000001
 20
2.9510000000000001
 30
0.0
 11
-6.0220000000000002
 21
2.9169999999999998
 31
0.0
  0
LINE
  5
66
100
AcDbEntity
100
AcDbLine
  8
0
 62
256
370
0
  6
BYLAYER
 10
-6.0220000000000002
 20
2.9169999999999998
 30
0.0
 11
-5.9020000000000001
 21
2.8820000000000001
 31
0.0
  0
LINE
  5
67
100
AcDbEntity
100
AcDbLine
  8
0
 62
256
370
0
  6
BYLAYER
 10
-5.9020000000000001
 20
2.8820000000000001
 30
0.0
 11
-5.8620000000000001
 21
2.8660000000000001
 31
0.0
  0
LINE
  5
68
100
AcDbEntity
100
AcDbLine
  8
0
 62
256
370
0
  6
BYLAYER
 10
-5.8620000000000001
 20
2.8660000000000001
 30
0.0
 11
-5.556
 21
2.7160000000000002
 31
0.0
  0
LINE
  5
69
100
AcDbEntity
100
AcDbLine
  8
0
 62
256
370
0
  6
BYLAYER
 10
-5.556
 20
2.7160000000000002
 30
0.0
 11
-5.2699999999999996
 21
3.2360000000000002
 31
0.0
  0
LINE
  5
6A
100
AcDbEntity
100
AcDbLine
  8
0
 62
256
370
0
  6
BYLAYER
 10
-5.2699999999999996
 20
3.2360000000000002
 30
0.0
 11
-5.5609999999999999
 21
3.4140000000000001
 31
0.0
  0
LINE
  5
6B
100
AcDbEntity
100
AcDbLine
  8
0
 62
256
370
0
  6
BYLAYER
 10
-5.5609999999999999
 20
3.4140000000000001
 30
0.0
 11
-5.5949999999999998
 21
3.4390000000000001
 31
0.0
  0
LINE
  5
6C
100
AcDbEntity
100
AcDbLine
  8
0
 62
256
370
0
  6
BYLAYER
 10
-5.5949999999999998
 20
3.4390000000000001
 30
0.0
 11
-5.6900000000000004
 21
3.5219999999999998
 31
0.0
  0
LINE
  5
6D
100
AcDbEntity
100
AcDbLine
  8
0
 62
256
370
0
  6
BYLAYER
 10
-5.6900000000000004
 20
3.5219999999999998
 30
0.0
 11
-5.8300000000000001
 21
3.6779999999999999
 31
0.0
  0
LINE
  5
6E
100
AcDbEntity
100
AcDbLine
  8
0
 62
256
370
0
  6
BYLAYER
 10
-5.8300000000000001
 20
3.6779999999999999
 30
0.0
 11
-6.0
 21
3.9169999999999998
 31
0.0
  0
LINE
  5
6F
100
AcDbEntity
100
AcDbLine
  8
0
 62
256
370
0
  6
BYLAYER
 10
-6.0
 20
3.9169999999999998
 30
0.0
 11
-6.1829999999999998
 21
4.2450000000000001
 31
0.0
  0
LINE
  5
70
100
AcDbEntity
100
AcDbLine
  8
0
 62
256
370
0
  6
BYLAYER
 10
-6.1829999999999998
 20
4.2450000000000001
 30
0.0
 11
-5.9480000000000004
 21
4.5679999999999996
 31
0.0
  0
LINE
  5
71
100
AcDbEntity
100
AcDbLine
  8
0
 62
256
370
0
  6
BYLAYER
 10
-5.9480000000000004
 20
4.5679999999999996
 30
0.0
 11
-5.5789999999999997
 21
4.4960000000000004
 31
0.0
  0
LINE
  5
72
100
AcDbEntity
100
AcDbLine
  8
0
 62
256
370
0
  6
BYLAYER
 10
-5.5789999999999997
 20
4.4960000000000004
 30
0.0
 11
-5.2990000000000004
 21
4.4080000000000004
 31
0.0
  0
LINE
  5
73
100
AcDbEntity
100
AcDbLine
  8
0
 62
256
370
0
  6
BYLAYER
 10
-5.2990000000000004
 20
4.4080000000000004
 30
0.0
 11
-5.1079999999999997
 21
4.3230000000000004
 31
0.0
  0
LINE
  5
74
100
AcDbEntity
100
AcDbLine
  8
0
 62
256
370
0
  6
BYLAYER
 10
-5.1079999999999997
 20
4.3230000000000004
 30
0.0
 11
-4.9989999999999997
 21
4.2590000000000003
 31
0.0
  0
LINE
  5
75
100
AcDbEntity
100
AcDbLine
  8
0
 62
256
370
0
  6
BYLAYER
 10
-4.9989999999999997
 20
4.2590000000000003
 30
0.0
 11
-4.9649999999999999
 21
4.234
 31
0.0
  0
LINE
  5
76
100
AcDbEntity
100
AcDbLine
  8
0
 62
256
370
0
  6
BYLAYER
 10
-4.9649999999999999
 20
4.234
 30
0.0
 11
-4.7050000000000001
 21
4.0129999999999999
 31
0.0
  0
LINE
  5
77
100
AcDbEntity
100
AcDbLine
  8
0
 62
256
370
0
  6
BYLAYER
 10
-4.7050000000000001
 20
4.0129999999999999
 30
0.0
 11
-4.2999999999999998
 21
4.444
 31
0.0
  0
LINE
  5
78
100
AcDbEntity
100
AcDbLine
  8
0
 62
256
370
0
  6
BYLAYER
 10
-4.2999999999999998
 20
4.444
 30
0.0
 11
-4.5380000000000003
 21
4.6900000000000004
 31
0.0
  0
LINE
  5
79
100
AcDbEntity
100
AcDbLine
  8
0
 62
256
370
0
  6
BYLAYER
 10
-4.5380000000000003
 20
4.6900000000000004
 30
0.0
 11
-4.5650000000000004
 21
4.7220000000000004
 31
0.0
  0
LINE
  5
7A
100
AcDbEntity
100
AcDbLine
  8
0
 62
256
370
0
  6
BYLAYER
 10
-4.5650000000000004
 20
4.7220000000000004
 30
0.0
 11
-4.6349999999999998
 21
4.8259999999999996
 31
0.0
  0
LINE
  5
7B
100
AcDbEntity
100
AcDbLine
  8
0
 62
256
370
0
  6
BYLAYER
 10
-4.6349999999999998
 20
4.8259999999999996
 30
0.0
 11
-4.7320000000000002
 21
5.0119999999999996
 31
0.0
  0
LINE
  5
7C
100
AcDbEntity
100
AcDbLine
  8
0
 62
256
370
0
  6
BYLAYER
 10
-4.7320000000000002
 20
5.0119999999999996
 30
0.0
 11
-4.8369999999999997
 21
5.2859999999999996
 31
0.0
  0
LINE
  5
7D
100
AcDbEntity
100
AcDbLine
  8
0
 62
256
370
0
  6
BYLAYER
 10
-4.8369999999999997
 20
5.2859999999999996
 30
0.0
 11
-4.9329999999999998
 21
5.649
 31
0.0
  0
LINE
  5
7E
100
AcDbEntity
100
AcDbLine
  8
0
 62
256
370
0
  6
BYLAYER
 10
-4.9329999999999998
 20
5.649
 30
0.0
 11
-4.625
 21
5.9039999999999999
 31
0.0
  0
LINE
  5
7F
100
AcDbEntity
100
AcDbLine
  8
0
 62
256
370
0
  6
BYLAYER
 10
-4.625
 20
5.9039999999999999
 30
0.0
 11
-4.2859999999999996
 21
5.742
 31
0.0
  0
LINE
  5
80
100
AcDbEntity
100
AcDbLine
  8
0
 62
256
370
0
  6
BYLAYER
 10
-4.2859999999999996
 20
5.742
 30
0.0
 11
-4.0369999999999999
 21
5.5869999999999997
 31
0.0
  0
LINE
  5
81
100
AcDbEntity
100
AcDbLine
  8
0
 62
256
370
0
  6
BYLAYER
 10
-4.0369999999999999
 20
5.5869999999999997
 30
0.0
 11
-3.8719999999999999
 21
5.4569999999999999
 31
0.0
  0
LINE
  5
82
100
AcDbEntity
100
AcDbLine
  8
0
 62
256
370
0
  6
BYLAYER
 10
-3.8719999999999999
 20
5.4569999999999999
 30
0.0
 11
-3.7829999999999999
 21
5.3680000000000003
 31
0.0
  0
LINE
  5
83
100
AcDbEntity
100
AcDbLine
  8
0
 62
256
370
0
  6
BYLAYER
 10
-3.7829999999999999
 20
5.3680000000000003
 30
0.0
 11
-3.7559999999999998
 21
5.3360000000000003
 31
0.0
  0
LINE
  5
84
100
AcDbEntity
100
AcDbLine
  8
0
 62
256
370
0
  6
BYLAYER
 10
-3.7559999999999998
 20
5.3360000000000003
 30
0.0
 11
-3.5590000000000002
 21
5.056
 31
0.0
  0
LINE
  5
85
100
AcDbEntity
100
AcDbLine
  8
0
 62
256
370
0
  6
BYLAYER
 10
-3.5590000000000002
 20
5.056
 30
0.0
 11
-3.0590000000000002
 21
5.3730000000000002
 31
0.0
  0
LINE
  5
86
100
AcDbEntity
100
AcDbLine
  8
0
 62
256
370
0
  6
BYLAYER
 10
-3.0590000000000002
 20
5.3730000000000002
 30
0.0
 11
-3.2290000000000001
 21
5.6710000000000003
 31
0.0
  0
LINE
  5
87
100
AcDbEntity
100
AcDbLine
  8
0
 62
256
370
0
  6
BYLAYER
 10
-3.2290000000000001
 20
5.6710000000000003
 30
0.0
 11
-3.2469999999999999
 21
5.7089999999999996
 31
0.0
  0
LINE
  5
88
100
AcDbEntity
100
AcDbLine
  8
0
 62
256
370
0
  6
BYLAYER
 10
-3.2469999999999999
 20
5.7089999999999996
 30
0.0
 11
-3.2890000000000001
 21
5.827
 31
0.0
  0
LINE
  5
89
100
AcDbEntity
100
AcDbLine
  8
0
 62
256
370
0
  6
BYLAYER
 10
-3.2890000000000001
 20
5.827
 30
0.0
 11
-3.3370000000000002
 21
6.0309999999999997
 31
0.0
  0
LINE
  5
8A
100
AcDbEntity
100
AcDbLine
  8
0
 62
256
370
0
  6
BYLAYER
 10
-3.3370000000000002
 20
6.0309999999999997
 30
0.0
 11
-3.371
 21
6.3230000000000004
 31
0.0
  0
LINE
  5
8B
100
AcDbEntity
100
AcDbLine
  8
0
 62
256
370
0
  6
BYLAYER
 10
-3.371
 20
6.3230000000000004
 30
0.0
 11
-3.3730000000000002
 21
6.6980000000000004
 31
0.0
  0
LINE
  5
8C
100
AcDbEntity
100
AcDbLine
  8
0
 62
256
370
0
  6
BYLAYER
 10
-3.3730000000000002
 20
6.6980000000000004
 30
0.0
 11
-3.0110000000000001
 21
6.8689999999999998
 31
0.0
  0
LINE
  5
8D
100
AcDbEntity
100
AcDbLine
  8
0
 62
256
370
0
  6
BYLAYER
 10
-3.0110000000000001
 20
6.8689999999999998
 30
0.0
 11
-2.7229999999999999
 21
6.6269999999999998
 31
0.0
  0
LINE
  5
8E
100
AcDbEntity
100
AcDbLine
  8
0
 62
256
370
0
  6
BYLAYER
 10
-2.7229999999999999
 20
6.6269999999999998
 30
0.0
 11
-2.52
 21
6.415
 31
0.0
  0
LINE
  5
8F
100
AcDbEntity
100
AcDbLine
  8
0
 62
256
370
0
  6
BYLAYER
 10
-2.52
 20
6.415
 30
0.0
 11
-2.3929999999999998
 21
6.2489999999999997
 31
0.0
  0
LINE
  5
90
100
AcDbEntity
100
AcDbLine
  8
0
 62
256
370
0
  6
BYLAYER
 10
-2.3929999999999998
 20
6.2489999999999997
 30
0.0
 11
-2.3290000000000002
 21
6.141
 31
0.0
  0
LINE
  5
91
100
AcDbEntity
100
AcDbLine
  8
0
 62
256
370
0
  6
BYLAYER
 10
-2.3290000000000002
 20
6.141
 30
0.0
 11
-2.3109999999999999
 21
6.1029999999999998
 31
0.0
  0
LINE
  5
92
100
AcDbEntity
100
AcDbLine
  8
0
 62
256
370
0
  6
BYLAYER
 10
-2.3109999999999999
 20
6.1029999999999998
 30
0.0
 11
-2.1899999999999999
 21
5.7830000000000004
 31
0.0
  0
LINE
  5
93
100
AcDbEntity
100
AcDbLine
  8
0
 62
256
370
0
  6
BYLAYER
 10
-2.1899999999999999
 20
5.7830000000000004
 30
0.0
 11
-1.627
 21
5.9649999999999999
 31
0.0
  0
LINE
  5
94
100
AcDbEntity
100
AcDbLine
  8
0
 62
256
370
0
  6
BYLAYER
 10
-1.627
 20
5.9649999999999999
 30
0.0
 11
-1.7170000000000001
 21
6.2960000000000003
 31
0.0
  0
LINE
  5
95
100
AcDbEntity
100
AcDbLine
  8
0
 62
256
370
0
  6
BYLAYER
 10
-1.7170000000000001
 20
6.2960000000000003
 30
0.0
 11
-1.7250000000000001
 21
6.3369999999999997
 31
0.0
  0
LINE
  5
96
100
AcDbEntity
100
AcDbLine
  8
0
 62
256
370
0
  6
BYLAYER
 10
-1.7250000000000001
 20
6.3369999999999997
 30
0.0
 11
-1.7370000000000001
 21
6.4619999999999997
 31
0.0
  0
LINE
  5
97
100
AcDbEntity
100
AcDbLine
  8
0
 62
256
370
0
  6
BYLAYER
 10
-1.7370000000000001
 20
6.4619999999999997
 30
0.0
 11
-1.732
 21
6.6719999999999997
 31
0.0
  0
LINE
  5
98
100
AcDbEntity
100
AcDbLine
  8
0
 62
256
370
0
  6
BYLAYER
 10
-1.732
 20
6.6719999999999997
 30
0.0
 11
-1.6930000000000001
 21
6.9619999999999997
 31
0.0
  0
LINE
  5
99
100
AcDbEntity
100
AcDbLine
  8
0
 62
256
370
0
  6
BYLAYER
 10
-1.6930000000000001
 20
6.9619999999999997
 30
0.0
 11
-1.601
 21
7.327
 31
0.0
  0
LINE
  5
9A
100
AcDbEntity
100
AcDbLine
  8
0
 62
256
370
0
  6
BYLAYER
 10
-1.601
 20
7.327
 30
0.0
 11
-1.208
 21
7.4020000000000001
 31
0.0
  0
LINE
  5
9B
100
AcDbEntity
100
AcDbLine
  8
0
 62
256
370
0
  6
BYLAYER
 10
-1.208
 20
7.4020000000000001
 30
0.0
 11
-0.989
 21
7.0960000000000001
 31
0.0
  0
LINE
  5
9C
100
AcDbEntity
100
AcDbLine
  8
0
 62
256
370
0
  6
BYLAYER
 10
-0.989
 20
7.0960000000000001
 30
0.0
 11
-0.846
 21
6.8410000000000002
 31
0.0
  0
LINE
  5
9D
100
AcDbEntity
100
AcDbLine
  8
0
 62
256
370
0
  6
BYLAYER
 10
-0.846
 20
6.8410000000000002
 30
0.0
 11
-0.764
 21
6.6479999999999997
 31
0.0
  0
LINE
  5
9E
100
AcDbEntity
100
AcDbLine
  8
0
 62
256
370
0
  6
BYLAYER
 10
-0.764
 20
6.6479999999999997
 30
0.0
 11
-0.729
 21
6.5270000000000001
 31
0.0
  0
LINE
  5
9F
100
AcDbEntity
100
AcDbLine
  8
0
 62
256
370
0
  6
BYLAYER
 10
-0.729
 20
6.5270000000000001
 30
0.0
 11
-0.721
 21
6.4859999999999998
 31
0.0
  0
LINE
  5
A0
100
AcDbEntity
100
AcDbLine
  8
0
 62
256
370
0
  6
BYLAYER
 10
-0.721
 20
6.4859999999999998
 30
0.0
 11
-0.6830000000000001
 21
6.1459999999999999
 31
0.0
  0
LINE
  5
A1
100
AcDbEntity
100
AcDbLine
  8
0
 62
256
370
0
  6
BYLAYER
 10
-0.6830000000000001
 20
6.1459999999999999
 30
0.0
 11
-0.092
 21
6.1829999999999998
 31
0.0
  0
LINE
  5
A2
100
AcDbEntity
100
AcDbLine
  8
0
 62
256
370
0
  6
BYLAYER
 10
-0.092
 20
6.1829999999999998
 30
0.0
 11
-0.097
 21
6.5250000000000004
 31
0.0
  0
LINE
  5
A3
100
AcDbEntity
100
AcDbLine
  8
0
 62
256
370
0
  6
BYLAYER
 10
-0.097
 20
6.5250000000000004
 30
0.0
 11
-0.095
 21
6.5670000000000002
 31
0.0
  0
LINE
  5
A4
100
AcDbEntity
100
AcDbLine
  8
0
 62
256
370
0
  6
BYLAYER
 10
-0.095
 20
6.5670000000000002
 30
0.0
 11
-0.075
 21
6.6909999999999998
 31
0.0
  0
LINE
  5
A5
100
AcDbEntity
100
AcDbLine
  8
0
 62
256
370
0
  6
BYLAYER
 10
-0.075
 20
6.6909999999999998
 30
0.0
 11
-0.018
 21
6.8929999999999998
 31
0.0
  0
LINE
  5
A6
100
AcDbEntity
100
AcDbLine
  8
0
 62
256
370
0
  6
BYLAYER
 10
-0.018
 20
6.8929999999999998
 30
0.0
 11
0.092
 21
7.1639999999999997
 31
0.0
  0
LINE
  5
A7
100
AcDbEntity
100
AcDbLine
  8
0
 62
256
370
0
  6
BYLAYER
 10
0.092
 20
7.1639999999999997
 30
0.0
 11
0.271
 21
7.4950000000000001
 31
0.0
  0
LINE
  5
A8
100
AcDbEntity
100
AcDbLine
  8
0
 62
256
370
0
  6
BYLAYER
 10
0.271
 20
7.4950000000000001
 30
0.0
 11
0.67
 21
7.4699999999999998
 31
0.0
  0
LINE
  5
A9
100
AcDbEntity
100
AcDbLine
  8
0
 62
256
370
0
  6
BYLAYER
 10
0.67
 20
7.4699999999999998
 30
0.0
 11
0.8070000000000001
 21
7.1189999999999998
 31
0.0
  0
LINE
  5
AA
100
AcDbEntity
100
AcDbLine
  8
0
 62
256
370
0
  6
BYLAYER
 10
0.8070000000000001
 20
7.1189999999999998
 30
0.0
 11
0.882
 21
6.8360000000000003
 31
0.0
  0
LINE
  5
AB
100
AcDbEntity
100
AcDbLine
  8
0
 62
256
370
0
  6
BYLAYER
 10
0.882
 20
6.8360000000000003
 30
0.0
 11
0.913
 21
6.6289999999999996
 31
0.0
  0
LINE
  5
AC
100
AcDbEntity
100
AcDbLine
  8
0
 62
256
370
0
  6
BYLAYER
 10
0.913
 20
6.6289999999999996
 30
0.0
 11
0.917
 21
6.5030000000000001
 31
0.0
  0
LINE
  5
AD
100
AcDbEntity
100
AcDbLine
  8
0
 62
256
370
0
  6
BYLAYER
 10
0.917
 20
6.5030000000000001
 30
0.0
 11
0.915
 21
6.4610000000000003
 31
0.0
  0
LINE
  5
AE
100
AcDbEntity
100
AcDbLine
  8
0
 62
256
370
0
  6
BYLAYER
 10
0.915
 20
6.4610000000000003
 30
0.0
 11
0.867
 21
6.1230000000000002
 31
0.0
  0
LINE
  5
AF
100
AcDbEntity
100
AcDbLine
  8
0
 62
256
370
0
  6
BYLAYER
 10
0.867
 20
6.1230000000000002
 30
0.0
 11
1.448
 21
6.0110000000000001
 31
0.0
  0
LINE
  5
B0
100
AcDbEntity
100
AcDbLine
  8
0
 62
256
370
0
  6
BYLAYER
 10
1.448
 20
6.0110000000000001
 30
0.0
 11
1.528
 21
6.3440000000000003
 31
0.0
  0
LINE
  5
B1
100
AcDbEntity
100
AcDbLine
  8
0
 62
256
370
0
  6
BYLAYER
 10
1.528
 20
6.3440000000000003
 30
0.0
 11
1.5409999999999999
 21
6.3840000000000003
 31
0.0
  0
LINE
  5
B2
100
AcDbEntity
100
AcDbLine
  8
0
 62
256
370
0
  6
BYLAYER
 10
1.5409999999999999
 20
6.3840000000000003
 30
0.0
 11
1.591
 21
6.4989999999999997
 31
0.0
  0
LINE
  5
B3
100
AcDbEntity
100
AcDbLine
  8
0
 62
256
370
0
  6
BYLAYER
 10
1.591
 20
6.4989999999999997
 30
0.0
 11
1.696
 21
6.681
 31
0.0
  0
LINE
  5
B4
100
AcDbEntity
100
AcDbLine
  8
0
 62
256
370
0
  6
BYLAYER
 10
1.696
 20
6.681
 30
0.0
 11
1.871
 21
6.9160000000000004
 31
0.0
  0
LINE
  5
B5
100
AcDbEntity
100
AcDbLine
  8
0
 62
256
370
0
  6
BYLAYER
 10
1.871
 20
6.9160000000000004
 30
0.0
 11
2.1259999999999999
 21
7.1920000000000002
 31
0.0
  0
LINE
  5
B6
100
AcDbEntity
100
AcDbLine
  8
0
 62
256
370
0
  6
BYLAYER
 10
2.1259999999999999
 20
7.1920000000000002
 30
0.0
 11
2.5070000000000001
 21
7.0679999999999996
 31
0.0
  0
LINE
  5
B7
100
AcDbEntity
100
AcDbLine
  8
0
 62
256
370
0
  6
BYLAYER
 10
2.5070000000000001
 20
7.0679999999999996
 30
0.0
 11
2.552
 21
6.6950000000000003
 31
0.0
  0
LINE
  5
B8
100
AcDbEntity
100
AcDbLine
  8
0
 62
256
370
0
  6
BYLAYER
 10
2.552
 20
6.6950000000000003
 30
0.0
 11
2.5539999999999998
 21
6.4020000000000001
 31
0.0
  0
LINE
  5
B9
100
AcDbEntity
100
AcDbLine
  8
0
 62
256
370
0
  6
BYLAYER
 10
2.5539999999999998
 20
6.4020000000000001
 30
0.0
 11
2.5329999999999999
 21
6.1929999999999996
 31
0.0
  0
LINE
  5
BA
100
AcDbEntity
100
AcDbLine
  8
0
 62
256
370
0
  6
BYLAYER
 10
2.5329999999999999
 20
6.1929999999999996
 30
0.0
 11
2.5059999999999998
 21
6.0709999999999997
 31
0.0
  0
LINE
  5
BB
100
AcDbEntity
100
AcDbLine
  8
0
 62
256
370
0
  6
BYLAYER
 10
2.5059999999999998
 20
6.0709999999999997
 30
0.0
 11
2.4929999999999999
 21
6.0309999999999997
 31
0.0
  0
LINE
  5
BC
100
AcDbEntity
100
AcDbLine
  8
0
 62
256
370
0
  6
BYLAYER
 10
2.4929999999999999
 20
6.0309999999999997
 30
0.0
 11
2.3620000000000001
 21
5.7140000000000004
 31
0.0
  0
LINE
  5
BD
100
AcDbEntity
100
AcDbLine
  8
0
 62
256
370
0
  6
BYLAYER
 10
2.3620000000000001
 20
5.7140000000000004
 30
0.0
 11
2.8969999999999998
 21
5.4619999999999997
 31
0.0
  0
LINE
  5
BE
100
AcDbEntity
100
AcDbLine
  8
0
 62
256
370
0
  6
BYLAYER
 10
2.8969999999999998
 20
5.4619999999999997
 30
0.0
 11
3.0579999999999998
 21
5.7649999999999997
 31
0.0
  0
LINE
  5
BF
100
AcDbEntity
100
AcDbLine
  8
0
 62
256
370
0
  6
BYLAYER
 10
3.0579999999999998
 20
5.7649999999999997
 30
0.0
 11
3.081
 21
5.7999999999999998
 31
0.0
  0
LINE
  5
C0
100
AcDbEntity
100
AcDbLine
  8
0
 62
256
370
0
  6
BYLAYER
 10
3.081
 20
5.7999999999999998
 30
0.0
 11
3.1579999999999999
 21
5.899
 31
0.0
  0
LINE
  5
C1
100
AcDbEntity
100
AcDbLine
  8
0
 62
256
370
0
  6
BYLAYER
 10
3.1579999999999999
 20
5.899
 30
0.0
 11
3.3050000000000002
 21
6.0490000000000004
 31
0.0
  0
LINE
  5
C2
100
AcDbEntity
100
AcDbLine
  8
0
 62
256
370
0
  6
BYLAYER
 10
3.3050000000000002
 20
6.0490000000000004
 30
0.0
 11
3.532
 21
6.234
 31
0.0
  0
LINE
  5
C3
100
AcDbEntity
100
AcDbLine
  8
0
 62
256
370
0
  6
BYLAYER
 10
3.532
 20
6.234
 30
0.0
 11
3.8479999999999999
 21
6.4370000000000003
 31
0.0
  0
LINE
  5
C4
100
AcDbEntity
100
AcDbLine
  8
0
 62
256
370
0
  6
BYLAYER
 10
3.8479999999999999
 20
6.4370000000000003
 30
0.0
 11
4.1859999999999999
 21
6.2229999999999999
 31
0.0
  0
LINE
  5
C5
100
AcDbEntity
100
AcDbLine
  8
0
 62
256
370
0
  6
BYLAYER
 10
4.1859999999999999
 20
6.2229999999999999
 30
0.0
 11
4.1369999999999996
 21
5.8499999999999996
 31
0.0
  0
LINE
  5
C6
100
AcDbEntity
100
AcDbLine
  8
0
 62
256
370
0
  6
BYLAYER
 10
4.1369999999999996
 20
5.8499999999999996
 30
0.0
 11
4.0659999999999998
 21
5.5659999999999998
 31
0.0
  0
LINE
  5
C7
100
AcDbEntity
100
AcDbLine
  8
0
 62
256
370
0
  6
BYLAYER
 10
4.0659999999999998
 20
5.5659999999999998
 30
0.0
 11
3.9940000000000002
 21
5.3689999999999998
 31
0.0
  0
LINE
  5
C8
100
AcDbEntity
100
AcDbLine
  8
0
 62
256
370
0
  6
BYLAYER
 10
3.9940000000000002
 20
5.3689999999999998
 30
0.0
 11
3.9369999999999998
 21
5.2569999999999997
 31
0.0
  0
LINE
  5
C9
100
AcDbEntity
100
AcDbLine
  8
0
 62
256
370
0
  6
BYLAYER
 10
3.9369999999999998
 20
5.2569999999999997
 30
0.0
 11
3.9140000000000001
 21
5.2220000000000004
 31
0.0
  0
LINE
  5
CA
100
AcDbEntity
100
AcDbLine
  8
0
 62
256
370
0
  6
BYLAYER
 10
3.9140000000000001
 20
5.2220000000000004
 30
0.0
 11
3.7090000000000001
 21
4.9480000000000004
 31
0.0
  0
LINE
  5
CB
100
AcDbEntity
100
AcDbLine
  8
0
 62
256
370
0
  6
BYLAYER
 10
3.7090000000000001
 20
4.9480000000000004
 30
0.0
 11
4.1660000000000004
 21
4.5709999999999997
 31
0.0
  0
LINE
  5
CC
100
AcDbEntity
100
AcDbLine
  8
0
 62
256
370
0
  6
BYLAYER
 10
4.1660000000000004
 20
4.5709999999999997
 30
0.0
 11
4.3959999999999999
 21
4.8230000000000004
 31
0.0
  0
LINE
  5
CD
100
AcDbEntity
100
AcDbLine
  8
0
 62
256
370
0
  6
BYLAYER
 10
4.3959999999999999
 20
4.8230000000000004
 30
0.0
 11
4.4260000000000002
 21
4.8520000000000003
 31
0.0
  0
LINE
  5
CE
100
AcDbEntity
100
AcDbLine
  8
0
 62
256
370
0
  6
BYLAYER
 10
4.4260000000000002
 20
4.8520000000000003
 30
0.0
 11
4.5259999999999998
 21
4.9290000000000003
 31
0.0
  0
LINE
  5
CF
100
AcDbEntity
100
AcDbLine
  8
0
 62
256
370
0
  6
BYLAYER
 10
4.5259999999999998
 20
4.9290000000000003
 30
0.0
 11
4.7050000000000001
 21
5.0369999999999999
 31
0.0
  0
LINE
  5
D0
100
AcDbEntity
100
AcDbLine
  8
0
 62
256
370
0
  6
BYLAYER
 10
4.7050000000000001
 20
5.0369999999999999
 30
0.0
 11
4.9710000000000001
 21
5.1600000000000001
 31
0.0
  0
LINE
  5
D1
100
AcDbEntity
100
AcDbLine
  8
0
 62
256
370
0
  6
BYLAYER
 10
4.9710000000000001
 20
5.1600000000000001
 30
0.0
 11
5.3280000000000003
 21
5.2779999999999996
 31
0.0
  0
LINE
  5
D2
100
AcDbEntity
100
AcDbLine
  8
0
 62
256
370
0
  6
BYLAYER
 10
5.3280000000000003
 20
5.2779999999999996
 30
0.0
 11
5.6020000000000003
 21
4.9859999999999998
 31
0.0
  0
LINE
  5
D3
100
AcDbEntity
100
AcDbLine
  8
0
 62
256
370
0
  6
BYLAYER
 10
5.6020000000000003
 20
4.9859999999999998
 30
0.0
 11
5.4619999999999997
 21
4.6379999999999999
 31
0.0
  0
LINE
  5
D4
100
AcDbEntity
100
AcDbLine
  8
0
 62
256
370
0
  6
BYLAYER
 10
5.4619999999999997
 20
4.6379999999999999
 30
0.0
 11
5.3230000000000004
 21
4.3799999999999999
 31
0.0
  0
LINE
  5
D5
100
AcDbEntity
100
AcDbLine
  8
0
 62
256
370
0
  6
BYLAYER
 10
5.3230000000000004
 20
4.3799999999999999
 30
0.0
 11
5.2030000000000003
 21
4.2069999999999999
 31
0.0
  0
LINE
  5
D6
100
AcDbEntity
100
AcDbLine
  8
0
 62
256
370
0
  6
BYLAYER
 10
5.2030000000000003
 20
4.2069999999999999
 30
0.0
 11
5.1200000000000001
 21
4.1130000000000004
 31
0.0
  0
LINE
  5
D7
100
AcDbEntity
100
AcDbLine
  8
0
 62
256
370
0
  6
BYLAYER
 10
5.1200000000000001
 20
4.1130000000000004
 30
0.0
 11
5.0899999999999999
 21
4.0839999999999996
 31
0.0
  0
LINE
  5
D8
100
AcDbEntity
100
AcDbLine
  8
0
 62
256
370
0
  6
BYLAYER
 10
5.0899999999999999
 20
4.0839999999999996
 30
0.0
 11
4.8230000000000004
 21
3.8700000000000001
 31
0.0
  0
LINE
  5
D9
100
AcDbEntity
100
AcDbLine
  8
0
 62
256
370
0
  6
BYLAYER
 10
4.8230000000000004
 20
3.8700000000000001
 30
0.0
 11
5.1710000000000003
 21
3.391
 31
0.0
  0
LINE
  5
DA
100
AcDbEntity
100
AcDbLine
  8
0
 62
256
370
0
  6
BYLAYER
 10
5.1710000000000003
 20
3.391
 30
0.0
 11
5.4569999999999999
 21
3.5790000000000002
 31
0.0
  0
LINE
  5
DB
100
AcDbEntity
100
AcDbLine
  8
0
 62
256
370
0
  6
BYLAYER
 10
5.4569999999999999
 20
3.5790000000000002
 30
0.0
 11
5.4939999999999998
 21
3.5990000000000002
 31
0.0
  0
LINE
  5
DC
100
AcDbEntity
100
AcDbLine
  8
0
 62
256
370
0
  6
BYLAYER
 10
5.4939999999999998
 20
3.5990000000000002
 30
0.0
 11
5.609
 21
3.649
 31
0.0
  0
LINE
  5
DD
100
AcDbEntity
100
AcDbLine
  8
0
 62
256
370
0
  6
BYLAYER
 10
5.609
 20
3.649
 30
0.0
 11
5.8099999999999996
 21
3.7090000000000001
 31
0.0
  0
LINE
  5
DE
100
AcDbEntity
100
AcDbLine
  8
0
 62
256
370
0
  6
BYLAYER
 10
5.8099999999999996
 20
3.7090000000000001
 30
0.0
 11
6.0979999999999999
 21
3.7610000000000001
 31
0.0
  0
LINE
  5
DF
100
AcDbEntity
100
AcDbLine
  8
0
 62
256
370
0
  6
BYLAYER
 10
6.0979999999999999
 20
3.7610000000000001
 30
0.0
 11
6.4729999999999999
 21
3.7869999999999999
 31
0.0
  0
LINE
  5
E0
100
AcDbEntity
100
AcDbLine
  8
0
 62
256
370
0
  6
BYLAYER
 10
6.4729999999999999
 20
3.7869999999999999
 30
0.0
 11
6.6660000000000004
 21
3.4359999999999999
 31
0.0
  0
LINE
  5
E1
100
AcDbEntity
100
AcDbLine
  8
0
 62
256
370
0
  6
BYLAYER
 10
6.6660000000000004
 20
3.4359999999999999
 30
0.0
 11
6.4429999999999996
 21
3.1339999999999999
 31
0.0
  0
LINE
  5
E2
100
AcDbEntity
100
AcDbLine
  8
0
 62
256
370
0
  6
BYLAYER
 10
6.4429999999999996
 20
3.1339999999999999
 30
0.0
 11
6.2450000000000001
 21
2.9180000000000001
 31
0.0
  0
LINE
  5
E3
100
AcDbEntity
100
AcDbLine
  8
0
 62
256
370
0
  6
BYLAYER
 10
6.2450000000000001
 20
2.9180000000000001
 30
0.0
 11
6.0860000000000003
 21
2.7810000000000001
 31
0.0
  0
LINE
  5
E4
100
AcDbEntity
100
AcDbLine
  8
0
 62
256
370
0
  6
BYLAYER
 10
6.0860000000000003
 20
2.7810000000000001
 30
0.0
 11
5.9820000000000002
 21
2.71
 31
0.0
  0
LINE
  5
E5
100
AcDbEntity
100
AcDbLine
  8
0
 62
256
370
0
  6
BYLAYER
 10
5.9820000000000002
 20
2.71
 30
0.0
 11
5.9459999999999997
 21
2.6899999999999999
 31
0.0
  0
LINE
  5
E6
100
AcDbEntity
100
AcDbLine
  8
0
 62
256
370
0
  6
BYLAYER
 10
5.9459999999999997
 20
2.6899999999999999
 30
0.0
 11
5.6340000000000003
 21
2.5489999999999999
 31
0.0
  0
LINE
  5
E7
100
AcDbEntity
100
AcDbLine
  8
0
 62
256
370
0
  6
BYLAYER
 10
5.6340000000000003
 20
2.5489999999999999
 30
0.0
 11
5.8520000000000003
 21
1.998
 31
0.0
  0
LINE
  5
E8
100
AcDbEntity
100
AcDbLine
  8
0
 62
256
370
0
  6
BYLAYER
 10
5.8520000000000003
 20
1.998
 30
0.0
 11
6.1760000000000002
 21
2.109
 31
0.0
  0
LINE
  5
E9
100
AcDbEntity
100
AcDbLine
  8
0
 62
256
370
0
  6
BYLAYER
 10
6.1760000000000002
 20
2.109
 30
0.0
 11
6.2160000000000002
 21
2.1190000000000002
 31
0.0
  0
LINE
  5
EA
100
AcDbEntity
100
AcDbLine
  8
0
 62
256
370
0
  6
BYLAYER
 10
6.2160000000000002
 20
2.1190000000000002
 30
0.0
 11
6.3399999999999999
 21
2.1389999999999998
 31
0.0
  0
LINE
  5
EB
100
AcDbEntity
100
AcDbLine
  8
0
 62
256
370
0
  6
BYLAYER
 10
6.3399999999999999
 20
2.1389999999999998
 30
0.0
 11
6.5499999999999998
 21
2.1469999999999998
 31
0.0
  0
LINE
  5
EC
100
AcDbEntity
100
AcDbLine
  8
0
 62
256
370
0
  6
BYLAYER
 10
6.5499999999999998
 20
2.1469999999999998
 30
0.0
 11
6.8419999999999996
 21
2.1259999999999999
 31
0.0
  0
LINE
  5
ED
100
AcDbEntity
100
AcDbLine
  8
0
 62
256
370
0
  6
BYLAYER
 10
6.8419999999999996
 20
2.1259999999999999
 30
0.0
 11
7.2119999999999997
 21
2.0579999999999998
 31
0.0
  0
LINE
  5
EE
100
AcDbEntity
100
AcDbLine
  8
0
 62
256
370
0
  6
BYLAYER
 10
7.2119999999999997
 20
2.0579999999999998
 30
0.0
 11
7.3109999999999999
 21
1.671
 31
0.0
  0
LINE
  5
EF
100
AcDbEntity
100
AcDbLine
  8
0
 62
256
370
0
  6
BYLAYER
 10
7.3109999999999999
 20
1.671
 30
0.0
 11
7.0199999999999996
 21
1.4330000000000001
 31
0.0
  0
LINE
  5
F0
100
AcDbEntity
100
AcDbLine
  8
0
 62
256
370
0
  6
BYLAYER
 10
7.0199999999999996
 20
1.4330000000000001
 30
0.0
 11
6.774
 21
1.274
 31
0.0
  0
LINE
  5
F1
100
AcDbEntity
100
AcDbLine
  8
0
 62
256
370
0
  6
BYLAYER
 10
6.774
 20
1.274
 30
0.0
 11
6.5860000000000003
 21
1.1799999999999999
 31
0.0
  0
LINE
  5
F2
100
AcDbEntity
100
AcDbLine
  8
0
 62
256
370
0
  6
BYLAYER
 10
6.5860000000000003
 20
1.1799999999999999
 30
0.0
 11
6.468
 21
1.137
 31
0.0
  0
LINE
  5
F3
100
AcDbEntity
100
AcDbLine
  8
0
 62
256
370
0
  6
BYLAYER
 10
6.468
 20
1.137
 30
0.0
 11
6.4279999999999999
 21
1.127
 31
0.0
  0
LINE
  5
F4
100
AcDbEntity
100
AcDbLine
  8
0
 62
256
370
0
  6
BYLAYER
 10
6.4279999999999999
 20
1.127
 30
0.0
 11
6.0910000000000002
 21
1.0680000000000001
 31
0.0
  0
LINE
  5
F5
100
AcDbEntity
100
AcDbLine
  8
0
 62
256
370
0
  6
BYLAYER
 10
6.0910000000000002
 20
1.0680000000000001
 30
0.0
 11
6.165
 21
0.48
 31
0.0
  0
LINE
  5
F6
100
AcDbEntity
100
AcDbLine
  8
0
 62
256
370
0
  6
BYLAYER
 10
6.165
 20
0.48
 30
0.0
 11
6.5060000000000002
 21
0.507
 31
0.0
  0
LINE
  5
F7
100
AcDbEntity
100
AcDbLine
  8
0
 62
256
370
0
  6
BYLAYER
 10
6.5060000000000002
 20
0.507
 30
0.0
 11
6.548
 21
0.507
 31
0.0
  0
LINE
  5
F8
100
AcDbEntity
100
AcDbLine
  8
0
 62
256
370
0
  6
BYLAYER
 10
6.548
 20
0.507
 30
0.0
 11
6.673
 21
0.495
 31
0.0
  0
LINE
  5
F9
100
AcDbEntity
100
AcDbLine
  8
0
 62
256
370
0
  6
BYLAYER
 10
6.673
 20
0.495
 30
0.0
 11
6.8780000000000001
 21
0.451
 31
0.0
  0
LINE
  5
FA
100
AcDbEntity
100
AcDbLine
  8
0
 62
256
370
0
  6
BYLAYER
 10
6.8780000000000001
 20
0.451
 30
0.0
 11
7.1559999999999997
 21
0.358
 31
0.0
  0
LINE
  5
FB
100
AcDbEntity
100
AcDbLine
  8
0
 62
256
370
0
  6
BYLAYER
 10
7.1559999999999997
 20
0.358
 30
0.0
 11
7.4969999999999999
 21
0.2
 31
0.0
  0
LINE
  5
FC
100
AcDbEntity
100
AcDbLine
  8
0
 62
256
370
0
  6
BYLAYER
 10
7.4969999999999999
 20
0.2
 30
0.0
 11
7.4969999999999999
 21
-0.2
 31
0.0
  0
LINE
  5
FD
100
AcDbEntity
100
AcDbLine
  8
0
 62
256
370
0
  6
BYLAYER
 10
7.4969999999999999
 20
-0.2
 30
0.0
 11
7.1559999999999997
 21
-0.358
 31
0.0
  0
LINE
  5
FE
100
AcDbEntity
100
AcDbLine
  8
0
 62
256
370
0
  6
BYLAYER
 10
7.1559999999999997
 20
-0.358
 30
0.0
 11
6.8780000000000001
 21
-0.451
 31
0.0
  0
LINE
  5
FF
100
AcDbEntity
100
AcDbLine
  8
0
 62
256
370
0
  6
BYLAYER
 10
6.8780000000000001
 20
-0.451
 30
0.0
 11
6.673
 21
-0.495
 31
0.0
  0
LINE
  5
100
100
AcDbEntity
100
AcDbLine
  8
0
 62
256
370
0
  6
BYLAYER
 10
6.673
 20
-0.495
 30
0.0
 11
6.548
 21
-0.507
 31
0.0
  0
LINE
  5
101
100
AcDbEntity
100
AcDbLine
  8
0
 62
256
370
0
  6
BYLAYER
 10
6.548
 20
-0.507
 30
0.0
 11
6.5060000000000002
 21
-0.507
 31
0.0
  0
LINE
  5
102
100
AcDbEntity
100
AcDbLine
  8
0
 62
256
370
0
  6
BYLAYER
 10
6.5060000000000002
 20
-0.507
 30
0.0
 11
6.165
 21
-0.48
 31
0.0
  0
LINE
  5
103
100
AcDbEntity
100
AcDbLine
  8
0
 62
256
370
0
  6
BYLAYER
 10
6.165
 20
-0.48
 30
0.0
 11
6.0910000000000002
 21
-1.0680000000000001
 31
0.0
  0
LINE
  5
104
100
AcDbEntity
100
AcDbLine
  8
0
 62
256
370
0
  6
BYLAYER
 10
6.0910000000000002
 20
-1.0680000000000001
 30
0.0
 11
6.4279999999999999
 21
-1.127
 31
0.0
  0
LINE
  5
105
100
AcDbEntity
100
AcDbLine
  8
0
 62
256
370
0
  6
BYLAYER
 10
6.4279999999999999
 20
-1.127
 30
0.0
 11
6.468
 21
-1.137
 31
0.0
  0
LINE
  5
106
100
AcDbEntity
100
AcDbLine
  8
0
 62
256
370
0
  6
BYLAYER
 10
6.468
 20
-1.137
 30
0.0
 11
6.5860000000000003
 21
-1.1799999999999999
 31
0.0
  0
LINE
  5
107
100
AcDbEntity
100
AcDbLine
  8
0
 62
256
370
0
  6
BYLAYER
 10
6.5860000000000003
 20
-1.1799999999999999
 30
0.0
 11
6.774
 21
-1.274
 31
0.0
  0
LINE
  5
108
100
AcDbEntity
100
AcDbLine
  8
0
 62
256
370
0
  6
BYLAYER
 10
6.774
 20
-1.274
 30
0.0
 11
7.0199999999999996
 21
-1.4330000000000001
 31
0.0
  0
LINE
  5
109
100
AcDbEntity
100
AcDbLine
  8
0
 62
256
370
0
  6
BYLAYER
 10
7.0199999999999996
 20
-1.4330000000000001
 30
0.0
 11
7.3109999999999999
 21
-1.671
 31
0.0
  0
LINE
  5
10A
100
AcDbEntity
100
AcDbLine
  8
0
 62
256
370
0
  6
BYLAYER
 10
7.3109999999999999
 20
-1.671
 30
0.0
 11
7.2119999999999997
 21
-2.0579999999999998
 31
0.0
  0
LINE
  5
10B
100
AcDbEntity
100
AcDbLine
  8
0
 62
256
370
0
  6
BYLAYER
 10
7.2119999999999997
 20
-2.0579999999999998
 30
0.0
 11
6.8419999999999996
 21
-2.1259999999999999
 31
0.0
  0
LINE
  5
10C
100
AcDbEntity
100
AcDbLine
  8
0
 62
256
370
0
  6
BYLAYER
 10
6.8419999999999996
 20
-2.1259999999999999
 30
0.0
 11
6.5499999999999998
 21
-2.1469999999999998
 31
0.0
  0
LINE
  5
10D
100
AcDbEntity
100
AcDbLine
  8
0
 62
256
370
0
  6
BYLAYER
 10
6.5499999999999998
 20
-2.1469999999999998
 30
0.0
 11
6.3399999999999999
 21
-2.1389999999999998
 31
0.0
  0
LINE
  5
10E
100
AcDbEntity
100
AcDbLine
  8
0
 62
256
370
0
  6
BYLAYER
 10
6.3399999999999999
 20
-2.1389999999999998
 30
0.0
 11
6.2160000000000002
 21
-2.1190000000000002
 31
0.0
  0
LINE
  5
10F
100
AcDbEntity
100
AcDbLine
  8
0
 62
256
370
0
  6
BYLAYER
 10
6.2160000000000002
 20
-2.1190000000000002
 30
0.0
 11
6.1760000000000002
 21
-2.109
 31
0.0
  0
LINE
  5
110
100
AcDbEntity
100
AcDbLine
  8
0
 62
256
370
0
  6
BYLAYER
 10
6.1760000000000002
 20
-2.109
 30
0.0
 11
5.8520000000000003
 21
-1.998
 31
0.0
  0
LINE
  5
111
100
AcDbEntity
100
AcDbLine
  8
0
 62
256
370
0
  6
BYLAYER
 10
5.8520000000000003
 20
-1.998
 30
0.0
 11
5.6340000000000003
 21
-2.5489999999999999
 31
0.0
  0
LINE
  5
112
100
AcDbEntity
100
AcDbLine
  8
0
 62
256
370
0
  6
BYLAYER
 10
5.6340000000000003
 20
-2.5489999999999999
 30
0.0
 11
5.9459999999999997
 21
-2.6899999999999999
 31
0.0
  0
LINE
  5
113
100
AcDbEntity
100
AcDbLine
  8
0
 62
256
370
0
  6
BYLAYER
 10
5.9459999999999997
 20
-2.6899999999999999
 30
0.0
 11
5.9820000000000002
 21
-2.71
 31
0.0
  0
LINE
  5
114
100
AcDbEntity
100
AcDbLine
  8
0
 62
256
370
0
  6
BYLAYER
 10
5.9820000000000002
 20
-2.71
 30
0.0
 11
6.0860000000000003
 21
-2.7810000000000001
 31
0.0
  0
LINE
  5
115
100
AcDbEntity
100
AcDbLine
  8
0
 62
256
370
0
  6
BYLAYER
 10
6.0860000000000003
 20
-2.7810000000000001
 30
0.0
 11
6.2450000000000001
 21
-2.9180000000000001
 31
0.0
  0
LINE
  5
116
100
AcDbEntity
100
AcDbLine
  8
0
 62
256
370
0
  6
BYLAYER
 10
6.2450000000000001
 20
-2.9180000000000001
 30
0.0
 11
6.4429999999999996
 21
-3.1339999999999999
 31
0.0
  0
LINE
  5
117
100
AcDbEntity
100
AcDbLine
  8
0
 62
256
370
0
  6
BYLAYER
 10
6.4429999999999996
 20
-3.1339999999999999
 30
0.0
 11
6.6660000000000004
 21
-3.4359999999999999
 31
0.0
  0
LINE
  5
118
100
AcDbEntity
100
AcDbLine
  8
0
 62
256
370
0
  6
BYLAYER
 10
6.6660000000000004
 20
-3.4359999999999999
 30
0.0
 11
6.4729999999999999
 21
-3.7869999999999999
 31
0.0
  0
LINE
  5
119
100
AcDbEntity
100
AcDbLine
  8
0
 62
256
370
0
  6
BYLAYER
 10
6.4729999999999999
 20
-3.7869999999999999
 30
0.0
 11
6.0979999999999999
 21
-3.7610000000000001
 31
0.0
  0
LINE
  5
11A
100
AcDbEntity
100
AcDbLine
  8
0
 62
256
370
0
  6
BYLAYER
 10
6.0979999999999999
 20
-3.7610000000000001
 30
0.0
 11
5.8099999999999996
 21
-3.7090000000000001
 31
0.0
  0
LINE
  5
11B
100
AcDbEntity
100
AcDbLine
  8
0
 62
256
370
0
  6
BYLAYER
 10
5.8099999999999996
 20
-3.7090000000000001
 30
0.0
 11
5.609
 21
-3.649
 31
0.0
  0
LINE
  5
11C
100
AcDbEntity
100
AcDbLine
  8
0
 62
256
370
0
  6
BYLAYER
 10
5.609
 20
-3.649
 30
0.0
 11
5.4939999999999998
 21
-3.5990000000000002
 31
0.0
  0
LINE
  5
11D
100
AcDbEntity
100
AcDbLine
  8
0
 62
256
370
0
  6
BYLAYER
 10
5.4939999999999998
 20
-3.5990000000000002
 30
0.0
 11
5.4569999999999999
 21
-3.5790000000000002
 31
0.0
  0
LINE
  5
11E
100
AcDbEntity
100
AcDbLine
  8
0
 62
256
370
0
  6
BYLAYER
 10
5.4569999999999999
 20
-3.5790000000000002
 30
0.0
 11
5.1710000000000003
 21
-3.3919999999999999
 31
0.0
  0
LINE
  5
11F
100
AcDbEntity
100
AcDbLine
  8
0
 62
256
370
0
  6
BYLAYER
 10
5.1710000000000003
 20
-3.3919999999999999
 30
0.0
 11
4.8230000000000004
 21
-3.8700000000000001
 31
0.0
  0
LINE
  5
120
100
AcDbEntity
100
AcDbLine
  8
0
 62
256
370
0
  6
BYLAYER
 10
4.8230000000000004
 20
-3.8700000000000001
 30
0.0
 11
5.0899999999999999
 21
-4.0839999999999996
 31
0.0
  0
LINE
  5
121
100
AcDbEntity
100
AcDbLine
  8
0
 62
256
370
0
  6
BYLAYER
 10
5.0899999999999999
 20
-4.0839999999999996
 30
0.0
 11
5.1200000000000001
 21
-4.1130000000000004
 31
0.0
  0
LINE
  5
122
100
AcDbEntity
100
AcDbLine
  8
0
 62
256
370
0
  6
BYLAYER
 10
5.1200000000000001
 20
-4.1130000000000004
 30
0.0
 11
5.2030000000000003
 21
-4.2069999999999999
 31
0.0
  0
LINE
  5
123
100
AcDbEntity
100
AcDbLine
  8
0
 62
256
370
0
  6
BYLAYER
 10
5.2030000000000003
 20
-4.2069999999999999
 30
0.0
 11
5.3230000000000004
 21
-4.3799999999999999
 31
0.0
  0
LINE
  5
124
100
AcDbEntity
100
AcDbLine
  8
0
 62
256
370
0
  6
BYLAYER
 10
5.3230000000000004
 20
-4.3799999999999999
 30
0.0
 11
5.4619999999999997
 21
-4.6379999999999999
 31
0.0
  0
LINE
  5
125
100
AcDbEntity
100
AcDbLine
  8
0
 62
256
370
0
  6
BYLAYER
 10
5.4619999999999997
 20
-4.6379999999999999
 30
0.0
 11
5.6020000000000003
 21
-4.9859999999999998
 31
0.0
  0
LINE
  5
126
100
AcDbEntity
100
AcDbLine
  8
0
 62
256
370
0
  6
BYLAYER
 10
5.6020000000000003
 20
-4.9859999999999998
 30
0.0
 11
5.3280000000000003
 21
-5.2779999999999996
 31
0.0
  0
LINE
  5
127
100
AcDbEntity
100
AcDbLine
  8
0
 62
256
370
0
  6
BYLAYER
 10
5.3280000000000003
 20
-5.2779999999999996
 30
0.0
 11
4.9710000000000001
 21
-5.1600000000000001
 31
0.0
  0
LINE
  5
128
100
AcDbEntity
100
AcDbLine
  8
0
 62
256
370
0
  6
BYLAYER
 10
4.9710000000000001
 20
-5.1600000000000001
 30
0.0
 11
4.7050000000000001
 21
-5.0369999999999999
 31
0.0
  0
LINE
  5
129
100
AcDbEntity
100
AcDbLine
  8
0
 62
256
370
0
  6
BYLAYER
 10
4.7050000000000001
 20
-5.0369999999999999
 30
0.0
 11
4.5259999999999998
 21
-4.9290000000000003
 31
0.0
  0
LINE
  5
12A
100
AcDbEntity
100
AcDbLine
  8
0
 62
256
370
0
  6
BYLAYER
 10
4.5259999999999998
 20
-4.9290000000000003
 30
0.0
 11
4.4260000000000002
 21
-4.8520000000000003
 31
0.0
  0
LINE
  5
12B
100
AcDbEntity
100
AcDbLine
  8
0
 62
256
370
0
  6
BYLAYER
 10
4.4260000000000002
 20
-4.8520000000000003
 30
0.0
 11
4.3959999999999999
 21
-4.8230000000000004
 31
0.0
  0
LINE
  5
12C
100
AcDbEntity
100
AcDbLine
  8
0
 62
256
370
0
  6
BYLAYER
 10
4.3959999999999999
 20
-4.8230000000000004
 30
0.0
 11
4.1660000000000004
 21
-4.5709999999999997
 31
0.0
  0
LINE
  5
12D
100
AcDbEntity
100
AcDbLine
  8
0
 62
256
370
0
  6
BYLAYER
 10
4.1660000000000004
 20
-4.5709999999999997
 30
0.0
 11
3.7090000000000001
 21
-4.9480000000000004
 31
0.0
  0
LINE
  5
12E
100
AcDbEntity
100
AcDbLine
  8
0
 62
256
370
0
  6
BYLAYER
 10
3.7090000000000001
 20
-4.9480000000000004
 30
0.0
 11
3.9140000000000001
 21
-5.2220000000000004
 31
0.0
  0
LINE
  5
12F
100
AcDbEntity
100
AcDbLine
  8
0
 62
256
370
0
  6
BYLAYER
 10
3.9140000000000001
 20
-5.2220000000000004
 30
0.0
 11
3.9369999999999998
 21
-5.2569999999999997
 31
0.0
  0
LINE
  5
130
100
AcDbEntity
100
AcDbLine
  8
0
 62
256
370
0
  6
BYLAYER
 10
3.9369999999999998
 20
-5.2569999999999997
 30
0.0
 11
3.9940000000000002
 21
-5.3689999999999998
 31
0.0
  0
LINE
  5
131
100
AcDbEntity
100
AcDbLine
  8
0
 62
256
370
0
  6
BYLAYER
 10
3.9940000000000002
 20
-5.3689999999999998
 30
0.0
 11
4.0659999999999998
 21
-5.5659999999999998
 31
0.0
  0
LINE
  5
132
100
AcDbEntity
100
AcDbLine
  8
0
 62
256
370
0
  6
BYLAYER
 10
4.0659999999999998
 20
-5.5659999999999998
 30
0.0
 11
4.1369999999999996
 21
-5.8499999999999996
 31
0.0
  0
LINE
  5
133
100
AcDbEntity
100
AcDbLine
  8
0
 62
256
370
0
  6
BYLAYER
 10
4.1369999999999996
 20
-5.8499999999999996
 30
0.0
 11
4.1859999999999999
 21
-6.2229999999999999
 31
0.0
  0
LINE
  5
134
100
AcDbEntity
100
AcDbLine
  8
0
 62
256
370
0
  6
BYLAYER
 10
4.1859999999999999
 20
-6.2229999999999999
 30
0.0
 11
3.8479999999999999
 21
-6.4370000000000003
 31
0.0
  0
LINE
  5
135
100
AcDbEntity
100
AcDbLine
  8
0
 62
256
370
0
  6
BYLAYER
 10
3.8479999999999999
 20
-6.4370000000000003
 30
0.0
 11
3.532
 21
-6.234
 31
0.0
  0
LINE
  5
136
100
AcDbEntity
100
AcDbLine
  8
0
 62
256
370
0
  6
BYLAYER
 10
3.532
 20
-6.234
 30
0.0
 11
3.3050000000000002
 21
-6.0490000000000004
 31
0.0
  0
LINE
  5
137
100
AcDbEntity
100
AcDbLine
  8
0
 62
256
370
0
  6
BYLAYER
 10
3.3050000000000002
 20
-6.0490000000000004
 30
0.0
 11
3.1579999999999999
 21
-5.899
 31
0.0
  0
LINE
  5
138
100
AcDbEntity
100
AcDbLine
  8
0
 62
256
370
0
  6
BYLAYER
 10
3.1579999999999999
 20
-5.899
 30
0.0
 11
3.081
 21
-5.7999999999999998
 31
0.0
  0
LINE
  5
139
100
AcDbEntity
100
AcDbLine
  8
0
 62
256
370
0
  6
BYLAYER
 10
3.081
 20
-5.7999999999999998
 30
0.0
 11
3.0579999999999998
 21
-5.7649999999999997
 31
0.0
  0
LINE
  5
13A
100
AcDbEntity
100
AcDbLine
  8
0
 62
256
370
0
  6
BYLAYER
 10
3.0579999999999998
 20
-5.7649999999999997
 30
0.0
 11
2.8969999999999998
 21
-5.4619999999999997
 31
0.0
  0
LINE
  5
13B
100
AcDbEntity
100
AcDbLine
  8
0
 62
256
370
0
  6
BYLAYER
 10
2.8969999999999998
 20
-5.4619999999999997
 30
0.0
 11
2.3620000000000001
 21
-5.7140000000000004
 31
0.0
  0
LINE
  5
13C
100
AcDbEntity
100
AcDbLine
  8
0
 62
256
370
0
  6
BYLAYER
 10
2.3620000000000001
 20
-5.7140000000000004
 30
0.0
 11
2.4929999999999999
 21
-6.0309999999999997
 31
0.0
  0
LINE
  5
13D
100
AcDbEntity
100
AcDbLine
  8
0
 62
256
370
0
  6
BYLAYER
 10
2.4929999999999999
 20
-6.0309999999999997
 30
0.0
 11
2.5059999999999998
 21
-6.0709999999999997
 31
0.0
  0
LINE
  5
13E
100
AcDbEntity
100
AcDbLine
  8
0
 62
256
370
0
  6
BYLAYER
 10
2.5059999999999998
 20
-6.0709999999999997
 30
0.0
 11
2.5329999999999999
 21
-6.1929999999999996
 31
0.0
  0
LINE
  5
13F
100
AcDbEntity
100
AcDbLine
  8
0
 62
256
370
0
  6
BYLAYER
 10
2.5329999999999999
 20
-6.1929999999999996
 30
0.0
 11
2.5539999999999998
 21
-6.4020000000000001
 31
0.0
  0
LINE
  5
140
100
AcDbEntity
100
AcDbLine
  8
0
 62
256
370
0
  6
BYLAYER
 10
2.5539999999999998
 20
-6.4020000000000001
 30
0.0
 11
2.552
 21
-6.6950000000000003
 31
0.0
  0
LINE
  5
141
100
AcDbEntity
100
AcDbLine
  8
0
 62
256
370
0
  6
BYLAYER
 10
2.552
 20
-6.6950000000000003
 30
0.0
 11
2.5070000000000001
 21
-7.0679999999999996
 31
0.0
  0
LINE
  5
142
100
AcDbEntity
100
AcDbLine
  8
0
 62
256
370
0
  6
BYLAYER
 10
2.5070000000000001
 20
-7.0679999999999996
 30
0.0
 11
2.1259999999999999
 21
-7.1920000000000002
 31
0.0
  0
LINE
  5
143
100
AcDbEntity
100
AcDbLine
  8
0
 62
256
370
0
  6
BYLAYER
 10
2.1259999999999999
 20
-7.1920000000000002
 30
0.0
 11
1.871
 21
-6.9160000000000004
 31
0.0
  0
LINE
  5
144
100
AcDbEntity
100
AcDbLine
  8
0
 62
256
370
0
  6
BYLAYER
 10
1.871
 20
-6.9160000000000004
 30
0.0
 11
1.696
 21
-6.681
 31
0.0
  0
LINE
  5
145
100
AcDbEntity
100
AcDbLine
  8
0
 62
256
370
0
  6
BYLAYER
 10
1.696
 20
-6.681
 30
0.0
 11
1.591
 21
-6.4989999999999997
 31
0.0
  0
LINE
  5
146
100
AcDbEntity
100
AcDbLine
  8
0
 62
256
370
0
  6
BYLAYER
 10
1.591
 20
-6.4989999999999997
 30
0.0
 11
1.5409999999999999
 21
-6.3840000000000003
 31
0.0
  0
LINE
  5
147
100
AcDbEntity
100
AcDbLine
  8
0
 62
256
370
0
  6
BYLAYER
 10
1.5409999999999999
 20
-6.3840000000000003
 30
0.0
 11
1.528
 21
-6.3440000000000003
 31
0.0
  0
LINE
  5
148
100
AcDbEntity
100
AcDbLine
  8
0
 62
256
370
0
  6
BYLAYER
 10
1.528
 20
-6.3440000000000003
 30
0.0
 11
1.448
 21
-6.0110000000000001
 31
0.0
  0
LINE
  5
149
100
AcDbEntity
100
AcDbLine
  8
0
 62
256
370
0
  6
BYLAYER
 10
1.448
 20
-6.0110000000000001
 30
0.0
 11
0.867
 21
-6.1230000000000002
 31
0.0
  0
LINE
  5
14A
100
AcDbEntity
100
AcDbLine
  8
0
 62
256
370
0
  6
BYLAYER
 10
0.867
 20
-6.1230000000000002
 30
0.0
 11
0.915
 21
-6.4610000000000003
 31
0.0
  0
LINE
  5
14B
100
AcDbEntity
100
AcDbLine
  8
0
 62
256
370
0
  6
BYLAYER
 10
0.915
 20
-6.4610000000000003
 30
0.0
 11
0.917
 21
-6.5030000000000001
 31
0.0
  0
LINE
  5
14C
100
AcDbEntity
100
AcDbLine
  8
0
 62
256
370
0
  6
BYLAYER
 10
0.917
 20
-6.5030000000000001
 30
0.0
 11
0.913
 21
-6.6289999999999996
 31
0.0
  0
LINE
  5
14D
100
AcDbEntity
100
AcDbLine
  8
0
 62
256
370
0
  6
BYLAYER
 10
0.913
 20
-6.6289999999999996
 30
0.0
 11
0.882
 21
-6.8360000000000003
 31
0.0
  0
LINE
  5
14E
100
AcDbEntity
100
AcDbLine
  8
0
 62
256
370
0
  6
BYLAYER
 10
0.882
 20
-6.8360000000000003
 30
0.0
 11
0.8070000000000001
 21
-7.1189999999999998
 31
0.0
  0
LINE
  5
14F
100
AcDbEntity
100
AcDbLine
  8
0
 62
256
370
0
  6
BYLAYER
 10
0.8070000000000001
 20
-7.1189999999999998
 30
0.0
 11
0.67
 21
-7.4699999999999998
 31
0.0
  0
LINE
  5
150
100
AcDbEntity
100
AcDbLine
  8
0
 62
256
370
0
  6
BYLAYER
 10
0.67
 20
-7.4699999999999998
 30
0.0
 11
0.271
 21
-7.4950000000000001
 31
0.0
  0
LINE
  5
151
100
AcDbEntity
100
AcDbLine
  8
0
 62
256
370
0
  6
BYLAYER
 10
0.271
 20
-7.4950000000000001
 30
0.0
 11
0.092
 21
-7.1639999999999997
 31
0.0
  0
LINE
  5
152
100
AcDbEntity
100
AcDbLine
  8
0
 62
256
370
0
  6
BYLAYER
 10
0.092
 20
-7.1639999999999997
 30
0.0
 11
-0.018
 21
-6.8929999999999998
 31
0.0
  0
LINE
  5
153
100
AcDbEntity
100
AcDbLine
  8
0
 62
256
370
0
  6
BYLAYER
 10
-0.018
 20
-6.8929999999999998
 30
0.0
 11
-0.075
 21
-6.6909999999999998
 31
0.0
  0
LINE
  5
154
100
AcDbEntity
100
AcDbLine
  8
0
 62
256
370
0
  6
BYLAYER
 10
-0.075
 20
-6.6909999999999998
 30
0.0
 11
-0.095
 21
-6.5670000000000002
 31
0.0
  0
LINE
  5
155
100
AcDbEntity
100
AcDbLine
  8
0
 62
256
370
0
  6
BYLAYER
 10
-0.095
 20
-6.5670000000000002
 30
0.0
 11
-0.097
 21
-6.5250000000000004
 31
0.0
  0
LINE
  5
156
100
AcDbEntity
100
AcDbLine
  8
0
 62
256
370
0
  6
BYLAYER
 10
-0.097
 20
-6.5250000000000004
 30
0.0
 11
-0.092
 21
-6.1829999999999998
 31
0.0
  0
LINE
  5
157
100
AcDbEntity
100
AcDbLine
  8
0
 62
256
370
0
  6
BYLAYER
 10
-0.092
 20
-6.1829999999999998
 30
0.0
 11
-0.6830000000000001
 21
-6.1459999999999999
 31
0.0
  0
LINE
  5
158
100
AcDbEntity
100
AcDbLine
  8
0
 62
256
370
0
  6
BYLAYER
 10
-0.6830000000000001
 20
-6.1459999999999999
 30
0.0
 11
-0.721
 21
-6.4859999999999998
 31
0.0
  0
LINE
  5
159
100
AcDbEntity
100
AcDbLine
  8
0
 62
256
370
0
  6
BYLAYER
 10
-0.721
 20
-6.4859999999999998
 30
0.0
 11
-0.729
 21
-6.5270000000000001
 31
0.0
  0
LINE
  5
15A
100
AcDbEntity
100
AcDbLine
  8
0
 62
256
370
0
  6
BYLAYER
 10
-0.729
 20
-6.5270000000000001
 30
0.0
 11
-0.764
 21
-6.6479999999999997
 31
0.0
  0
LINE
  5
15B
100
AcDbEntity
100
AcDbLine
  8
0
 62
256
370
0
  6
BYLAYER
 10
-0.764
 20
-6.6479999999999997
 30
0.0
 11
-0.846
 21
-6.8410000000000002
 31
0.0
  0
LINE
  5
15C
100
AcDbEntity
100
AcDbLine
  8
0
 62
256
370
0
  6
BYLAYER
 10
-0.846
 20
-6.8410000000000002
 30
0.0
 11
-0.989
 21
-7.0960000000000001
 31
0.0
  0
LINE
  5
15D
100
AcDbEntity
100
AcDbLine
  8
0
 62
256
370
0
  6
BYLAYER
 10
-0.989
 20
-7.0960000000000001
 30
0.0
 11
-1.208
 21
-7.4020000000000001
 31
0.0
  0
LINE
  5
15E
100
AcDbEntity
100
AcDbLine
  8
0
 62
256
370
0
  6
BYLAYER
 10
-1.208
 20
-7.4020000000000001
 30
0.0
 11
-1.601
 21
-7.327
 31
0.0
  0
LINE
  5
15F
100
AcDbEntity
100
AcDbLine
  8
0
 62
256
370
0
  6
BYLAYER
 10
-1.601
 20
-7.327
 30
0.0
 11
-1.6930000000000001
 21
-6.9619999999999997
 31
0.0
  0
LINE
  5
160
100
AcDbEntity
100
AcDbLine
  8
0
 62
256
370
0
  6
BYLAYER
 10
-1.6930000000000001
 20
-6.9619999999999997
 30
0.0
 11
-1.732
 21
-6.6719999999999997
 31
0.0
  0
LINE
  5
161
100
AcDbEntity
100
AcDbLine
  8
0
 62
256
370
0
  6
BYLAYER
 10
-1.732
 20
-6.6719999999999997
 30
0.0
 11
-1.7370000000000001
 21
-6.4619999999999997
 31
0.0
  0
LINE
  5
162
100
AcDbEntity
100
AcDbLine
  8
0
 62
256
370
0
  6
BYLAYER
 10
-1.7370000000000001
 20
-6.4619999999999997
 30
0.0
 11
-1.7250000000000001
 21
-6.3369999999999997
 31
0.0
  0
LINE
  5
163
100
AcDbEntity
100
AcDbLine
  8
0
 62
256
370
0
  6
BYLAYER
 10
-1.7250000000000001
 20
-6.3369999999999997
 30
0.0
 11
-1.7170000000000001
 21
-6.2960000000000003
 31
0.0
  0
LINE
  5
164
100
AcDbEntity
100
AcDbLine
  8
0
 62
256
370
0
  6
BYLAYER
 10
-1.7170000000000001
 20
-6.2960000000000003
 30
0.0
 11
-1.627
 21
-5.9649999999999999
 31
0.0
  0
LINE
  5
165
100
AcDbEntity
100
AcDbLine
  8
0
 62
256
370
0
  6
BYLAYER
 10
-1.627
 20
-5.9649999999999999
 30
0.0
 11
-2.1899999999999999
 21
-5.7830000000000004
 31
0.0
  0
LINE
  5
166
100
AcDbEntity
100
AcDbLine
  8
0
 62
256
370
0
  6
BYLAYER
 10
-2.1899999999999999
 20
-5.7830000000000004
 30
0.0
 11
-2.3109999999999999
 21
-6.1029999999999998
 31
0.0
  0
LINE
  5
167
100
AcDbEntity
100
AcDbLine
  8
0
 62
256
370
0
  6
BYLAYER
 10
-2.3109999999999999
 20
-6.1029999999999998
 30
0.0
 11
-2.3290000000000002
 21
-6.141
 31
0.0
  0
LINE
  5
168
100
AcDbEntity
100
AcDbLine
  8
0
 62
256
370
0
  6
BYLAYER
 10
-2.3290000000000002
 20
-6.141
 30
0.0
 11
-2.3929999999999998
 21
-6.2489999999999997
 31
0.0
  0
LINE
  5
169
100
AcDbEntity
100
AcDbLine
  8
0
 62
256
370
0
  6
BYLAYER
 10
-2.3929999999999998
 20
-6.2489999999999997
 30
0.0
 11
-2.52
 21
-6.415
 31
0.0
  0
LINE
  5
16A
100
AcDbEntity
100
AcDbLine
  8
0
 62
256
370
0
  6
BYLAYER
 10
-2.52
 20
-6.415
 30
0.0
 11
-2.7229999999999999
 21
-6.6269999999999998
 31
0.0
  0
LINE
  5
16B
100
AcDbEntity
100
AcDbLine
  8
0
 62
256
370
0
  6
BYLAYER
 10
-2.7229999999999999
 20
-6.6269999999999998
 30
0.0
 11
-3.0110000000000001
 21
-6.8689999999999998
 31
0.0
  0
LINE
  5
16C
100
AcDbEntity
100
AcDbLine
  8
0
 62
256
370
0
  6
BYLAYER
 10
-3.0110000000000001
 20
-6.8689999999999998
 30
0.0
 11
-3.3730000000000002
 21
-6.6980000000000004
 31
0.0
  0
LINE
  5
16D
100
AcDbEntity
100
AcDbLine
  8
0
 62
256
370
0
  6
BYLAYER
 10
-3.3730000000000002
 20
-6.6980000000000004
 30
0.0
 11
-3.371
 21
-6.3230000000000004
 31
0.0
  0
LINE
  5
16E
100
AcDbEntity
100
AcDbLine
  8
0
 62
256
370
0
  6
BYLAYER
 10
-3.371
 20
-6.3230000000000004
 30
0.0
 11
-3.3370000000000002
 21
-6.0309999999999997
 31
0.0
  0
LINE
  5
16F
100
AcDbEntity
100
AcDbLine
  8
0
 62
256
370
0
  6
BYLAYER
 10
-3.3370000000000002
 20
-6.0309999999999997
 30
0.0
 11
-3.2890000000000001
 21
-5.827
 31
0.0
  0
LINE
  5
170
100
AcDbEntity
100
AcDbLine
  8
0
 62
256
370
0
  6
BYLAYER
 10
-3.2890000000000001
 20
-5.827
 30
0.0
 11
-3.2469999999999999
 21
-5.7089999999999996
 31
0.0
  0
LINE
  5
171
100
AcDbEntity
100
AcDbLine
  8
0
 62
256
370
0
  6
BYLAYER
 10
-3.2469999999999999
 20
-5.7089999999999996
 30
0.0
 11
-3.2290000000000001
 21
-5.6710000000000003
 31
0.0
  0
LINE
  5
172
100
AcDbEntity
100
AcDbLine
  8
0
 62
256
370
0
  6
BYLAYER
 10
-3.2290000000000001
 20
-5.6710000000000003
 30
0.0
 11
-3.0590000000000002
 21
-5.3730000000000002
 31
0.0
  0
LINE
  5
173
100
AcDbEntity
100
AcDbLine
  8
0
 62
256
370
0
  6
BYLAYER
 10
-3.0590000000000002
 20
-5.3730000000000002
 30
0.0
 11
-3.5590000000000002
 21
-5.0570000000000004
 31
0.0
  0
LINE
  5
174
100
AcDbEntity
100
AcDbLine
  8
0
 62
256
370
0
  6
BYLAYER
 10
-3.5590000000000002
 20
-5.0570000000000004
 30
0.0
 11
-3.7559999999999998
 21
-5.3360000000000003
 31
0.0
  0
LINE
  5
175
100
AcDbEntity
100
AcDbLine
  8
0
 62
256
370
0
  6
BYLAYER
 10
-3.7559999999999998
 20
-5.3360000000000003
 30
0.0
 11
-3.7829999999999999
 21
-5.3680000000000003
 31
0.0
  0
LINE
  5
176
100
AcDbEntity
100
AcDbLine
  8
0
 62
256
370
0
  6
BYLAYER
 10
-3.7829999999999999
 20
-5.3680000000000003
 30
0.0
 11
-3.8719999999999999
 21
-5.4569999999999999
 31
0.0
  0
LINE
  5
177
100
AcDbEntity
100
AcDbLine
  8
0
 62
256
370
0
  6
BYLAYER
 10
-3.8719999999999999
 20
-5.4569999999999999
 30
0.0
 11
-4.0369999999999999
 21
-5.5869999999999997
 31
0.0
  0
LINE
  5
178
100
AcDbEntity
100
AcDbLine
  8
0
 62
256
370
0
  6
BYLAYER
 10
-4.0369999999999999
 20
-5.5869999999999997
 30
0.0
 11
-4.2859999999999996
 21
-5.742
 31
0.0
  0
LINE
  5
179
100
AcDbEntity
100
AcDbLine
  8
0
 62
256
370
0
  6
BYLAYER
 10
-4.2859999999999996
 20
-5.742
 30
0.0
 11
-4.625
 21
-5.9039999999999999
 31
0.0
  0
LINE
  5
17A
100
AcDbEntity
100
AcDbLine
  8
0
 62
256
370
0
  6
BYLAYER
 10
-4.625
 20
-5.9039999999999999
 30
0.0
 11
-4.9329999999999998
 21
-5.649
 31
0.0
  0
LINE
  5
17B
100
AcDbEntity
100
AcDbLine
  8
0
 62
256
370
0
  6
BYLAYER
 10
-4.9329999999999998
 20
-5.649
 30
0.0
 11
-4.8369999999999997
 21
-5.2859999999999996
 31
0.0
  0
LINE
  5
17C
100
AcDbEntity
100
AcDbLine
  8
0
 62
256
370
0
  6
BYLAYER
 10
-4.8369999999999997
 20
-5.2859999999999996
 30
0.0
 11
-4.7320000000000002
 21
-5.0119999999999996
 31
0.0
  0
LINE
  5
17D
100
AcDbEntity
100
AcDbLine
  8
0
 62
256
370
0
  6
BYLAYER
 10
-4.7320000000000002
 20
-5.0119999999999996
 30
0.0
 11
-4.6349999999999998
 21
-4.8259999999999996
 31
0.0
  0
LINE
  5
17E
100
AcDbEntity
100
AcDbLine
  8
0
 62
256
370
0
  6
BYLAYER
 10
-4.6349999999999998
 20
-4.8259999999999996
 30
0.0
 11
-4.5650000000000004
 21
-4.7220000000000004
 31
0.0
  0
LINE
  5
17F
100
AcDbEntity
100
AcDbLine
  8
0
 62
256
370
0
  6
BYLAYER
 10
-4.5650000000000004
 20
-4.7220000000000004
 30
0.0
 11
-4.5380000000000003
 21
-4.6900000000000004
 31
0.0
  0
LINE
  5
180
100
AcDbEntity
100
AcDbLine
  8
0
 62
256
370
0
  6
BYLAYER
 10
-4.5380000000000003
 20
-4.6900000000000004
 30
0.0
 11
-4.2999999999999998
 21
-4.444
 31
0.0
  0
LINE
  5
181
100
AcDbEntity
100
AcDbLine
  8
0
 62
256
370
0
  6
BYLAYER
 10
-4.2999999999999998
 20
-4.444
 30
0.0
 11
-4.7050000000000001
 21
-4.0129999999999999
 31
0.0
  0
LINE
  5
182
100
AcDbEntity
100
AcDbLine
  8
0
 62
256
370
0
  6
BYLAYER
 10
-4.7050000000000001
 20
-4.0129999999999999
 30
0.0
 11
-4.9649999999999999
 21
-4.234
 31
0.0
  0
LINE
  5
183
100
AcDbEntity
100
AcDbLine
  8
0
 62
256
370
0
  6
BYLAYER
 10
-4.9649999999999999
 20
-4.234
 30
0.0
 11
-4.9989999999999997
 21
-4.2590000000000003
 31
0.0
  0
LINE
  5
184
100
AcDbEntity
100
AcDbLine
  8
0
 62
256
370
0
  6
BYLAYER
 10
-4.9989999999999997
 20
-4.2590000000000003
 30
0.0
 11
-5.1079999999999997
 21
-4.3230000000000004
 31
0.0
  0
LINE
  5
185
100
AcDbEntity
100
AcDbLine
  8
0
 62
256
370
0
  6
BYLAYER
 10
-5.1079999999999997
 20
-4.3230000000000004
 30
0.0
 11
-5.2990000000000004
 21
-4.4080000000000004
 31
0.0
  0
LINE
  5
186
100
AcDbEntity
100
AcDbLine
  8
0
 62
256
370
0
  6
BYLAYER
 10
-5.2990000000000004
 20
-4.4080000000000004
 30
0.0
 11
-5.5789999999999997
 21
-4.4960000000000004
 31
0.0
  0
LINE
  5
187
100
AcDbEntity
100
AcDbLine
  8
0
 62
256
370
0
  6
BYLAYER
 10
-5.5789999999999997
 20
-4.4960000000000004
 30
0.0
 11
-5.9480000000000004
 21
-4.5679999999999996
 31
0.0
  0
LINE
  5
188
100
AcDbEntity
100
AcDbLine
  8
0
 62
256
370
0
  6
BYLAYER
 10
-5.9480000000000004
 20
-4.5679999999999996
 30
0.0
 11
-6.1829999999999998
 21
-4.2450000000000001
 31
0.0
  0
LINE
  5
189
100
AcDbEntity
100
AcDbLine
  8
0
 62
256
370
0
  6
BYLAYER
 10
-6.1829999999999998
 20
-4.2450000000000001
 30
0.0
 11
-6.0
 21
-3.9169999999999998
 31
0.0
  0
LINE
  5
18A
100
AcDbEntity
100
AcDbLine
  8
0
 62
256
370
0
  6
BYLAYER
 10
-6.0
 20
-3.9169999999999998
 30
0.0
 11
-5.8300000000000001
 21
-3.6779999999999999
 31
0.0
  0
LINE
  5
18B
100
AcDbEntity
100
AcDbLine
  8
0
 62
256
370
0
  6
BYLAYER
 10
-5.8300000000000001
 20
-3.6779999999999999
 30
0.0
 11
-5.6900000000000004
 21
-3.5219999999999998
 31
0.0
  0
LINE
  5
18C
100
AcDbEntity
100
AcDbLine
  8
0
 62
256
370
0
  6
BYLAYER
 10
-5.6900000000000004
 20
-3.5219999999999998
 30
0.0
 11
-5.5949999999999998
 21
-3.4390000000000001
 31
0.0
  0
LINE
  5
18D
100
AcDbEntity
100
AcDbLine
  8
0
 62
256
370
0
  6
BYLAYER
 10
-5.5949999999999998
 20
-3.4390000000000001
 30
0.0
 11
-5.5609999999999999
 21
-3.4140000000000001
 31
0.0
  0
LINE
  5
18E
100
AcDbEntity
100
AcDbLine
  8
0
 62
256
370
0
  6
BYLAYER
 10
-5.5609999999999999
 20
-3.4140000000000001
 30
0.0
 11
-5.2699999999999996
 21
-3.2349999999999999
 31
0.0
  0
LINE
  5
18F
100
AcDbEntity
100
AcDbLine
  8
0
 62
256
370
0
  6
BYLAYER
 10
-5.2699999999999996
 20
-3.2349999999999999
 30
0.0
 11
-5.5549999999999997
 21
-2.7160000000000002
 31
0.0
  0
LINE
  5
190
100
AcDbEntity
100
AcDbLine
  8
0
 62
256
370
0
  6
BYLAYER
 10
-5.5549999999999997
 20
-2.7160000000000002
 30
0.0
 11
-5.8620000000000001
 21
-2.8660000000000001
 31
0.0
  0
LINE
  5
191
100
AcDbEntity
100
AcDbLine
  8
0
 62
256
370
0
  6
BYLAYER
 10
-5.8620000000000001
 20
-2.8660000000000001
 30
0.0
 11
-5.9020000000000001
 21
-2.8820000000000001
 31
0.0
  0
LINE
  5
192
100
AcDbEntity
100
AcDbLine
  8
0
 62
256
370
0
  6
BYLAYER
 10
-5.9020000000000001
 20
-2.8820000000000001
 30
0.0
 11
-6.0220000000000002
 21
-2.9169999999999998
 31
0.0
  0
LINE
  5
193
100
AcDbEntity
100
AcDbLine
  8
0
 62
256
370
0
  6
BYLAYER
 10
-6.0220000000000002
 20
-2.9169999999999998
 30
0.0
 11
-6.2290000000000001
 21
-2.9510000000000001
 31
0.0
  0
LINE
  5
194
100
AcDbEntity
100
AcDbLine
  8
0
 62
256
370
0
  6
BYLAYER
 10
-6.2290000000000001
 20
-2.9510000000000001
 30
0.0
 11
-6.5220000000000002
 21
-2.9670000000000001
 31
0.0
  0
LINE
  5
195
100
AcDbEntity
100
AcDbLine
  8
0
 62
256
370
0
  6
BYLAYER
 10
-6.5220000000000002
 20
-2.9670000000000001
 30
0.0
 11
-6.8970000000000002
 21
-2.9460000000000002
 31
0.0
  0
LINE
  5
196
100
AcDbEntity
100
AcDbLine
  8
0
 62
256
370
0
  6
BYLAYER
 10
-6.8970000000000002
 20
-2.9460000000000002
 30
0.0
 11
-7.0439999999999996
 21
-2.5739999999999998
 31
0.0
  0
LINE
  5
197
100
AcDbEntity
100
AcDbLine
  8
0
 62
256
370
0
  6
BYLAYER
 10
-7.0439999999999996
 20
-2.5739999999999998
 30
0.0
 11
-6.7850000000000001
 21
-2.3010000000000002
 31
0.0
  0
LINE
  5
198
100
AcDbEntity
100
AcDbLine
  8
0
 62
256
370
0
  6
BYLAYER
 10
-6.7850000000000001
 20
-2.3010000000000002
 30
0.0
 11
-6.5609999999999999
 21
-2.113
 31
0.0
  0
LINE
  5
199
100
AcDbEntity
100
AcDbLine
  8
0
 62
256
370
0
  6
BYLAYER
 10
-6.5609999999999999
 20
-2.113
 30
0.0
 11
-6.3869999999999996
 21
-1.996
 31
0.0
  0
LINE
  5
19A
100
AcDbEntity
100
AcDbLine
  8
0
 62
256
370
0
  6
BYLAYER
 10
-6.3869999999999996
 20
-1.996
 30
0.0
 11
-6.2750000000000004
 21
-1.9390000000000001
 31
0.0
  0
LINE
  5
19B
100
AcDbEntity
100
AcDbLine
  8
0
 62
256
370
0
  6
BYLAYER
 10
-6.2750000000000004
 20
-1.9390000000000001
 30
0.0
 11
-6.2359999999999998
 21
-1.9239999999999999
 31
0.0
  0
LINE
  5
19C
100
AcDbEntity
100
AcDbLine
  8
0
 62
256
370
0
  6
BYLAYER
 10
-6.2359999999999998
 20
-1.9239999999999999
 30
0.0
 11
-5.9089999999999998
 21
-1.823
 31
0.0
  0
LINE
  5
19D
100
AcDbEntity
100
AcDbLine
  8
0
 62
256
370
0
  6
BYLAYER
 10
-5.9089999999999998
 20
-1.823
 30
0.0
 11
-6.056
 21
-1.2490000000000001
 31
0.0
  0
LINE
  5
19E
100
AcDbEntity
100
AcDbLine
  8
0
 62
256
370
0
  6
BYLAYER
 10
-6.056
 20
-1.2490000000000001
 30
0.0
 11
-6.391
 21
-1.3180000000000001
 31
0.0
  0
LINE
  5
19F
100
AcDbEntity
100
AcDbLine
  8
0
 62
256
370
0
  6
BYLAYER
 10
-6.391
 20
-1.3180000000000001
 30
0.0
 11
-6.4329999999999998
 21
-1.3240000000000001
 31
0.0
  0
LINE
  5
1A0
100
AcDbEntity
100
AcDbLine
  8
0
 62
256
370
0
  6
BYLAYER
 10
-6.4329999999999998
 20
-1.3240000000000001
 30
0.0
 11
-6.5579999999999998
 21
-1.327
 31
0.0
  0
LINE
  5
1A1
100
AcDbEntity
100
AcDbLine
  8
0
 62
256
370
0
  6
BYLAYER
 10
-6.5579999999999998
 20
-1.327
 30
0.0
 11
-6.7670000000000003
 21
-1.3089999999999999
 31
0.0
  0
LINE
  5
1A2
100
AcDbEntity
100
AcDbLine
  8
0
 62
256
370
0
  6
BYLAYER
 10
-6.7670000000000003
 20
-1.3089999999999999
 30
0.0
 11
-7.0549999999999997
 21
-1.252
 31
0.0
  0
LINE
  5
1A3
100
AcDbEntity
100
AcDbLine
  8
0
 62
256
370
0
  6
BYLAYER
 10
-7.0549999999999997
 20
-1.252
 30
0.0
 11
-7.4130000000000003
 21
-1.1379999999999999
 31
0.0
  0
LINE
  5
1A4
100
AcDbEntity
100
AcDbLine
  8
0
 62
256
370
0
  6
BYLAYER
 10
-7.4130000000000003
 20
-1.1379999999999999
 30
0.0
 11
-7.4630000000000001
 21
-0.741
 31
0.0
  0
CIRCLE
  5
1A5
100
AcDbEntity
100
AcDbCircle
  8
0
 62
256
370
0
  6
BYLAYER
 10
0.0
 20
0.0
 30
0.0
 40
2.0499999999999998
  0
ENDBLK
  5
1A6
100
AcDbEntity
  8
0
100
AcDbBlockEnd
  0
ENDSEC
  0
SECTION
  2
ENTITIES
  0
INSERT
  5
1A7
100
AcDbEntity
100
AcDbBlockReference
  8
0
 62
256
370
-1
  6
BYLAYER
  2
gear
 10
0.0
 20
0.0
 30
0.0
  0
ENDSEC
  0
SECTION
  2
OBJECTS
  0
DICTIONARY
  5
C
100
AcDbDictionary
280
0
281
1
  3
ACAD_GROUP
350
D
  3
ACAD_LAYOUT
350
1A
  3
ACAD_MLINESTYLE
350
17
  3
ACAD_PLOTSETTINGS
350
19
  3
ACAD_PLOTSTYLENAME
350
E
  3
AcDbVariableDictionary
350
1A8
  3
QCAD_OBJECTS
350
1A9
  0
DICTIONARY
  5
D
100
AcDbDictionary
280
0
281
1
  0
ACDBDICTIONARYWDFLT
  5
E
100
AcDbDictionary
281
1
  3
Normal
350
F
100
AcDbDictionaryWithDefault
340
F
  0
ACDBPLACEHOLDER
  5
F
  0
DICTIONARY
  5
17
100
AcDbDictionary
280
0
281
1
  3
Standard
350
18
  0
MLINESTYLE
  5
18
100
AcDbMlineStyle
  2
STANDARD
 70
0
  3

 62
256
 51
90.0
 52
90.0
 71
2
 49
0.5
 62
256
  6
BYLAYER
 49
-0.5
 62
256
  6
BYLAYER
  0
DICTIONARY
  5
19
100
AcDbDictionary
280
0
281
1
  0
DICTIONARY
  5
1A
100
AcDbDictionary
281
1
  3
Layout1
350
1E
  3
Layout2
350
26
  3
Model
350
22
  0
LAYOUT
  5
1E
100
AcDbPlotSettings
  1

  2
none_device
  4

  6

 40
0.0
 41
0.0
 42
0.0
 43
0.0
 44
0.0
 45
0.0
 46
0.0
 47
0.0
 48
0.0
 49
0.0
140
0.0
141
0.0
142
1.0
143
1.0
 70
688
 72
0
 73
0
 74
5
  7

 75
16
147
1.0
148
0.0
149
0.0
100
AcDbLayout
  1
Layout1
 70
1
 71
1
 10
0.0
 20
0.0
 11
420.0
 21
297.0
 12
0.0
 22
0.0
 32
0.0
 14
100000000000000000000.0
 24
100000000000000000000.0
 34
100000000000000000000.0
 15
-100000000000000000000.0
 25
-100000000000000000000.0
 35
-100000000000000000000.0
146
0.0
 13
0.0
 23
0.0
 33
0.0
 16
1.0
 26
0.0
 36
0.0
 17
0.0
 27
1.0
 37
0.0
 76
0
330
1B
  0
LAYOUT
  5
22
100
AcDbPlotSettings
  1

  2
none_device
  4

  6

 40
0.0
 41
0.0
 42
0.0
 43
0.0
 44
0.0
 45
0.0
 46
0.0
 47
0.0
 48
0.0
 49
0.0
140
0.0
141
0.0
142
1.0
143
1.0
 70
1712
 72
0
 73
0
 74
0
  7

 75
0
147
1.0
148
0.0
149
0.0
100
AcDbLayout
  1
Model
 70
1
 71
0
 10
0.0
 20
0.0
 11
12.0
 21
9.0
 12
0.0
 22
0.0
 32
0.0
 14
0.0
 24
0.0
 34
0.0
 15
0.0
 25
0.0
 35
0.0
146
0.0
 13
0.0
 23
0.0
 33
0.0
 16
1.0
 26
0.0
 36
0.0
 17
0.0
 27
1.0
 37
0.0
 76
0
330
1F
  0
LAYOUT
  5
26
100
AcDbPlotSettings
  1

  2
none_device
  4

  6

 40
0.0
 41
0.0
 42
0.0
 43
0.0
 44
0.0
 45
0.0
 46
0.0
 47
0.0
 48
0.0
 49
0.0
140
0.0
141
0.0
142
1.0
143
1.0
 70
688
 72
0
 73
0
 74
5
  7

 75
16
147
1.0
148
0.0
149
0.0
100
AcDbLayout
  1
Layout2
 70
1
 71
2
 10
0.0
 20
0.0
 11
12.0
 21
9.0
 12
0.0
 22
0.0
 32
0.0
 14
0.0
 24
0.0
 34
0.0
 15
0.0
 25
0.0
 35
0.0
146
0.0
 13
0.0
 23
0.0
 33
0.0
 16
1.0
 26
0.0
 36
0.0
 17
0.0
 27
1.0
 37
0.0
 76
0
330
23
  0
DICTIONARY
  5
1A8
100
AcDbDictionary
281
1
  3
DIMASSOC
350
1AB
  3
HIDETEXT
350
1AA
  0
DICTIONARYVAR
  5
1AA
100
DictionaryVariables
280
0
  1
2
  0
DICTIONARYVAR
  5
1AB
100
DictionaryVariables
280
0
  1
1
  0
DICTIONARY
  5
1A9
100
AcDbDictionary
281
1
  3
Grid/DisplayGrid00
350
1AC
  3
Grid/DisplayGrid01
350
1AD
  3
Grid/DisplayGrid02
350
1AE
  3
Grid/DisplayGrid03
350
1AF
  3
Grid/GridSpacingX00
350
1B0
  3
Grid/GridSpacingX01
350
1B1
  3
Grid/GridSpacingX02
350
1B2
  3
Grid/GridSpacingX03
350
1B3
  3
Grid/GridSpacingY00
350
1B4
  3
Grid/GridSpacingY01
350
1B5
  3
Grid/GridSpacingY02
350
1B6
  3
Grid/GridSpacingY03
350
1B7
  3
Grid/IsometricGrid00
350
1B8
  3
Grid/IsometricGrid01
350
1B9
  3
Grid/IsometricGrid02
350
1BA
  3
Grid/IsometricGrid03
350
1BB
  3
Grid/IsometricProjection00
350
1BC
  3
Grid/IsometricProjection01
350
1BD
  3
Grid/IsometricProjection02
350
1BE
  3
Grid/IsometricProjection03
350
1BF
  3
Grid/MetaGridSpacingX00
350
1C0
  3
Grid/MetaGridSpacingX01
350
1C1
  3
Grid/MetaGridSpacingX02
350
1C2
  3
Grid/MetaGridSpacingX03
350
1C3
  3
Grid/MetaGridSpacingY00
350
1C4
  3
Grid/MetaGridSpacingY01
350
1C5
  3
Grid/MetaGridSpacingY02
350
1C6
  3
Grid/MetaGridSpacingY03
350
1C7
  3
MultiPageSettings/Columns
350
1C8
  3
MultiPageSettings/GlueMarginsBottom
350
1C9
  3
MultiPageSettings/GlueMarginsLeft
350
1CA
  3
MultiPageSettings/GlueMarginsRight
350
1CB
  3
MultiPageSettings/GlueMarginsTop
350
1CC
  3
MultiPageSettings/PrintCropMarks
350
1CD
  3
MultiPageSettings/Rows
350
1CE
  3
PageSettings/OffsetX
350
1CF
  3
PageSettings/OffsetY
350
1D0
  3
PageSettings/PageOrientation
350
1D1
  3
PageSettings/PaperHeight
350
1D2
  3
PageSettings/PaperWidth
350
1D3
  3
PageSettings/Scale
350
1D4
  3
PageSettings/ShowPaperBorders
350
1D5
  3
UnitSettings/PaperUnit
350
1D6
  0
XRECORD
  5
1AC
330
1A9
100
AcDbXrecord
280
1
290
1
  0
XRECORD
  5
1AD
330
1A9
100
AcDbXrecord
280
1
290
1
  0
XRECORD
  5
1AE
330
1A9
100
AcDbXrecord
280
1
290
1
  0
XRECORD
  5
1AF
330
1A9
100
AcDbXrecord
280
1
290
1
  0
XRECORD
  5
1B0
330
1A9
100
AcDbXrecord
280
1
1000
auto
  0
XRECORD
  5
1B1
330
1A9
100
AcDbXrecord
280
1
1000
auto
  0
XRECORD
  5
1B2
330
1A9
100
AcDbXrecord
280
1
1000
auto
  0
XRECORD
  5
1B3
330
1A9
100
AcDbXrecord
280
1
1000
auto
  0
XRECORD
  5
1B4
330
1A9
100
AcDbXrecord
280
1
1000
auto
  0
XRECORD
  5
1B5
330
1A9
100
AcDbXrecord
280
1
1000
auto
  0
XRECORD
  5
1B6
330
1A9
100
AcDbXrecord
280
1
1000
auto
  0
XRECORD
  5
1B7
330
1A9
100
AcDbXrecord
280
1
1000
auto
  0
XRECORD
  5
1B8
330
1A9
100
AcDbXrecord
280
1
290
0
  0
XRECORD
  5
1B9
330
1A9
100
AcDbXrecord
280
1
290
0
  0
XRECORD
  5
1BA
330
1A9
100
AcDbXrecord
280
1
290
0
  0
XRECORD
  5
1BB
330
1A9
100
AcDbXrecord
280
1
290
0
  0
XRECORD
  5
1BC
330
1A9
100
AcDbXrecord
280
1
 90
0
  0
XRECORD
  5
1BD
330
1A9
100
AcDbXrecord
280
1
 90
0
  0
XRECORD
  5
1BE
330
1A9
100
AcDbXrecord
280
1
 90
0
  0
XRECORD
  5
1BF
330
1A9
100
AcDbXrecord
280
1
 90
0
  0
XRECORD
  5
1C0
330
1A9
100
AcDbXrecord
280
1
1000
auto
  0
XRECORD
  5
1C1
330
1A9
100
AcDbXrecord
280
1
1000
auto
  0
XRECORD
  5
1C2
330
1A9
100
AcDbXrecord
280
1
1000
auto
  0
XRECORD
  5
1C3
330
1A9
100
AcDbXrecord
280
1
1000
auto
  0
XRECORD
  5
1C4
330
1A9
100
AcDbXrecord
280
1
1000
auto
  0
XRECORD
  5
1C5
330
1A9
100
AcDbXrecord
280
1
1000
auto
  0
XRECORD
  5
1C6
330
1A9
100
AcDbXrecord
280
1
1000
auto
  0
XRECORD
  5
1C7
330
1A9
100
AcDbXrecord
280
1
1000
auto
  0
XRECORD
  5
1C8
330
1A9
100
AcDbXrecord
280
1
 90
1
  0
XRECORD
  5
1C9
330
1A9
100
AcDbXrecord
280
1
 40
10.0
  0
XRECORD
  5
1CA
330
1A9
100
AcDbXrecord
280
1
 40
10.0
  0
XRECORD
  5
1CB
330
1A9
100
AcDbXrecord
280
1
 40
10.0
  0
XRECORD
  5
1CC
330
1A9
100
AcDbXrecord
280
1
 40
10.0
  0
XRECORD
  5
1CD
330
1A9
100
AcDbXrecord
280
1
290
0
  0
XRECORD
  5
1CE
330
1A9
100
AcDbXrecord
280
1
 90
1
  0
XRECORD
  5
1CF
330
1A9
100
AcDbXrecord
280
1
 40
0.0
  0
XRECORD
  5
1D0
330
1A9
100
AcDbXrecord
280
1
 40
0.0
  0
XRECORD
  5
1D1
330
1A9
100
AcDbXrecord
280
1
1000
Portrait
  0
XRECORD
  5
1D2
330
1A9
100
AcDbXrecord
280
1
 40
297.0
  0
XRECORD
  5
1D3
330
1A9
100
AcDbXrecord
280
1
 40
210.0
  0
XRECORD
  5
1D4
330
1A9
100
AcDbXrecord
280
1
1000
1:1
  0
XRECORD
  5
1D5
330
1A9
100
AcDbXrecord
280
1
290
1
  0
XRECORD
  5
1D6
330
1A9
100
AcDbXrecord
280
1
 90
4
  0
ENDSEC
  0
EOF
